<?xml version="1.0" standalone="no"?>
<!DOCTYPE svg PUBLIC "-//W3C//DTD SVG 1.1//EN" "http://www.w3.org/Graphics/SVG/1.1/DTD/svg11.dtd" >
<svg xmlns="http://www.w3.org/2000/svg">
<metadata></metadata>
<defs>
<font id="martinaregular" horiz-adv-x="1460" >
<font-face units-per-em="2048" ascent="1638" descent="-410" />
<missing-glyph horiz-adv-x="593" />
<glyph unicode="&#xd;" horiz-adv-x="593" />
<glyph unicode=" "  horiz-adv-x="593" />
<glyph unicode="&#x09;" horiz-adv-x="593" />
<glyph unicode="&#xa0;" horiz-adv-x="593" />
<glyph unicode="!" horiz-adv-x="563" d="M86 117q0 16 2 22q4 25 22.5 48.5t55.5 48.5q78 53 121 53q63 0 92 -121l16 -66q0 -43 -42 -85t-105 -42q-117 0 -152 88q-10 31 -10 54zM113 430l20 82l4 66v32v29v10l10 129l17 273v47l2 86v20l8 115l4 76l2 8l2 51l4 27q12 35 35 43l82 -13q20 -4 41 -4h45q10 0 31 -8 q53 -29 53 -65q0 -33 -53 -97q-4 -6 -8 -20t-9 -62l-8 -102l-2 -23l-16 -243v-35l-2 -33v-12l-4 -68l-2 -10l-2 -67v-25l-5 -59q-2 -12 -2 -39q0 -33 7 -80q0 -14 2 -28.5t2 -20.5q0 -35 -21.5 -45.5t-93.5 -10.5q-39 0 -66 8q-67 23 -77 68z" />
<glyph unicode="$" horiz-adv-x="999" d="M45 496q0 39 46 64.5t95 25.5q98 0 148 -113q31 -70 54.5 -89t86.5 -19q57 0 70 2q49 8 70.5 35.5t21.5 58.5q0 57 -47 86q-61 41 -228 82q-127 29 -197.5 115.5t-70.5 216.5q0 100 25.5 158.5t101.5 129.5q20 20 59 40t111 42l27 8v105q0 84 12 100.5t64.5 23.5t62.5 7 q49 0 64.5 -29.5t15.5 -115.5v-101q82 -33 140.5 -97.5t105.5 -174.5q14 -33 23 -63.5t9 -61.5q0 -43 -15 -61.5t-58 -18.5q-39 0 -101 18l-20 11l-57 125q-6 18 -56 84q-8 10 -19 21t-29.5 22.5t-43.5 11.5q-63 0 -94 -66l-16 -49q-16 -59 -17 -98q0 -115 121 -152l74 -24 l53 -15l20 -8l107 -35q94 -33 131 -69.5t37 -112.5q0 -33 -6 -77t-24.5 -79.5t-61.5 -88t-87 -82t-102 -44.5q-23 -35 -22 -84q0 -10 2 -29.5t4 -35.5t2 -21q0 -39 -21.5 -50t-49 -15t-47 -7t-42.5 -3q-41 0 -50 25.5t-9 115.5v123l-10 2l-74 22q-90 25 -138.5 56.5 t-78.5 81.5q-39 66 -55.5 103.5t-16.5 66.5z" />
<glyph unicode="%" horiz-adv-x="1370" d="M41 1108q0 27 6 70l14 61q37 133 56.5 160.5t91.5 62.5q43 18 108 19q18 0 41 -2t50.5 -10.5t44 -15.5t41.5 -23q139 -92 139 -265q0 -14 -2 -30.5t-2 -24.5q-6 -68 -35 -124t-54.5 -87t-45.5 -39l-56 -10l-37 -8l-16 -4q-14 -2 -38.5 1t-84.5 17q-92 25 -134 61.5 t-77 129.5l-8 32q-2 8 -2 29zM252 1112q0 -47 6 -69.5t31.5 -54.5t54.5 -32q21 1 41 21q33 33 42 84t9 100q0 104 -41 152q-18 25 -47 24q-20 0 -36.5 -18.5t-26 -37.5t-23.5 -77q-2 -16 -6 -43.5t-4 -48.5zM268 98q-4 20 3.5 43t23.5 58l27 55l38 76l35 65l33 62l51 96 l17 33l24 41l47 86l72 125l33 55l37 68l43 75l10 21l55 92l31 53l78 133l61 95q23 37 29 45q18 27 41 26q10 0 29.5 -5t43.5 -11q94 -20 95 -64q0 -14 -13 -32l-41 -60q-27 -35 -101.5 -158.5t-135.5 -234.5l-92 -164l-25 -45l-67 -117l-19 -32l-72 -132l-53 -98 q-35 -63 -90 -164q-39 -72 -53 -94l-31 -65q-6 -25 -49 -25q-20 2 -43 17.5t-61 60.5zM741 307q0 37 21 121q31 111 79 157t138 46q37 0 113.5 -13.5t124 -51.5t83.5 -134q27 -66 27 -135q0 -39 -10 -80q-37 -137 -87 -181t-157 -44q-18 0 -51 8l-6 2l-39 10l-25 8l-57 19 q-68 23 -102.5 70t-49.5 143q-4 37 -2 55zM958 205q0 -31 17.5 -55.5t50.5 -24.5q18 0 33 8q29 18 44 70.5t15 150.5q0 63 -49 129q-31 -14 -44 -31.5t-32 -66.5l-10 -27q-6 -18 -16 -73l-4 -27q-4 -45 -5 -53z" />
<glyph unicode="&#x26;" horiz-adv-x="1382" d="M39 334q0 121 158 211l28 14l17 8l6 2l80 33l98 45l-55 4q-152 20 -225.5 90t-73.5 172q0 57 31.5 105.5t93.5 85.5l22 12l21 12l147 74l31 12l47 19q72 29 128 46t105 26q102 18 168 18q84 0 137.5 -33t75 -66.5t35.5 -103.5q8 -31 8 -67q0 -88 -75 -88q-16 0 -39 6 q-51 12 -93 71l-47 80q-2 4 -32.5 -1t-61.5 -13l-57 -14l-111 -35l-108 -43l-13 -4l-92 -49q-43 -20 -86 -54q-10 -10 -10 -24q0 -6 9 -20.5t41 -26t118 -25.5l61 -10q102 -12 140 -12l143 -3q23 0 50.5 -29.5t33.5 -68.5t6 -47q0 -35 -26.5 -53.5t-96.5 -34.5l-104 -33 q-55 -18 -105.5 -40.5t-93.5 -47.5l-92 -55l-8 -4l-86 -58q-25 -14 -45 -43q-8 -8 -9 -22q0 -35 50.5 -52.5t78 -22.5t68.5 -5q35 0 131 10q23 0 39 2q10 2 72 15q154 31 258 82l92 53l-18 2l-35 6q-43 8 -59.5 15.5t-67.5 48.5l-33 30q-12 12 0 32.5t40 32t91 19.5l61 21 q2 2 21 4q41 8 84 14l111 16q37 6 67 7q86 0 106.5 -59.5t20.5 -88.5q0 -47 -90 -67l-74 -17l-10 -2q-16 -61 -45 -106q-63 -104 -221 -168l-39 -17l-37 -12l-45 -14q-170 -49 -309 -49q-125 0 -221.5 33.5t-163.5 99.5q-117 115 -117 219z" />
<glyph unicode="(" horiz-adv-x="589" d="M88 590v196l2 72l2 29l-4 100l10 62l6 73l17 74l2 6l2 66q0 23 14 71l2 11l15 41l22 84q6 20 18.5 36.5t37 38t42.5 29.5q29 16 64 24.5t59 8.5q35 0 59.5 -9.5t40 -28t15.5 -44.5q0 -35 -20 -41l-64 -19l-29 -14q-16 -14 -24 -35.5t-15 -72.5l-2 -23l-4 -61l-10 -82v-8 v-84l-6 -91l6 -86l-6 -94v-100l2 -31l4 -67l-4 -154v-16l8 -138l12 -180q16 -106 41 -148t78 -65q35 -14 47 -18t19 -4q12 -4 12 -17q0 -68 -110 -67h-25q-12 2 -18 2q-41 6 -82 24q-61 29 -101.5 88.5t-72.5 171.5q-23 68 -35 172l-6 56l-7 65l-8 72l-2 47l-2 33z" />
<glyph unicode=")" horiz-adv-x="583" d="M23 1544q0 35 43 53q23 8 57 9q8 0 51 -5.5t78 -23.5q59 -29 101 -88t75 -172q20 -76 33 -174l6 -53l8 -66l6 -72l4 -47l2 -37v-41v-196l-2 -72v-29q-2 -14 -1 -44.5t3 -55.5l-10 -61l-6 -74l-16 -74l-2 -6l-2 -65q0 -18 -13 -72l-4 -10l-12 -41q-14 -37 -22.5 -78 t-59.5 -84l-41 -29q-66 -33 -123 -33q-70 0 -100 41q-14 16 -15 43q0 35 21 41l63 19l29 14q20 16 27.5 35.5t11.5 73.5l2 22l4 62l10 82l2 8l-2 82l9 90l-9 88l9 94v100l-2 31l-7 68l4 153v15l-6 139q0 86 -6 127t-8 53q-14 102 -40 146.5t-77 66.5l-67 23q-6 12 -6 24z " />
<glyph unicode="*" horiz-adv-x="778" d="M51 1235q0 16 4 37.5t17.5 52.5t79.5 31q29 0 81 -6l27 -4l4 45v12l-2 88q0 35 66 35q18 0 41.5 -8.5t44 -22.5t38 -31.5t25.5 -40.5q25 51 80 72q18 8 49 8q35 0 59.5 -30.5t16.5 -65.5q-4 -23 -17.5 -47.5t-43.5 -56.5l-27 -25l33 -12q92 -41 92 -105q0 -23 -14 -43 q-25 -33 -60 -33q-25 0 -67 13q-16 2 -60 -8q14 -25 25 -72l6 -49q0 -27 -22.5 -45.5t-55.5 -18.5q-47 0 -111 76l-24 45q-6 -8 -18.5 -22.5t-36.5 -36.5l-41 -35q-16 -10 -39 -10q-27 0 -47 14q-37 23 -37 74t45 108l31 27q-35 29 -67 41t-53.5 16t-21.5 33z" />
<glyph unicode="," horiz-adv-x="397" d="M59 -133q0 51 2 65q10 41 16.5 69t7.5 48.5t1 106.5l2 20q14 72 39 103.5t53 31.5q90 0 125 -18.5t35 -61.5q0 -18 -6 -47l-17 -86l-8 -37l-20 -77l-23 -99l-4 -16q-14 -76 -28.5 -92.5t-71.5 -16.5q-61 0 -82 20.5t-21 86.5z" />
<glyph unicode="-" horiz-adv-x="755" d="M45 555q4 8 25.5 13t91.5 16l28 4l48 4l59 4l65 4h44l40 2l91 -4q68 -6 97.5 -18.5t43.5 -36.5q35 -74 35 -94q0 -31 -74 -37l-104 -6l-31 -3l-80 3l-10 -3l-101 -4h-51q-61 0 -95 10.5t-58 32.5l-39 54q-18 23 -23.5 38t-1.5 21z" />
<glyph unicode="." horiz-adv-x="428" d="M57 117q0 16 2 22q4 25 22.5 48.5t55.5 48.5q78 53 121 53q63 0 92 -121l17 -66q0 -43 -42 -85t-106 -42q-117 0 -151 88q-10 31 -11 54z" />
<glyph unicode="/" horiz-adv-x="585" d="M29 113v37l39 96l20 82l8 37l10 41l3 12l45 157l90 338l14 58l27 108l10 39l61 223l11 37l8 35l12 33q18 41 29 41q8 0 55 -43l51 -37q23 -12 33 -76q4 -29 4 -37q0 -31 -22 -61q-6 -8 -43 -51q-6 -6 -13 -23q-4 -10 -22 -76l-43 -153l-84 -301l-10 -41l-11 -41l-4 -15 l-22 -83l-4 -13l-23 -88l-6 -29l-21 -71q-23 -88 -32 -154l-11 -76q-8 -29 -49 -28q-14 0 -38.5 11t-45 41t-26.5 71z" />
<glyph unicode="0" horiz-adv-x="1290" d="M61 547v53.5t2 46.5l21 98l4 23l8 63q2 18 10.5 46t24.5 79.5t36.5 89t70.5 109.5l26 37l8 8l31 29l4 6l29 33q18 25 55 45t94 28l33 2l27 3l39 2q57 0 74.5 -2.5t78.5 -18.5l43 -10l29 -8q45 -14 78 -34t110 -79q25 -18 72 -70q92 -98 124 -212.5t32 -325.5 q0 -70 -8.5 -108t-30.5 -101q-35 -96 -95.5 -176t-123.5 -121l-6 -4l-39 -23l-41 -22l-9 -4q-78 -41 -200 -41q-14 0 -31.5 2t-37 4t-57.5 11t-110 36l-55 18l-51 27q-76 43 -119 87t-84 122q-18 35 -30.5 65.5t-18.5 51.5l-2 14l-4 23zM299 512q0 -35 2 -49l6 -35 q25 -100 55.5 -155.5t77.5 -90.5l11 -8l18 -12q61 -37 100 -37h41q66 0 97.5 12.5t111.5 71.5l27 20l14 11l10 10q45 45 78 118.5t53 184.5q6 25 8.5 54.5t2.5 66.5q0 199 -36 295t-124 157q-106 76 -188 76q-123 0 -242 -188q-23 -33 -40 -78t-46 -139q-4 -10 -12.5 -57.5 t-12.5 -67.5l-4 -45l-6 -60q-2 -16 -2 -31.5v-23.5z" />
<glyph unicode="1" horiz-adv-x="1296" d="M295 49q0 12 8 34.5t33.5 40t77.5 26.5l45 10l28 4l27 4l2 59l2 78l8 397v80v49v13l2 90v10v90v31l2 70q-20 -4 -36 -5h-19q-14 2 -43 8.5t-55.5 24t-26.5 45.5q0 20 13.5 33.5t26.5 22t40 14.5l59 14l11 2l10 2l65 11q49 6 82 6q72 0 95.5 -31t23.5 -104l-4 -43l-4 -43 l-4 -68l-4 -55q0 -4 -7.5 -134t-7.5 -217l-4 -159v-70v-96v-100l27 -5q78 -20 100.5 -64t22.5 -71q0 -35 -25 -41l-49 -8l-59 -2h-8h-23l-53 -2l-74 -2l-49 -2l-66 -4l-55 -2l-94 6q-41 8 -41 53z" />
<glyph unicode="2" horiz-adv-x="1288" d="M123 117q0 41 20.5 59.5t85.5 42.5l78 35q88 41 162 94l35 27l69 55l56 43l10 10l8 9l41 47l27 28l24 27l23 29l35 36l24 31l41 64q39 76 53.5 108.5t20.5 67.5t6 41q2 14 2 43q0 23 -4 45t-10 41q-43 109 -142 108q-23 0 -53 -5t-92 -50q-76 -57 -162 -158 q-18 -25 -34.5 -45t-32.5 -51q-25 -41 -51.5 -83t-26.5 -62q0 -4 8 -49q4 -14 -6 -32t-26.5 -24t-24.5 -6q-43 0 -97 47q-37 31 -36 92q0 53 22 133q12 39 28.5 74t55.5 94l47 66q70 84 109 111q106 76 159.5 95t153.5 19q164 0 318 -172q63 -74 89.5 -138.5t26.5 -145.5 q0 -127 -88 -265l-24 -35l-9 -12l-36 -37l-48 -51l-28 -29l-84 -73l-6 -4l-82 -64l-25 -18l-41 -31l-71 -47l67 2h184q104 0 144 -10q72 -20 101.5 -46t29.5 -61q0 -25 -16.5 -43t-36.5 -18l-136 6q-10 0 -88.5 -5t-144.5 -5q-43 0 -69.5 -3t-143.5 -24l-49 -8l-98 -17 l-80 -12q-12 -2 -19 -6q-27 -14 -51 -29q-12 -6 -25 -6q-43 0 -55 59.5t-12 90.5z" />
<glyph unicode="3" horiz-adv-x="1288" d="M133 879q0 47 33 118q14 29 36.5 62t69.5 88q23 25 35 37q33 31 89.5 67.5t93 54t79.5 27.5q84 20 146 21q45 0 83 -13.5t87 -46.5l59 -37l4 -4q18 -14 38 -31.5t50 -47.5q119 -119 119 -205q0 -37 -16 -76q-6 -16 -27.5 -54t-38 -54.5t-33.5 -28.5l-43 -35l-22 -19 q-41 -29 -65.5 -44t-55.5 -27q49 0 86 -11.5t78 -44.5q123 -102 123 -223q0 -125 -129 -241q-27 -23 -67 -44.5t-101 -43.5l-80 -23q-72 -14 -121 -21.5t-88 -7.5q-145 0 -260 52l-35 16q-57 31 -90 85t-33 103q0 43 27 66q45 39 78 39q18 0 32.5 -9.5t20.5 -24.5t6 -58 q0 -33 59.5 -58.5t182.5 -25.5q66 0 116 10t93 31q70 35 91 51t56 59t35 70q0 39 -70 63q-25 8 -65.5 21.5t-70.5 19.5t-52.5 8.5t-48.5 2.5q-49 0 -105 -15l-47 -14h-22q-27 4 -41.5 30.5t-19.5 68.5t-5 65q0 57 47 57q8 0 37 -4t41 -4q49 0 154 41q43 18 88 52t80 81 q43 57 59 86t31 68q6 16 6 32q0 51 -46 89t-118 38q-84 0 -217 -90q-57 -39 -113 -106l-14 -19l-45 -59q-45 -57 -45 -86q0 -12 2 -19l2 -14q4 -14 -10.5 -18t-22.5 -4q-16 0 -70 18l-18 8q-41 20 -61.5 45t-20.5 60z" />
<glyph unicode="4" horiz-adv-x="1286" d="M2 500q-2 8 10.5 23.5t34.5 39.5l39 41l27 25l16 16l4 4l27 33l53 49l20 19l46 45l51 51l8 8l4 4l61 51l17 15l53 51l43 41l25 24l12 11l51 45l8 8l47 47l35 31l15 12l14 14q66 66 91.5 85.5t56 27.5t53 12t47.5 4q49 0 75.5 -19.5t26.5 -49.5l-16 -76l-13 -78v-8l-6 -92 l-2 -27l-8 -69l-2 -87l-2 -69l-2 -31l-6 -67l-4 -31l2 -47q2 -24 -4 -90q18 6 43 2q70 0 106.5 -19.5t47 -47.5t10.5 -52q0 -49 -58 -60l-47 -6l-25 -4l-24 -6l-29 -6l-26 -8l-2 -254q0 -12 -18.5 -23.5t-57.5 -11.5l-53 -2h-21q-88 0 -88 59v15l2 39l2 32l2 41v17v55v41 l-41 -4l-31 -2h-34l-37 -2l-72 -6l-141 -9l-285 -10q-55 0 -66.5 9.5t-31.5 70.5l-19 59l-2 15l-6 47zM227 461l70 4h31l90 2h10l164 10h33l98 2l25 4l30 4l4 93l4 88v10v61v35l2 51l3 25l4 70l-4 84l-78 -74l-33 -33l-88 -80l-27 -24l-41 -39l-69 -66l-58 -55l-8 -10 l-63 -60l-7 -4l-24 -24l-39 -43l-23 -23z" />
<glyph unicode="5" horiz-adv-x="1288" d="M82 240q0 47 24.5 73.5t61.5 26.5q12 0 30.5 -5t34 -22.5t52.5 -89.5q12 -23 52 -35t118 -12l59 4h14q45 0 66.5 4t93.5 21.5t119 36.5q61 25 94 41t57 36q53 41 54 97q0 47 -39 80q-23 20 -76 41l-86 24q-39 10 -80 12t-113 2q-37 0 -70.5 -5t-76.5 -15l-8 -2l-82 -25 l-53 -16l-6 -2l-54 -33q-12 -12 -35.5 1.5t-52.5 41.5q-16 16 -16 58q0 27 2 45v14l4 70v12l4 188l2 11l8 190q0 92 22.5 119.5t102.5 38.5l88 12q94 12 185 12h71h35l201 -4l102 -4q49 0 75 -5t46 -15q63 -33 64 -86q0 -8 -5 -21q-10 -29 -33.5 -35t-103.5 -6h-16l-105 -2 l-243 -10l-62 -4l-61 -2l-58 -4l-61 -7q-25 -68 -25 -159l3 -49l2 -48l-9 -77q39 -4 54 -2l77 10q31 6 72 6q98 0 236 -33q106 -27 159.5 -54.5t87.5 -66.5q104 -123 105 -229q0 -47 -20.5 -104.5t-67.5 -104.5t-146 -96q-72 -35 -198 -68q-53 -12 -95 -19t-83 -7h-83 t-67 -2q-27 0 -37 2q-111 18 -151.5 36.5t-83.5 65.5q-35 39 -52.5 70.5t-20.5 48t-3 35.5z" />
<glyph unicode="6" horiz-adv-x="1288" d="M82 569q0 119 9 187.5t40 183.5l16 55l5 11l24 49l17 32l10 21l22 35q45 72 67.5 99.5t49.5 47.5q72 55 124 79t112 24q59 0 151 -25l47 -12l43 -19l45 -20l43 -21q55 -27 84 -59l6 -8l25 -35l20 -29l11 -16q41 -61 53 -141l2 -21l8 -65q2 -18 2 -43q0 -43 -18 -54 q-53 -23 -85 -34t-50 -11q-27 0 -37 19.5t-17 70.5l-4 25l-4 51l-18 72l-15 45l-8 20l-14 35q-59 111 -148 111q-63 0 -155 -64q-18 -14 -35.5 -31.5t-42.5 -49t-39 -55t-27 -52.5l-14 -39l-16 -45l-27 -84l-12 -78l-8 -59l-2 -19q-2 -6 -3 -24q1 -27 9 -62l65 37l60 33 l45 22q160 74 295 74q145 0 258 -88l49 -43l6 -8l29 -35q43 -53 56 -86t13 -94q0 -66 -7 -89.5t-50 -80.5l-23 -25q-41 -51 -94 -86l-31 -20l-14 -8l-22 -13q-86 -39 -125 -51t-95 -20l-43 -6l-38 -5q-16 -2 -27 -2h-25q-55 0 -114 23l-52 18l-34 15l-21 8l-35 16 q-31 12 -47 21.5t-37 27.5q-72 57 -101.5 94t-51.5 93l-8 26l-5 15q-12 39 -17 91t-5 148zM332 330q0 -31 8 -56.5t22 -50.5q37 -61 72 -89t84 -28q31 0 62.5 7.5t70.5 19.5q39 14 71 29.5t69 42.5l16 12l14 12q35 27 60.5 52.5t40.5 42.5q29 35 42 57t17 41q2 8 2 20 q0 37 -25 45l-61 13l-66 10l-75 -6l-64 -4h-10q-61 -10 -104 -23q-123 -39 -167 -65.5t-79 -81.5z" />
<glyph unicode="7" horiz-adv-x="1288" d="M74 903q0 29 10 76l18 82l4 18l25 92l2 9q8 23 16.5 77t59.5 54q27 0 63 -19l70 -41q6 -6 31 -6q12 0 20 2l58 10q20 6 56 9.5t71 3.5l127 10l129 6l30 2l97 -2q102 0 122.5 -4t40.5 -35q8 -12 13 -22q4 -8 4 -21q0 -18 -29 -82l-49 -104l-53 -109l-31 -61l-18 -43 l-50 -105l-39 -86l-8 -22l-2 -6l-31 -84l-10 -25l-26 -65l-13 -33l-8 -21l-20 -51l-11 -28l-26 -74l-37 -103q-16 -57 -25 -79q-16 -41 -43 -41q-6 0 -21.5 3t-23.5 5l-45 12q-76 25 -76 76q0 23 13 59l26 90l23 60l33 86l114 282l17 33l10 27l14 26l15 31l6 10l6 11l4 6 l39 94l47 100q6 14 16.5 48t16.5 63l-101 -6l-180 -8h-18l-39 -5l-62 -6l-53 -6l-45 -6l-39 -84l-18 -59l-8 -27l-13 -37q-20 -55 -33.5 -72.5t-43.5 -17.5q-16 0 -27 2q-92 10 -92 131z" />
<glyph unicode="8" horiz-adv-x="1294" d="M98 354q0 25 6.5 44.5t20.5 45.5q53 88 76.5 114t81.5 58l45 27l20 12l-33 21q-12 6 -25.5 17.5t-45.5 39.5q-111 106 -111 217q0 84 65.5 168t202.5 170q51 33 90 47.5t72 16.5t55.5 4t43.5 2q43 0 60 -4t23 -4l93 -41l49 -21l24 -10q18 -6 31.5 -15.5t46.5 -38 t52.5 -53t35.5 -53.5q27 -59 27 -114q0 -70 -55 -160q-78 -127 -197 -172l22 -6l64 -23q59 -20 89 -36.5t65 -49.5q53 -51 78.5 -97t25.5 -95q0 -43 -22 -115q-10 -31 -31 -58.5t-66 -66.5l-30 -27l-7 -4l-28 -24l-8 -7q-35 -23 -73 -39t-112 -32q-23 -6 -58.5 -11.5 t-60.5 -5.5q-125 0 -229 26t-188 81q-51 33 -78 57.5t-49 57.5q-57 84 -58 157zM313 287q0 -57 58 -94q70 -45 207 -46q63 1 110 11q76 16 114 30.5t70 38.5q109 82 93 162q-8 55 -23.5 72.5t-81.5 58.5q-20 10 -67.5 23.5t-91.5 19.5t-56 6h-24q-16 -4 -25 -4 q-31 -8 -57.5 -20.5t-65.5 -36.5q-96 -68 -131 -143q-14 -27 -21.5 -49.5t-7.5 -28.5zM348 885q10 -45 72 -80l31 -14q49 -16 81 -17q16 0 23 2q106 14 133 21.5t57 29.5l37 31q51 47 67.5 81t16.5 81q0 113 -104 145q-16 6 -37 6q-23 0 -49.5 -6t-85.5 -24 q-20 -6 -43 -19.5t-76 -52.5l-39 -37q-55 -61 -71.5 -92t-12.5 -55z" />
<glyph unicode="9" horiz-adv-x="1288" d="M82 989q0 66 7 89.5t50 78.5l21 27q25 29 45 47t51 39l31 20l14 8l23 13q86 39 124.5 51t94.5 20l43 7l39 4q16 2 26 2h25q55 0 115 -23l51 -18l35 -15l20 -8l35 -16q53 -23 84 -49q72 -59 101.5 -95t49.5 -92l11 -26l4 -15q12 -39 17 -91t5 -148q0 -119 -8 -185.5 t-43 -185.5l-14 -55l-4 -11l-25 -49l-16 -32l-13 -21l-20 -35q-45 -72 -67.5 -99.5t-49.5 -47.5q-72 -55 -124 -79t-111 -24t-152 25l-47 12l-43 19l-45 20l-43 21q-51 23 -84 59l-6 8l-25 35l-20 29l-13 16q-41 63 -51 141l-2 21l-8 65q-2 12 -2 23v20q0 43 18 54 q53 23 85 34t51 11q27 0 37 -19.5t16 -72.5l4 -23l4 -51l18 -72l15 -45l8 -20l14 -35q59 -111 148 -111q63 0 155 64q18 14 36 31.5t42.5 49t36.5 51t29 56.5l14 39l16 45l27 84l10 78l9 53l4 23q4 25 4 49q0 10 -4 47l-72 -45l-31 -19l-33 -16l-43 -22q-164 -74 -290 -74 q-143 0 -260 90l-50 43l-6 8l-28 35q-43 53 -56.5 86t-13.5 94zM301 928q0 -12 7 -26.5t24.5 -19.5t56.5 -14l66 -12l75 8l64 4h10q78 8 174 45l41 17q135 59 135 123q0 35 -39 102q-61 106 -149 107q-29 0 -61.5 -8.5t-70.5 -20.5t-70 -27.5t-68 -42.5l-17 -12l-14 -12 q-35 -27 -59.5 -50.5t-36.5 -39.5q-68 -84 -68 -121z" />
<glyph unicode=":" horiz-adv-x="485" d="M86 117q0 16 2 22q4 25 22.5 48.5t55.5 48.5q78 53 121 53q63 0 92 -121l16 -66q0 -43 -42 -85t-105 -42q-117 0 -152 88q-10 31 -10 54zM86 745q0 15 2 23q4 23 23.5 47.5t54.5 46.5q74 53 123 53q61 0 90 -118l16 -66q0 -47 -42 -87t-107 -40q-115 0 -150 86 q-10 35 -10 55z" />
<glyph unicode=";" horiz-adv-x="485" d="M86 745q0 15 2 23q4 23 23.5 47.5t54.5 46.5q74 53 123 53q61 0 90 -118l16 -66q0 -47 -42 -87t-107 -40q-115 0 -150 86q-10 35 -10 55zM104 -133q0 51 2 65q10 41 16.5 67t8.5 45t2 112l2 20q12 72 36 103.5t54 31.5q90 0 125 -18.5t35 -61.5q0 -18 -6 -47l-17 -86 l-8 -37l-18 -77l-25 -99l-4 -16q-14 -76 -27.5 -92.5t-70.5 -16.5q-63 0 -84 20.5t-21 86.5z" />
<glyph unicode="?" horiz-adv-x="1095" d="M-18 1004q0 29 32 71l54 70l10 12l31 39l36 43q37 41 67 68.5t91 72.5l21 15l61 45q47 35 66 43l6 2l71 22q78 23 115 23q49 0 162 -48t169 -115t78.5 -106.5t22.5 -78.5q0 -29 -10 -68q-2 -12 -13.5 -46t-26.5 -58.5t-58 -81.5l-64 -80l-16 -23l-15 -16l-155 -186 l-19 -23l-63 -78q10 -10 16 -24.5t6 -22.5q0 -27 -20 -41l-66 -37q-68 -25 -96 -24q-16 0 -33 6q-94 33 -94 84q0 39 43 94l27 37l24 35l45 59l23 29l41 53l24 31l5 6l30 43l37 47l37 47l61 90q45 72 62.5 109t17.5 78q0 43 -26.5 71.5t-71.5 28.5q-16 0 -39.5 -8t-44.5 -19 l-117 -57l-8 -6l-53 -33q-63 -45 -96 -72.5t-56.5 -52t-44.5 -51.5q-27 -35 -37 -59l-34 -80q0 -6 -21 -6q-14 0 -33.5 2t-47 8t-48.5 22q-66 53 -65 95zM338 117q0 16 2 22q4 25 22.5 48.5t55.5 48.5q78 53 121 53q66 0 94 -121l14 -66q0 -43 -42 -85t-105 -42 q-117 0 -152 88q-10 31 -10 54z" />
<glyph unicode="A" horiz-adv-x="1351" d="M57 518q0 145 35 281l8 32l15 54l10 28l16 56l11 30l8 33l43 90l20 45l8 21l41 65l50 68q80 102 149.5 145t155.5 43h30q20 -4 31 -4q59 -8 89 -21.5t83 -56.5l37 -28l8 -8l23 -19l22 -22q25 27 51.5 38t71.5 11h41q51 -4 70.5 -14.5t19.5 -38.5q0 -18 -10 -64l-14 -106 l-13 -105v-27l-2 -79l-10 -113q0 -45 -5 -127t-5 -109v-67v-49l4 -209q0 -66 7 -86.5t40 -20.5q25 0 94 17l33 10l78 31q20 8 33 -15q6 -12 6 -24q0 -35 -68 -92l-43 -31q-84 -49 -145 -49q-49 0 -105 30q-74 39 -95 65t-36 87l-18 80l-4 26l-35 -65q-92 -162 -166 -225.5 t-176 -63.5q-74 0 -213 41q-27 8 -45.5 15.5t-40.5 21.5l-10 8l-43 35l-35 31l-6 6q-25 27 -43.5 68.5t-37 118.5t-18.5 208zM313 469l6 -96l5 -47l6 -50q20 -153 109 -153h1q45 0 117 37q16 10 25 16q10 8 41 35l30 29l15 14q27 29 54.5 63.5t41.5 57.5q55 80 76 135l2 10 l22 66l23 73l8 43l8 41l15 74l10 139q0 131 -11.5 187.5t-46.5 97.5q-66 72 -129 72q-98 0 -235 -191q-74 -104 -123 -254l-33 -116l-14 -119l-12 -70l-2 -12z" />
<glyph unicode="B" horiz-adv-x="1480" d="M-104 1309l12 39q25 49 54.5 72.5t90.5 33.5l101 16l28 5q102 14 170 14h72l84 -2h31l45 -4q129 0 211 -19q49 -10 163 -53l39 -16l50 -19q74 -31 118.5 -61.5t91.5 -83.5q61 -68 82 -117t21 -117q0 -82 -32 -136t-124 -128q-27 -20 -67.5 -45.5t-71.5 -42.5 q-49 -26 -104 -49l18 -6l41 -17q80 -35 132 -68.5t95 -80.5q82 -84 82 -166q0 -115 -158 -182l-53 -23q-86 -29 -140 -41t-134 -12h-133h-25q-84 0 -158 16l-59 17l-27 8l-24 8q-25 -53 -90 -53q-29 0 -73 8t-65 33q-12 16 -14 36.5t-2 51.5v72l4 100v25l2 24l8 100l2 21 l15 399l2 29l14 258l2 53v23q0 35 -8 74q-29 0 -44 -2.5t-65.5 -9.5t-85.5 -19l-77 -19q-23 -3 -37 13q-11 12 -11 30q0 6 1 13zM424 190q93 -36 185 -36h5q125 0 328 67l49 15l8 4l54 32q18 12 31.5 32t13.5 32q0 14 -15 29q-25 23 -61 38q-70 31 -94.5 36t-139.5 18 l-118 10h-19l-59 -4l-72 -6q-20 -4 -41.5 -9.5t-44.5 -15.5l-4 -45l-2 -37v-16l-2 -62zM444 664q43 0 86 7t93 19q115 31 179 53.5t111 49.5l35 20q63 41 96 73t48 64q27 59 26 103q0 115 -180 198q-33 16 -86 28.5t-166 33.5q-37 8 -76 10t-96 2q-37 -72 -45 -111 q-14 -68 -14 -258l-6 -96l-5 -94v-29v-30v-43z" />
<glyph unicode="C" horiz-adv-x="1298" d="M59 539v63l2 84v14l15 117l8 37l6 35l8 35l11 30l10 35q23 82 51 146q55 123 80.5 163.5t77.5 92.5q78 78 137 106.5t141 28.5q47 0 76 -6.5t72 -26.5l65 -31l121 -61q57 -39 102 -104.5t78 -163.5q18 -51 26.5 -132t8.5 -139q0 -66 -20 -127q-8 -2 -15 -2h-14 q-25 0 -43 6q-82 25 -110.5 57.5t-45.5 123.5l-4 38v9l-2 84l-2 14l-4 100q0 92 -21.5 125t-95.5 33q-45 0 -123 -12q-43 -4 -85 -33t-87 -88q-25 -35 -43 -76q-25 -55 -61 -158q-63 -182 -78 -340q-6 -80 -6 -131q0 -57 6 -94q20 -98 58 -142t137 -73q53 -16 108 -16h31 q23 4 33 4q63 8 107 26.5t132 73.5l35 25l19 14l67 55l4 4l51 35l54 43l61 62q6 8 19 8q14 0 39.5 -19.5t25.5 -54.5q0 -53 -70 -131l-30 -33l-70 -71q-47 -47 -108 -90l-58 -37q-166 -100 -301 -101q-68 0 -158 27q-106 33 -161.5 72t-151.5 147q-41 47 -62.5 89t-32.5 88 t-15.5 79t-4.5 64z" />
<glyph unicode="D" horiz-adv-x="1402" d="M-104 1305q-1 6 -1 11q0 26 16 50q19 28 77 57q8 4 47 19.5t63 23.5q43 14 105.5 24.5t195.5 22.5q16 2 33 2.5t27 0.5h59q131 0 227.5 -29t198.5 -92q88 -51 115 -80l6 -6l55 -56l64 -57q25 -20 47 -59q16 -29 43 -80q53 -109 65 -199q6 -47 7 -86q0 -80 -35 -197 q-18 -53 -49 -108t-88 -129q-16 -25 -44 -56.5t-55 -58.5q-127 -121 -258 -180q-76 -35 -131 -49t-106 -14q-37 0 -80 6l-76 12l-6 2q-14 2 -35 -2q-35 -12 -61 -21q-8 -2 -16 -2q-9 1 -18 3q-18 4 -54.5 24t-63.5 57l-2 115l2 21l6 92v12v172l10 203l7 82l2 18v12v109v12 l8 111v18l2 107l8 98q-10 2 -35 2q-55 0 -110 -24q-6 -2 -42 -14.5t-55 -12.5q-55 0 -75 113zM410 309l2 -65q0 -55 7 -72.5t42 -17.5q12 0 38 3t42 5q33 6 86 33q66 33 149 94q74 51 156 143q63 70 92 117t60.5 133t31.5 168q0 98 -17.5 155.5t-73.5 142.5t-165 122 q-16 6 -37.5 10t-34.5 6l-153 10q-51 0 -90 -1t-54.5 -11t-21.5 -20q-12 -18 -12 -39q0 -14 2 -28.5t2 -20.5q0 -16 -4 -33l-2 -27l-9 -72q-6 -53 -8 -100t-2 -94v-141v-13l-10 -155l-6 -152z" />
<glyph unicode="E" d="M70 385q0 90 73 182q41 53 117 98.5t215 96.5l57 18l-49 11l-43 10l-22 6l-66 18q-113 31 -175 99.5t-62 148.5q0 76 55 150q20 29 63 59q53 39 138 82l43 20l8 5l104 43q129 55 161 63t159 25l35 4l106 12q14 0 31.5 2t25.5 2q39 0 67 -6t54 -18q131 -61 148 -185v-51 q-8 -68 -41 -102.5t-82 -34.5q-18 0 -48 8t-61.5 43t-41 75t-7.5 62q-12 2 -22 2h-25q-35 0 -74 -7t-129 -34q-31 -10 -58.5 -18t-61.5 -23q-88 -37 -136.5 -61.5t-85.5 -48.5l-4 -4l-63 -50l-54 -51q-10 -14 5.5 -28.5t35.5 -22.5q55 -20 86 -27.5t107 -15.5l127 -10l65 -4 h54l55 -2h111h26h58q20 4 24 6l45 12q6 4 17.5 -9t23.5 -48l12 -35l3 -10v-39q0 -57 -13.5 -67.5t-96.5 -22t-253 -68.5l-70 -24l-153 -64q-117 -49 -138.5 -60.5t-107.5 -74.5q-31 -25 -42 -34t-37.5 -36.5t-26.5 -64.5q0 -53 59 -82q33 -16 63.5 -20.5t130.5 -4.5h25 q33 0 122 7.5t171 25.5l31 6l77 21l66 16l43 12q74 20 172 66q29 12 59 28q14 8 23 13l76 45q16 8 24 8q23 0 43.5 -21.5t20.5 -46.5q0 -53 -90 -114l-88 -60l-15 -8q-16 -10 -43.5 -23.5t-68.5 -31.5l-62 -29l-14 -6l-6 -4l-74 -23l-82 -28l-78 -15l-8 -2l-68 -16 q-14 -4 -46.5 -10t-80.5 -6l-65 2q-43 0 -91 11t-91 30l-17 6l-39 20l-53 29l-43 41l-16 14l-29 25q-12 10 -24.5 27.5t-36.5 54.5q-43 74 -43 141z" />
<glyph unicode="F" horiz-adv-x="1191" d="M41 1384q0 33 23.5 42.5t60.5 17.5l61 8l21 2q154 16 269.5 24.5t242.5 8.5l72 2h26h49h52l100 -2l20 -2l47 -2q45 0 68 -14.5t45 -59.5q16 -33 16 -57q0 -29 -31.5 -36t-62.5 -7h-8l-88 -9l-25 -2l-73 -8h-13l-106 -8l-123 -12l-20 -4l-99 -17q-82 -12 -95 -20t-13 -64 v-63l-8 -115l-3 -37l-6 -82l72 -4l164 10l170 9h112.5t87 -12.5t42 -22.5t26.5 -27q10 -20 10 -37q0 -39 -34 -55q-18 -8 -39 -13t-60 -5l-100 -11l-19 -2l-81 -14l-17 -2l-98 -12q-23 0 -113 -19q-47 -8 -69.5 -10t-44.5 -2q-12 -10 -21 -23l-4 -133l-4 -65l-4 -64v-12 l4 -117l-4 -94q0 -14 2 -33.5t10 -60.5q-59 -35 -113 -35q-92 0 -123.5 6t-39.5 29l16 94l8 172v35l2 131v53l4 117q-59 16 -84.5 60t-25.5 81q0 55 51 62q31 6 57 -17l15 95q24 181 24 244q0 44 -6 59.5t-18 23.5l-41 15q-68 20 -90.5 57t-22.5 65z" />
<glyph unicode="G" horiz-adv-x="1409" d="M59 557q0 82 19.5 228.5t58.5 250t59.5 149.5t41.5 81q84 141 141 181t211 62q10 2 37 2q39 0 59.5 -2t87 -14t123.5 -31.5t107 -50.5q127 -80 162.5 -125t62.5 -151l22 -86l9 -90v-13v-78q0 -77 -64 -77h-2q-23 0 -59 12q-68 23 -83.5 42t-33.5 107l-21 90l-2 11l-14 88 l-4 18l-6 29q-35 94 -64 125q-35 37 -104 37h-31q-2 0 -73.5 -10.5t-123 -53.5t-110.5 -151q-41 -80 -88 -219q-14 -49 -26.5 -97.5t-20.5 -99.5l-8 -51l-9 -58q-2 -14 -4 -50t-2 -73v-30q12 -117 30.5 -159t88.5 -99q16 -14 41 -25.5t80 -28.5q37 -10 123 -10 q74 0 116.5 15.5t116.5 68.5q27 18 45 39q70 68 90.5 98.5t20.5 67.5h-41h-35h-18l-62 -2h-12h-80q-96 0 -132 17.5t-58 78.5l-11 45l105 13l96 12l33 4l41 4l82 6l127 8h16h82q72 0 100.5 -16t61.5 -80q10 -25 10 -49q0 -51 -41 -135l-23 -39l-6 -8l-43 -58l-45 -57l-8 -8 q-16 -16 -31.5 -29.5t-36.5 -26.5l-16 -12l-55 -37q-78 -51 -129 -70.5t-139 -19.5q-14 -2 -27 -2h-21h-47q-23 4 -30 4q-92 10 -153.5 33t-156.5 82q-55 37 -72.5 49t-39.5 31q-78 74 -102.5 112.5t-59.5 133.5q-10 31 -16.5 65.5t-6.5 81.5z" />
<glyph unicode="H" d="M-88 547q-2 9 -2 17q0 22 22 28l78 10l84 14l37 7l47 6l2 65l2 49l4 66l4 45v115q0 350 18.5 424.5t117.5 83.5q74 0 110.5 -7.5t36.5 -66.5q0 -33 -20 -131q-6 -31 -10.5 -78t-4.5 -90l-2 -29l-2 -143l-4 -92l-4 -92l4 -95h41l31 2l20 2l146 15l172 10q41 0 88 8t80 15 v81v84l2 45l4 72q0 383 21.5 442.5t146.5 59.5q74 0 106.5 -18.5t32.5 -59.5q0 -23 -8 -47l-6 -14l-13 -35q-2 -4 -6 -36t-8 -77l-10 -110v-17l-4 -92l-6 -113v-90q0 -23 1 -40t7 -48q18 6 43 2q53 -6 87 -27.5t44 -48.5q4 -12 4 -20q0 -45 -31 -49l-82 -12l-6 -2l-92 -17 l-2 -53l-2 -82v-143q8 -76 8 -80q2 -25 1 -64q0 -59 -17 -84.5t-58 -25.5q-31 0 -88 13t-72.5 48t-15.5 148v73.5t2 73.5v96q-6 43 -8 62l-111 -11l-43 -4l-280 -28l-21 -2q-8 -2 -36 -2h-25q-12 2 -18 2l-33 -9l-6 -51q-12 -92 -13 -166l2 -96q0 -84 -22.5 -110.5 t-97.5 -26.5q-72 0 -90.5 33.5t-18.5 148.5l2 111v26l2 84l4 50l-24 2l-64 6l-47 6q-66 12 -94.5 31.5t-36.5 52.5z" />
<glyph unicode="I" horiz-adv-x="643" d="M-4 76q0 29 29 41l63 25l84 30q14 29 17.5 44t3.5 52q0 16 -1.5 48t-1.5 77v27l7 397v10l-2 189q0 164 -2.5 186.5t-22.5 97.5q-25 0 -48.5 4.5t-48 17.5t-44.5 36q-27 29 -27 61q0 35 22.5 43t44 14.5t35.5 6.5l119 14h8l109 -2l201 -2q23 -4 36 -10t46 -29l26 -22 q18 -23 19 -46q0 -35 -27 -49t-48.5 -17t-68.5 -3q-8 -2 -14 -2q-14 -4 -45 -23q-12 -111 -17.5 -189.5t-5.5 -215.5l-2 -154v-49v-27l2 -174v-202v-72q14 -31 29.5 -40t85.5 -27q23 -6 40 -22t17 -40q0 -39 -39 -55q-16 -8 -34.5 -12.5t-53.5 -4.5l-79 -8h-129l-117 2 l-53 6q-57 10 -78 18.5t-28 25t-7 24.5z" />
<glyph unicode="J" horiz-adv-x="710" d="M-211 -90q0 27 23.5 52.5t70.5 41.5q23 4 33 6t21 2q31 0 92 -20l32 -12q8 -4 18 -4q23 0 52 24q31 27 62 80q25 41 37 94t12 166l2 47v16l-2 156v10l2 160l2 66l-2 231v25l4 104l-4 123l-23 6l-49 16l-22 9q-27 10 -46.5 18t-31.5 21q-18 18 -19 45q0 25 18.5 42 t62.5 28.5t149 27.5q23 2 52.5 3t86.5 1l104 2q100 0 118 -2t63 -25.5t45 -54.5q0 -14 -11 -24q-18 -18 -34 -27q-33 -18 -54.5 -24.5t-49.5 -10.5t-34 -4q-12 -4 -43 -25l-4 -55l-2 -41l-2 -47v-51l-2 -10l-6 -88l-4 -88q0 -309 -13.5 -475t-36 -257.5t-43 -138.5 t-46.5 -80q-66 -84 -129.5 -115.5t-176.5 -31.5l-94 -2q-76 0 -105.5 8t-51 28.5t-21.5 53.5z" />
<glyph unicode="K" horiz-adv-x="1265" d="M145 82q0 39 4.5 65.5t4.5 42.5v316v18l14 348q12 309 12 373q0 162 24.5 206t123.5 44q61 0 93 -13.5t40 -29.5l-10 -68l-9 -96l-2 -33l-4 -69v-19l-8 -80v-10l-2 -53v-16l-8 -74v-105q35 23 59 48l33 38q14 16 31 33q29 29 80 76l79 76l29 24l47 43l62 58l65 57l45 41 l15 12l100 84q51 45 80 45q18 0 41 -8q14 -2 35 -14q51 -29 51 -72q0 -18 -13 -31q-53 -47 -124 -102q-12 -6 -70 -61l-19 -19l-28 -29l-4 -4l-49 -43l-11 -8l-98 -100l-109 -109q-27 -23 -70.5 -60.5t-43.5 -64.5q0 -23 18 -61q33 -63 58 -111l18 -37l59 -102l21 -39 q104 -188 237 -188q45 0 97 22q29 10 46 19.5t29 17.5q6 4 27 1t39 -38q10 -20 10 -33q0 -27 -30.5 -57.5t-102.5 -77.5q-41 -25 -119 -37q-14 -2 -43 -2q-35 0 -74.5 12.5t-99 44t-123.5 97.5q-72 76 -159 205l-25 37l-14 24l-39 62l-53 77l-5 -86l-2 -71v-35l-2 -123v-94 t7 -64l12 -43q8 -16 -12.5 -32.5t-75 -24.5t-58.5 -8q-16 -2 -45 -2q-47 0 -64.5 19.5t-17.5 70.5z" />
<glyph unicode="L" horiz-adv-x="968" d="M115 57q0 57 47 170q2 4 2 58v55v41v70l2 57v55l2 29l4 84v37l4 188l6 98l4 35l7 62l4 96l4 111q2 12 -2 40.5t-9 63.5q-1 7 -1 14q0 35 26 49q31 18 131 17q18 2 29 2h18q8 -4 10 -4q57 -8 78 -21.5t21 -52.5q0 -31 -12.5 -85t-18.5 -86t-13 -74t-7 -111l-11 -150 l-4 -39q0 -109 -7 -237.5t-7 -143.5v-32v-41v-19l-4 -76l4 -90l182 -4l162 -2q131 0 175 -10t77 -47q18 -23 18 -49q0 -41 -37 -56q-14 -6 -43 -10l-61 -8q-59 -4 -85 -6t-46 -2l-66 -2l-59 -2h-8l-119 -13l-82 -6l-84 -4l-49 -4l-49 -2l-66 -2h-8q-59 0 -59 59z" />
<glyph unicode="M" horiz-adv-x="1595" d="M102 96v8l11 76l6 86v17l8 67v8l2 41l18 127l5 25l12 102q12 104 25.5 208t13.5 173l8 105q0 92 3 134t7 75l-2 84q8 20 35 35.5t62.5 22.5t55 7h29.5q86 0 113 -20.5t27 -77.5v-13l2 -49q0 -16 7 -62t30 -161l43 -227l8 -45l16 -64l15 -61l18 -82l31 -141q4 -27 16 -68 q5 -13 25 -72q14 27 25 57.5t24 77.5l10 41l8 31l29 84l4 12l22 72l3 10l26 76l2 6l17 51l8 25l14 37l12 33l29 75l37 113l12 33l27 76l41 120q37 63 98.5 72.5t87.5 9.5q86 0 96 -123q4 -53 5 -251q0 -53 3 -183.5t3 -134.5l4 -94l4 -64v-10v-61v-13l8 -88l2 -26l8 -76 l13 -82q10 -47 71 -47q33 0 68 20q45 29 63 33q20 4 39 -10t23 -39v-7q0 -26 -25 -54q-39 -43 -127 -97q-59 -36 -124 -36h-3q-35 0 -59.5 6t-56.5 26q-51 33 -74 76t-55 170q-8 29 -14.5 70t-12.5 75l-12 119l-2 119l-9 188l-49 -131l-8 -30l-33 -103l-43 -135l-12 -41 l-27 -94l-12 -35q-49 -147 -77.5 -176t-123.5 -29l-39 4l-49 4q-51 4 -74.5 20.5t-35.5 59.5l-15 45l-4 13l-14 43l-16 49l-23 92l-37 164l-18 78v8l-13 82q-2 23 -6 33q-6 16 -26 53l-11 -68l-6 -51l-16 -115l-8 -57l-6 -47l-3 -31l-8 -76l-12 -106q-8 -70 -14 -124t-6 -89 l-3 -62q4 -20 -26 -38q-23 -14 -54 -14q-10 0 -20 1q-47 6 -60.5 30t-13.5 97z" />
<glyph unicode="N" horiz-adv-x="1316" d="M162 25v12l2 43l2 22l-2 166v17l6 118v136l4 270l4 70l4 69l2 8l-2 123l6 131l2 23l9 106q0 59 20.5 86t61.5 31q102 12 143 12q43 0 56.5 -11t23.5 -50l6 -82q0 -18 20 -80l7 -18l30 -76l2 -6l23 -68l29 -73l14 -31l10 -25l12 -30l11 -23l14 -29l35 -69l33 -68l14 -29 l22 -43l29 -51l14 -26l39 -70q35 -63 58 -92l10 -15l16 -18l-12 119l-2 37l-2 49v26l6 209v164l4 94l2 13l2 82l4 86l4 67l3 15q0 145 88 145q27 0 60.5 -9t43.5 -30l-2 -113l-4 -110l-6 -150l2 -32l4 -52l-6 -84l-4 -55l-2 -55l-2 -66v-39v-10l-5 -53v-66l-2 -16l-2 -152 v-55v-119l2 -86l2 -82q-49 -33 -85.5 -37t-52 -4h-21.5q-59 0 -94 23.5t-76 91.5l-64 102l-10 19l-49 90l-6 12l-39 68l-41 82l-17 33l-24 53l-25 45l-47 98l-18 43l-27 60l-37 71q-10 -98 -14 -184t-4 -223v-146q0 -90 1 -164.5t3 -132.5l6 -45v-32q-12 -51 -74 -70 q-27 -8 -53 -8q-98 0 -98 123z" />
<glyph unicode="O" d="M59 711q0 150 45 293l19 55l10 26l33 80q33 80 49 110t51 71q53 61 115 98q119 69 224 69h3q61 0 109 -20l12 -4l41 -23l55 -18l80 -47l82 -41l82 -41q47 -25 70.5 -39t38.5 -27q84 -70 105.5 -95t59.5 -109l25 -58q6 -18 14.5 -58t13.5 -78t5 -61.5v-45.5q0 -66 -2 -100 t-15 -95q-29 -121 -44 -160t-70 -133l-33 -55l-4 -6q-14 -16 -54 -52t-71 -61q-43 -35 -105.5 -59.5t-147.5 -39t-140 -14.5q-68 0 -131.5 21.5t-159.5 75.5l-41 26l-21 13l-53 36q-39 27 -78 48q-10 6 -26 28q-25 33 -64 101.5t-59.5 146.5t-20.5 184zM322 551 q0 -37 2 -59.5t16 -75.5q35 -117 94 -180q111 -121 252 -121q96 0 192.5 63.5t176.5 194.5q27 43 47 94t37.5 127t17.5 147q0 63 -12 138q-33 176 -133 295q-92 111 -205 131q-43 8 -51 8q-16 2 -49 2q-121 0 -197 -82t-143 -289q-18 -59 -29.5 -122.5t-11.5 -155.5z" />
<glyph unicode="P" horiz-adv-x="1228" d="M-242 1300q0 55 107 95l86 26l55 15l19 4l98 18q76 16 108 29l62 24l76 -12l80 -6h32l74 -2l107 -8q74 -6 108 -15l29 -4l78 -16q182 -37 266 -150q55 -74 82.5 -145.5t27.5 -130.5q0 -125 -73.5 -217t-245.5 -170q-53 -23 -126 -44.5t-171.5 -36.5t-196.5 -15l-4 -27 l-4 -27l-2 -28l-2 -25l-6 -125l-2 -119v-8v-58.5t2 -49.5q0 -57 -27 -70q-12 -6 -71 -16q-29 -4 -41 -6t-23 -3q-51 0 -71.5 32t-20.5 116q0 68 12 182l2 21l4 75v29l2 62l2 10l5 78v10l2 80v8l8 113v10l6 115l2 45l6 81l2 48l2 20v8l2 66l11 94l-41 -6l-101 -17l-121 -20 l-120 -33q-14 -6 -31 3.5t-41 39.5q-10 12 -16.5 26.5t-6.5 26.5zM455 690q68 0 163 29l66 20l57 19l9 4q27 10 67.5 37.5t87.5 68.5q37 29 74 76q76 102 76 158q0 41 -39 84q-29 35 -93.5 56.5t-203.5 41.5q-37 4 -74 10h-39q-53 0 -108 -18q-16 -96 -17 -129l-6 -94 l-2 -35l-8 -94l-2 -35l-4 -49l-2 -41l-2 -54v-55z" />
<glyph unicode="Q" horiz-adv-x="1458" d="M57 612q0 88 20.5 194.5t65.5 240.5l43 104l7 10l30 56l31 49l29 41q47 63 80.5 97t70.5 54q98 53 170 53q35 0 85 -9t161 -56q33 -14 58.5 -24.5t58.5 -28.5l6 -4l100 -72q113 -82 146.5 -117t85.5 -127q27 -49 45 -113.5t26 -144.5q2 -25 3 -44t1 -34q0 -25 -2 -37 q0 -92 -6 -135t-20 -90l-4 -8l-21 -57l-20 -56l-7 -10q-16 -39 -40 -76l-19 -24l-24 -35l-31 -39l-12 -16l28 -7q14 -2 39 -2q51 0 93 24t100 89q18 18 34.5 22.5t22.5 4.5q39 0 57 -41q10 -25 11 -47q0 -66 -60 -121q-68 -63 -190 -88q-31 -6 -66 -6q-41 0 -119 12l-28 6 l-76 20q-8 2 -16 3q-20 -2 -97.5 -24t-132.5 -22q-33 0 -85 8.5t-99 28.5q-12 6 -98 54l-80 34l-72 45l-94 58q-39 18 -84 78q-10 12 -23 36q-27 51 -51 113q-31 82 -31 180zM319 569q0 -29 3 -41q0 -125 49 -198q43 -66 125 -90q25 -8 39 -9q51 37 118 56q29 6 48.5 10 t39.5 4q45 0 172 -35l93 -26l24 34q53 86 77.5 151.5t47.5 186.5q18 98 19 172q0 37 -4.5 72t-12.5 80l-10 51q-31 125 -82 188.5t-158 102.5q-84 31 -137 31q-63 0 -154 -45q-53 -25 -93 -73t-91 -153q-57 -119 -80 -227q-10 -51 -21.5 -120.5t-11.5 -121.5z" />
<glyph unicode="R" horiz-adv-x="1325" d="M-121 1319q0 16 2 29q0 6 10.5 42.5t49.5 63.5t112 27l72 6l27 2l104 8h113l63 -2l43 -2q33 0 71 -4t77 -10q135 -20 233 -58q123 -47 175 -78.5t99 -87.5q117 -135 117 -260q0 -102 -76.5 -194t-240.5 -176l-58 -27l23 -57l2 -6l27 -43l4 -9l20 -41l4 -6l25 -41l24 -39 l23 -32l27 -33q55 -68 99 -87.5t130 -19.5l33 4q17 2 31 -15q11 -13 11 -28q0 -4 -1 -8q-6 -31 -58.5 -60.5t-140.5 -39.5q-12 -2 -25 -2h-24q-166 0 -281 147l-39 56l-18 24l-12 19l-25 36l-20 31l-19 23l-2 6l-24 51l-4 10q-16 23 -34 47.5t-42 24.5q-14 0 -35 -4t-39 -6 l-14 -2l-70 -6q-6 -29 -13 -80.5t-7 -124.5v-27l2 -80l-2 -110q-2 -23 4 -54q4 -14 -19.5 -24t-81.5 -10q-86 0 -115.5 17t-29.5 67q0 23 2 34l4 25l6 43v170l2 168l4 86l4 88v10v55v9l9 98l2 109l2 26l-2 84l4 109q0 25 3 56.5t5 49.5l-35 2q-61 0 -94 -6t-88 -27l-29 -10 q-23 -10 -39 -2q-47 23 -47 76zM432 657q14 -2 39 -2q66 0 180 43l54 21l8 2l39 22q45 27 80.5 55.5t54.5 51.5l10 10l29 41q41 57 49 82q18 49 18 92q0 152 -200 193l-31 6l-31 4l-59 6l-25 2l-65 6q-16 0 -34 2t-24 2q-53 0 -53 -55l-4 -72l-2 -12l-6 -57l-4 -49l-9 -133 l-4 -95l-2 -32l-2 -60z" />
<glyph unicode="S" horiz-adv-x="1413" d="M27 293q2 16 2 24l10 48q18 51 72 51q6 0 22 -4q57 -23 57 -138q-2 -16 37 -41q55 -35 156 -55q55 -10 117 -10q94 0 265 30.5t211 44t128 64.5l39 31q8 8 8 22q0 20 -18 33l-101 29l-67 16l-35 6l-29 7l-63 12l-13 4l-77 18l-82 17q-45 6 -82 18l-25 6l-29 11l-30 10 l-23 8l-28 10l-68 29q-61 27 -86 43t-60.5 56t-70.5 114q-57 121 -58 194q0 47 19.5 95.5t62.5 109.5q29 43 53.5 68.5t67.5 58.5l21 15l51 38l61 50l72 32l61 27l48 21l16 6l49 16q78 18 135 18q111 0 195 -73l4 -4l55 -60l74 -71q6 -6 23 -27q27 -33 43 -55 q51 -66 77.5 -125.5t26.5 -102.5t-21 -69q-27 -39 -73 -39q-35 0 -60 24l-37 43l-45 66q-80 119 -84 127q-6 12 -22 86t-94 74q-43 0 -113 -29q-25 -8 -35 -14q-33 -14 -88 -47q-82 -49 -135 -95q-76 -61 -123 -123.5t-61.5 -108.5t-14.5 -75q0 -41 23.5 -61.5t85.5 -32.5 l18 -4l90 -17l13 -4l133 -28l16 -4l127 -25q137 -29 200.5 -50.5t119 -44t90.5 -40.5q123 -68 123 -189q0 -100 -92 -184q-68 -61 -123.5 -88t-190.5 -66l-71 -20h-9l-77 -8l-25 -2l-55 -8q-29 -4 -54 -5h-59q-33 6 -51 9l-51 6l-33 6l-35 6l-33 6l-30 6l-37 11l-45 12 q-70 23 -108 43t-62 45q-43 45 -64.5 87t-21.5 79z" />
<glyph unicode="T" horiz-adv-x="1277" d="M-106 1343q0 39 26 43l70 5q63 0 156.5 10t160.5 18l27 4l69 11h13l86 10l12 2l90 12l129 12l33 3l100 6l129 12l103 -6q88 0 117.5 -13.5t54.5 -62.5l2 -6l12 -49q10 -35 21 -51q1 -2 1 -4q0 -12 -22 -23q-6 -4 -49 -5t-98 -1l-152 -10l-96 -9l-58 -6q-25 -63 -30.5 -98 t-5.5 -203l-2 -29l-9 -108l-2 -10l-4 -101v-8l-8 -104l-10 -226l-2 -57v-57l-6 -97l-2 -88v-39q-14 -34 -71 -34h-3q-106 0 -123 12q-25 18 -25 121q0 39 2 143.5t2 138.5l3 58l4 65v17v82l6 118q0 14 4 127t4 242v18l8 97q-59 6 -90 6t-110.5 -2t-141.5 -2h-20l-95 2 q-102 0 -147 20.5t-59 67.5q-4 16 -4 26z" />
<glyph unicode="U" horiz-adv-x="1409" d="M147 600v90l3 53v43l4 45l4 80q0 78 6 119q14 66 22 121l17 94l16 90q14 78 32.5 108t64.5 40t75 10q51 0 74.5 -19.5t23.5 -54.5l-18 -57l-10 -53l-10 -43l-13 -56l-12 -100l-4 -37l-12 -76q-8 -53 -12.5 -156.5t-4.5 -187.5v-82v-24l8 -107l5 -14l14 -84l4 -14l20 -99 l25 -77q16 -45 72 -46q35 0 65 23q18 14 31.5 29.5t39 51.5t42.5 62q25 41 37 66l24 45l25 51l20 41l21 43l35 82l6 21l22 65q37 115 55.5 200t28.5 197l2 15l25 192q10 78 38.5 109t96.5 31q70 0 93.5 -11.5t23.5 -54.5q0 -27 -17 -92v-10l-18 -105l-14 -115l-4 -30l-5 -86 l-4 -86l-2 -33v-35v-72l2 -73v-41l9 -115l2 -20l12 -91q0 -14 2 -26q0 -4 10 -39t23.5 -56.5t36.5 -27.5l90 33q35 10 51 10q25 0 45 -13.5t20 -39.5q0 -14 -10 -31q-20 -31 -43 -47q-90 -72 -166 -72q-27 0 -71 10q-127 33 -181 181q-8 23 -13 44t-5 54q0 20 -25 59 l-16 -30l-14 -25l-6 -12l-23 -47l-12 -25l-17 -31l-16 -26l-16 -27l-31 -45q-66 -82 -131.5 -114.5t-165.5 -32.5q-35 0 -76 10q-119 31 -165 61.5t-83 106.5l-12 22l-20 90l-3 9l-10 41q-14 47 -23.5 112.5t-9.5 163.5z" />
<glyph unicode="V" horiz-adv-x="1107" d="M-29 1386q0 45 15.5 67t54.5 36t70 14q45 0 68 -40t42 -138l29 -125l16 -70l13 -59l6 -20l20 -80l12 -39l17 -64l43 -159l2 -7l24 -73l3 -6l34 -127l43 -136l47 -129l33 39l23 84l4 6l26 74l29 78l23 57l14 39l2 8l33 89l4 14l59 151q51 131 64 162q37 88 74 168l24 45 l29 55q2 2 19.5 35t23.5 51.5t51 18.5q72 0 72 -72q0 -14 -7 -33l-12 -30l-14 -39l-74 -199l-72 -201l-18 -51l-53 -147l-17 -47l-53 -152l-67 -203l-9 -20l-24 -68q-33 -92 -58.5 -116.5t-113.5 -38.5q-31 -6 -56 -6q-98 0 -167 112l-21 41l-39 96l-18 50l-19 45l-30 100 l-15 41l-18 55l-6 19l-23 84l-6 16l-18 53l-15 76l-26 96l-23 74l-8 23l-21 108l-14 80l-4 25l-16 106q-4 29 -7.5 52.5t-3.5 51.5z" />
<glyph unicode="W" horiz-adv-x="1705" d="M150 670v47l2 33l6 86l2 24v49l2 6l10 70v10l4 78l2 10l12 76l11 66l2 18q12 82 17 102.5t22 38.5q35 35 71 35q66 0 109 -17.5t49 -35.5l-29 -76q-18 -49 -26 -88q-14 -78 -15 -219l-8 -123q0 -72 -2 -151.5t-2 -98.5v-32l4 -95l8 -123l19 -124l10 -56l2 -8 q7 -26 27 -59q45 16 65 43l39 75l41 78q10 25 18.5 48.5t12.5 41.5l4 11l20 82l9 30l18 64l2 8l23 113l22 118v9l4 28l13 99l14 79q2 10 2 31v31v22q-4 20 21.5 37t72.5 17h39q23 -6 31 -9q53 -10 71.5 -26.5t18.5 -59.5l-10 -67l-9 -86v-17v-71v-11l-4 -77q-2 -12 -2 -45 q0 -43 13 -177l8 -90l2 -18l4 -27l8 -53l8 -70l23 -59l31 -84q35 25 55 53l6 9l16 26q35 61 48.5 93t44.5 124l32 99l6 24q10 35 20.5 81t29.5 140l8 37l2 19l10 73l2 15l14 75q6 27 9.5 54.5t3.5 62.5l2 39v62q0 98 -8.5 128.5t-53.5 88.5q-10 10 -10 26q0 55 78 56 q16 -2 25 -3q20 -4 37.5 -24.5t70.5 -106.5q12 -23 21.5 -65.5t9.5 -122.5v-57v-29q0 -14 -2 -31.5t-2 -27.5l-6 -76l-5 -51l-6 -52l-8 -77l-8 -72l-6 -53l-25 -125l-2 -13l-31 -106l-14 -59l-6 -21l-35 -74l-24 -71q-2 -10 -13 -29q-16 -33 -37 -66q-39 -66 -75.5 -92 t-94.5 -26q-55 0 -133 26q-106 33 -153 92.5t-76 198.5l-23 43l-12 -33l-14 -39l-17 -41l-12 -32l-14 -33q-68 -135 -105 -155.5t-190 -20.5q-39 0 -101.5 33.5t-92 86t-52.5 171.5l-10 55q-14 102 -15 189t-1 143z" />
<glyph unicode="X" horiz-adv-x="1169" d="M-29 23q0 29 52 131l18 30l8 11l37 49l2 6l39 63l57 80l6 8l52 70q41 53 53.5 74.5t26.5 64.5q-14 31 -26.5 59.5t-29.5 75.5l-18 54l-8 26l-9 23l-26 90l-70 207l-22 65l-9 33l-4 10l-22 90q-6 20 -11.5 38t-5.5 30t11 21q6 6 37 22l38 23l11 4l26 8q41 8 74 8 q51 0 67.5 -28.5t16.5 -108.5v-31l16 -53l11 -51l24 -86l17 -54l10 -28l6 -17l23 -65l16 -43l10 -35q2 -6 6 -16q6 -16 29 -54l47 52l41 61l76 109l35 43l47 63l30 39l54 63l32 46l50 61l73 98l9 11q41 59 88 59q10 0 30.5 -3t32.5 -5l53 -15q20 -6 21 -28q0 -23 -25 -58 l-53 -63l-18 -25l-31 -41l-60 -59l-53 -80l-12 -20l-64 -86l-79 -107l-80 -106l-4 -5l-72 -104l-25 -33l-53 -73q0 -49 21 -95l4 -6l47 -65l43 -78l12 -23q57 -88 100 -113.5t123 -25.5q33 4 51 14q39 18 56.5 37t26 45.5t30.5 26.5q31 0 57.5 -22.5t26.5 -49.5 q0 -29 -29.5 -62.5t-99.5 -80.5q-27 -20 -59.5 -29.5t-100.5 -9.5h-47q-31 0 -47 4q-119 16 -193.5 66.5t-170.5 187.5l-33 51l-35 -45l-27 -37l-12 -18l-47 -68l-64 -86l-63 -90l-37 -59l-24 -35q-25 -35 -50 -35q-29 0 -58.5 40t-29.5 63z" />
<glyph unicode="Y" horiz-adv-x="1388" d="M147 637v55l3 68l4 71l2 54q0 59 1 75.5t19 159.5l8 64l9 51l2 12l16 88q18 98 46 126t114 28q41 0 84 -6t43 -39q0 -12 -19 -58q-10 -23 -19 -58.5t-16 -84.5l-6 -43l-6 -41l-8 -33l-8 -45l-15 -139l-8 -125l-2 -12v-29l-2 -108v-103v-35l2 -47q0 -76 6 -107.5t13 -56.5 l2 -6l24 -67q20 -57 43 -80t62 -23q20 0 35.5 3.5t29.5 11.5q33 20 68 69l59 84q27 35 39 56.5t16 33.5l15 35l4 8l35 84l39 97l10 32l20 64l21 61l8 33q10 39 22.5 97.5t20.5 115.5l4 33l12 84l19 112l8 84q0 66 74 66q25 0 39 -2q11 -1 22 -1q22 0 45 5q20 4 34.5 -19.5 t14.5 -46.5q0 -33 -10 -77l-6 -41q-6 -43 -8 -72t-2 -98v-8l-6 -68l-4 -72v-14l-9 -86l-2 -100l-26 -457l-4 -72l-7 -155l-2 -97q0 -80 -1 -147.5t-1 -124.5v-51q4 -31 4 -43q2 -14 3 -27v-22q0 -53 -23 -72t-86 -19q-39 0 -84 23l-37 27v57v47l-2 25l-2 71v31v63l4 99v37 l2 88l6 127l4 63l7 68v104l-5 -6l-14 -31q-82 -158 -166 -230.5t-186 -72.5t-236 76q-96 55 -138 129t-60 227q-6 33 -8.5 78t-2.5 117z" />
<glyph unicode="Z" horiz-adv-x="1177" d="M-78 141q0 47 19.5 95.5t66.5 107.5l35 45l25 27l36 41l76 84l62 63l55 60l29 30l86 94l116 119l88 88l31 29l76 84l76 82l24 22l29 25l-88 -4l-66 -4l-82 -6l-61 -4l-143 -2h-101q-33 0 -49 4q-92 16 -129 38.5t-53 65.5q-8 18 -8 47q0 8 4 25l76 4l57 2h16l142 10l67 8 l74 9l135 18l49 8l88 12l68 9l67 10l27 2q82 0 106.5 -11.5t61.5 -64.5q25 -35 38 -65.5t13 -55.5q0 -84 -354 -413l-172 -185l-170 -186q-90 -98 -127 -144.5t-80 -111.5q29 0 84 2t80 2l153 12l152 13h16l138 2q53 0 104 -1t78 -22q61 -43 61 -96q0 -35 -28 -60 q-43 6 -70 7q-18 0 -75.5 -7.5t-123.5 -15.5l-151 -20l-31 -5l-362 -55q-144 -22 -186 -22h-3q-25 0 -35 2q-76 14 -106.5 47t-30.5 106z" />
<glyph unicode="_" horiz-adv-x="1150" d="M-14 0v74h1179v-74h-1179z" />
<glyph unicode="`" horiz-adv-x="444" d="M-35 1180q0 57 53 80q16 8 39 8q17 0 33 -6l221 -88q35 -12 51 -50q6 -18 7 -34q0 -59 -54 -82q-16 -6 -34 -7q-16 0 -35 7l-221 88q-35 12 -52 47q-8 16 -8 37z" />
<glyph unicode="a" horiz-adv-x="948" d="M59 303v33l2 31l5 53l6 74l22 73l21 74l6 21l35 67l28 49l6 8l31 33q78 84 162 84q47 0 121 -18q111 -27 153.5 -49.5t77.5 -71.5l17 -27l24 6q78 0 90 -34l-22 -60q-4 -18 -9.5 -55t-13.5 -105l-4 -28v-12l-2 -80v-35l-4 -86q0 -51 18.5 -77t42.5 -17q14 4 25 10 q29 14 66 41l22 20l59 56q18 18 39 -11q12 -16 13 -39q0 -37 -41 -100q-61 -94 -166 -94q-31 0 -47.5 2t-50.5 14q-90 29 -134 115l-30 -29l-4 -4l-33 -47l-15 -18q-49 -53 -94 -68.5t-133 -15.5q-147 0 -218 78.5t-71 238.5zM299 258q0 -57 3 -77.5t13 -49.5t41 -29 q25 0 50 19l20 22l31 39l18 27l33 45l12 18l33 64q18 47 27 100l4 31l8 59l4 25l8 55l4 29l8 41v6q0 26 -30 52q-27 21 -60 22q-10 0 -20 -2q-47 -8 -84 -51.5t-68 -131.5l-8 -20l-14 -41l-15 -45l-4 -14q-4 -16 -6 -31q-8 -51 -8 -119v-25v-18z" />
<glyph unicode="b" horiz-adv-x="931" d="M119 190v89v22l6 225l2 54l4 106l2 16l2 74v10l4 78l2 8l2 76v10l4 80l3 29v33l2 8l6 53l2 6l2 84l8 88l6 113q0 117 22.5 151.5t92.5 34.5h22q78 0 90 -59l-12 -51l-10 -207l-21 -309l-6 -178l23 20q109 88 160 88q25 0 85 -18.5t113 -78t101 -177.5q18 -43 26 -126 t8 -145q0 -213 -81.5 -318.5t-225.5 -105.5q-33 0 -49 2q-102 12 -192 88l-23 21l-31 -10q-35 -6 -59 -6q-90 0 -90 122zM336 307q0 -68 11 -92.5t59 -46.5q76 -35 114 -35q47 0 71 39t40 129q4 23 6 81t2 99l-2 29l-12 123q-2 29 -8.5 59.5t-15.5 60t-40 29.5 q-18 0 -37 -12q-37 -20 -73 -80l-54 -115l-26 -83l-19 -93z" />
<glyph unicode="c" horiz-adv-x="825" d="M61 442l7 56l4 28l12 76q14 86 25.5 119t37.5 67q66 80 100 106t81 26h24q18 -4 29 -5l57 -8q33 -8 71 -25.5t69 -43.5q76 -61 98 -127t33.5 -105t11.5 -121q0 -135 -103 -135q-37 0 -88 23q-27 12 -41 34.5t-18 63.5l-10 78v10q-6 66 -6 100q0 18 3 42t5 38 q-16 10 -33 11q-43 0 -68 -68l-24 -70l-6 -16q-20 -70 -26.5 -112t-6.5 -105v-27q0 -141 23.5 -193.5t89.5 -52.5q43 0 108 19l60 14l55 23l35 16l100 47l6 2q74 49 94 68q10 6 21 6q27 0 37 -27q4 -12 4 -20q0 -25 -29 -61.5t-92 -88.5q-25 -18 -35 -24q-14 -8 -43 -25 q-147 -78 -241 -78q-57 0 -125 21q-113 31 -163 63.5t-93 102.5q-29 43 -39.5 108.5t-10.5 169.5z" />
<glyph unicode="d" horiz-adv-x="950" d="M59 289v24l4 54l3 30q0 88 16 146q23 66 39 114l22 58q53 113 105.5 159t128.5 46q29 0 59 -7q101 -18 158 -110l6 41v119l2 43l2 79v31l4 90l2 39v80l2 98l-2 23q0 90 24.5 103.5t176.5 13.5q72 0 72 -54q0 -25 -20.5 -63.5t-29 -76.5t-8.5 -122l-6 -139l-4 -80l-2 -59 v-344l-2 -68v-104l8 -107q0 -51 4 -68.5t14.5 -33t28 -21.5t29.5 4l61 47l5 5l69 53l39 26q20 12 38.5 -10t18.5 -39q0 -27 -43 -82l-53 -65l-31 -31q-63 -53 -135 -53q-35 0 -68.5 12t-74.5 39l-41 35l-8 10l-10 10q-39 -61 -84 -106q-98 -98 -187 -98q-23 0 -55.5 6 t-68.5 15t-64 26q-51 27 -78 48t-37 40l-12 55l-13 55q-4 37 -4 64zM285 340l2 -117q0 -43 7 -68.5t20.5 -40t33.5 -14.5q14 0 31 13q25 18 43 43l51 63l6 6l2 6l27 56l35 73q27 63 32 103q18 102 19 151q0 76 -41 99q-57 35 -86 35q-27 0 -52.5 -30t-62.5 -100 q-10 -18 -14 -28q-14 -35 -25.5 -76t-19.5 -87t-8 -87z" />
<glyph unicode="e" horiz-adv-x="813" d="M59 373v24q0 72 9.5 158t22.5 138t40 102l21 36q37 55 66.5 78t72.5 23q29 0 76 -10q14 -4 65 -17l55 -20q106 -51 152.5 -85t69 -83t22.5 -96q0 -76 -57 -142q-16 -20 -27 -30q-10 -8 -20 -17q-63 -47 -86 -57t-97 -29l-71 -16l-8 -2q-18 -2 -35.5 -3t-46.5 -1l-7 -45 q0 -90 24 -124t91 -34q29 0 70 6l22 4l13 4l43 19l43 16l8 4l6 4l45 25q41 25 66.5 43t40.5 33l28 30l43 47q10 10 29 11q31 0 47 -33q6 -16 6 -29q0 -39 -72 -125q-45 -55 -86 -83.5t-139 -76.5q-39 -18 -73.5 -26t-57 -12.5t-49.5 -4.5q-41 0 -83 15.5t-120 56.5 q-139 76 -153 221l-5 29l-2 35zM293 451q29 0 52.5 6t51.5 18q43 23 75 53.5t46 65.5q18 55 19 88q0 18 -2 29q-8 33 -36 51q-19 12 -41 12q-10 0 -20 -2q-47 -14 -80 -70q-39 -66 -59 -192z" />
<glyph unicode="f" horiz-adv-x="573" d="M-68 737q0 41 37 55q29 10 54 10q7 0 14 -1q57 0 77.5 6t26.5 31l6 98l7 98l10 99l4 55q6 57 12 95t10 60q23 98 42.5 150.5t43.5 87.5q88 137 207 137q84 0 187 -71q31 -20 51 -45q41 -51 55 -82l21 -62q16 -49 16 -65q0 -23 -35 -45q-23 -16 -55 -17q-43 0 -49 21 l-27 86q-6 18 -20.5 36.5t-32.5 36.5q-45 -6 -69.5 -32.5t-61.5 -110.5l-17 -37q-35 -98 -42 -150.5t-7 -160.5l-6 -84l-2 -45v-53l72 -9h71h6q21 0 52 -26l22 -21q8 -10 15.5 -28.5t7.5 -28.5q0 -33 -31 -45t-57.5 -16.5t-104.5 -4.5q-10 0 -24.5 -2t-44.5 -10l-4 -29 l-7 -63l-8 -90v-19l2 -84l-4 -100v-102l8 -97l2 -10q2 -12 -5 -29.5t-19 -21.5q-14 -6 -53 -6q-20 0 -45 1t-52 1h-18q-57 0 -57 100q0 35 4 56v14l4 33l8 147v25v121q0 18 3 69t3 76l-37 -2q-61 0 -94 11t-49 34q-23 29 -23 55z" />
<glyph unicode="g" horiz-adv-x="976" d="M59 319v42.5t11.5 94t18.5 112.5t20 69q55 160 98 203t168 61q25 4 37 4q72 0 153 -57l17 -10l32 -23l41 -24q-4 33 24 54q24 18 58 18q6 0 13 -1l36 -8q57 -18 64.5 -44t7.5 -165l-10 -168q0 -57 -2 -95t-4 -73v-14l2 -49l2 -15l-2 -51v-55l-2 -68l2 -112v-107 q0 -35 -2 -51q0 -203 -54.5 -282.5t-177.5 -79.5q-14 0 -32.5 2t-28.5 2l-49 6q-55 10 -80 19t-107 50l-12 7l-74 38q-37 18 -55 33t-22 27q-12 39 20 53q12 6 31 6q18 0 59 -12l84 -41q18 -10 53 -23.5t45 -15.5q53 -12 78 -12q33 0 47.5 20.5t26.5 79.5l4 25l2 24l10 115 q12 123 17.5 185.5t5.5 88.5v27l-2 47q-12 -31 -35 -61q-45 -63 -102.5 -94t-124.5 -31q-59 0 -127 28q-98 45 -140.5 113t-42.5 188zM301 283.5q0 -27.5 2 -50.5l2 -6l8 -49l13 -33q8 -16 28 -16t43 21l33 36l43 54l6 6l49 82l43 84l23 34q20 35 20 78q0 68 -18 99 q-55 100 -111 100q-25 0 -60.5 -22.5t-62.5 -88.5l-16 -41l-14 -39q-20 -59 -25.5 -89.5t-5.5 -98.5v-60.5z" />
<glyph unicode="h" horiz-adv-x="1028" d="M119 227l2 105v53l2 74l4 82l2 75l6 109v16l4 166l17 367q0 88 2 122t4 62l-8 68q-4 29 -4 39q0 55 73 55q102 0 136 -13.5t34 -62.5q0 -12 -5 -39.5t-8 -48t-6 -45.5t-3 -57l-4 -84l-2 -33l-7 -203v-80l-2 -10l-6 -82l-4 -92v-55v-39q35 27 76 86q10 16 49 31l57 14 q39 8 68 8q41 0 93 -25.5t77 -50t45 -73t28.5 -103.5t8.5 -149l-2 -54q0 -129 18.5 -154.5t42.5 -25.5q39 0 99 80l14 21q38 67 85 67h1q16 0 24 -4q32 -17 32 -46q0 -9 -3 -19l-18 -35l-35 -47l-6 -7l-25 -28q-49 -55 -81.5 -75.5t-75.5 -20.5q-41 0 -121 28 q-82 33 -116 90.5t-46 190.5l-2 35v22q0 35 -1 70t-1 69v21q-2 27 -21.5 40t-42.5 7t-42 -24.5t-40 -57.5l-53 -104q-23 -47 -45 -132t-29 -143q-14 -113 -28 -145q-20 -41 -70 -41q-31 0 -74 9t-55 45t-12 181z" />
<glyph unicode="i" horiz-adv-x="499" d="M119 322v59l2 16l6 74v14l2 62l10 78q8 66 26.5 91t55.5 31.5t62 6.5q41 0 62.5 -10.5t27.5 -24.5l-13 -74l-6 -76l-2 -43l-10 -104l-4 -146l6 -114q0 -29 19.5 -43.5t39.5 -5.5l84 39l7 4l92 39l55 18q8 2 14 0q14 -6 21 -23q3 -8 3 -17q0 -13 -6 -27q-11 -24 -55 -62 l-65 -61q-70 -45 -176 -46q-113 0 -182.5 61.5t-69.5 166.5l-2 10l2 45zM135 1044q0 17 2 23q4 25 22.5 48.5t55.5 47.5q78 53 121 54q66 0 94 -121l14 -66q0 -43 -42 -85t-105 -42q-117 0 -152 88q-10 31 -10 53z" />
<glyph unicode="j" horiz-adv-x="471" d="M-209 -350q0 14 2 22q10 35 43 27q29 -4 56.5 -17.5t76.5 -41.5q16 -12 74 -13q57 0 68.5 32t11.5 171l2 139v19v121v32l2 107v18l-2 123v8l2 123l2 35l-2 100l6 131q0 20 -1 41t-7 45q-4 14 24.5 26.5t100.5 12.5q61 0 98 -28.5t37 -69.5l-25 -72q-16 -51 -25 -113.5 t-9 -135.5q0 -96 18 -236q6 -29 6 -82l-6 -125l-2 -129v-229l-2 -35q-14 -104 -70.5 -144t-183.5 -40q-55 0 -105.5 18t-105.5 55l-14 11l-31 24q-31 24 -37 47q-2 6 -2 23zM98 1163q-2 10 -2 20q0 34 20 77q25 55 93 90q29 16 61 16q82 0 112 -29.5t30 -128.5 q0 -37 -15.5 -69.5t-54.5 -62t-84 -29.5q-35 0 -65 18q-45 25 -67 48t-28 50z" />
<glyph unicode="k" horiz-adv-x="958" d="M119 39v35v24l12 283l4 88l12 360l3 21v35l2 8l-5 117l3 120l2 27l4 96v64t2 57q0 109 6 131q14 55 151 56q115 0 115 -60q0 -23 -2 -31t-29 -65q-4 -12 -8 -32.5t-4 -47.5v-33l-6 -57l-2 -21l-6 -38l-11 -306l-10 -147q37 37 64 88l10 25q10 23 54 41t100 18 q29 0 69 -10q72 -20 115 -66q94 -94 94 -209q0 -154 -168 -266l-49 -27l6 -43q18 -63 42 -88.5t65 -25.5q39 0 106 24q18 8 41 22.5t51 41.5l37 31q18 14 35.5 24t30.5 12q29 4 37 -22q2 -6 2 -13q0 -28 -39 -69l-35 -39l-6 -6q-82 -84 -144.5 -111.5t-156.5 -27.5 q-96 0 -158.5 41t-118.5 133l-20 41l-74 -4q-2 -18 -4 -49t-2 -50l6 -94v-5q0 -28 -37 -50q-23 -12 -51 -13q-47 0 -102 35q-19 9 -33 27zM385 449q33 -41 88 -41q68 0 111 61q35 51 49 145q4 29 4 43q1 35 -11 66q-8 22 -24 22q-6 0 -14 -4q-27 -10 -39 -26l-47 -49 l-10 -15l-35 -55l-37 -59l-6 -11q-16 -35 -29 -77z" />
<glyph unicode="l" horiz-adv-x="489" d="M119 520q0 4 5 81t5 173l8 131l10 127l9 58l8 67l6 103q0 16 2 37.5t9 57.5t9 48t3 31q0 27 -17 73q-1 5 -1 10q0 25 32 45q39 26 108 25q82 0 109 -11t27 -46q0 -20 -11 -66q-16 -49 -24 -125l-6 -51l-11 -76l-10 -96l-2 -31l-2 -34l-6 -90v-9l-14 -118 q-2 -14 -8.5 -98.5t-6.5 -151.5l-2 -68l-2 -59q0 -111 8 -194t14 -111.5t31 -55.5q18 0 39 4t39 11l84 49l53 26l41 17q23 10 37 -17q6 -16 6 -28q0 -45 -71 -109l-35 -29q-78 -53 -158 -53q-74 0 -160 49q-72 41 -98 73t-37 91l-4 92l-10 84v82l-2 8z" />
<glyph unicode="m" horiz-adv-x="1384" d="M119 156l2 77l24 361l5 61l2 7l2 18l8 49l4 76q0 61 16.5 79.5t59.5 26t55 7.5q65 0 65 -76v-37q-6 -29 -8 -45l-12 -119l53 72l41 63q10 8 30.5 13.5t49.5 5.5h35q2 0 60.5 -10.5t87 -35t51.5 -94.5l6 -20l16 33q66 121 116 165t128 44q70 0 108.5 -17.5t76.5 -67 t47 -74t9 -95.5l3 -86v-25v-18l-7 -88v-19v-98q0 -92 13.5 -126t54.5 -34q31 0 72 14l6 2l82 35l28 10q12 4 23 -4q10 -8 14 -26q1 -8 1 -16q1 -37 -31 -62q-38 -31 -183 -82q-35 -12 -71 -12q-35 0 -76 12l-19 6q-61 27 -87.5 70t-41.5 139q-2 27 -3 47.5t-1 36.5v33l4 53 v21l-2 26v86l-4 84l-2 27l-2 59q-16 12 -27 12q-16 0 -38.5 -29.5t-59.5 -95.5q-12 -23 -33 -81q-29 -82 -30 -88l-9 -27v-8l-18 -92l-20 -99q-6 -27 -8.5 -46t-2.5 -60q0 -16 -26 -35q-12 -6 -37 -6q-6 0 -61.5 6t-76 20.5t-20.5 59.5l2 39l2 28v178.5t2 188.5l-2 70 q-35 4 -53 -10.5t-55 -82.5l-56 -96q-6 -12 -14 -45q-16 -57 -25 -98l-30 -141q-12 -94 -25 -128t-45 -34q-27 0 -85 20.5t-58 147.5z" />
<glyph unicode="n" horiz-adv-x="987" d="M119 129v14l6 50v88v8l10 170l4 143l2 21l6 114q0 98 24 131t83 33q63 0 89 -15.5t26 -49.5q0 -16 -7 -41l-10 -60q-2 -12 -2 -24v-25v-53l41 65q90 139 164 140q41 0 133 -33q14 -6 28.5 -12.5t35.5 -20.5q70 -49 96 -98t26 -131v-35q-4 -27 -4 -41l-4 -21 q-12 -72 -12 -143q0 -61 19.5 -89t52.5 -24q16 4 31.5 8.5t35.5 16.5l15 6l36 21l35 16q8 2 15 2q32 0 41 -39q2 -8 2 -15q0 -30 -27 -60q-33 -36 -127 -80q-37 -18 -82 -19q-121 0 -178 39t-80 137l-6 51l4 127l4 68l2 43v35q0 57 -4 74.5t-29 44.5q-47 0 -71.5 -24 t-57.5 -99l-43 -97l-32 -100l-11 -41l-18 -63q-12 -47 -17.5 -68.5t-5.5 -38.5q-20 -145 -84 -145q-31 0 -102 33q-33 16 -43 36.5t-10 69.5z" />
<glyph unicode="o" horiz-adv-x="917" d="M59 432q0 68 13 127l16 53l16 52l2 12l41 72l37 59l54 45l32 27l4 4q25 20 52.5 24t44.5 4q82 0 188 -88l27 -24l22 -21l60 -39q27 -14 60.5 -73.5t43.5 -126.5l6 -43h9q51 0 81 63l4 8l19 51l2 7l22 49l27 61q8 16 31 25q10 3 18 3q37 0 45 -50q2 -8 2 -27 q0 -27 -18 -84l-31 -80q-49 -104 -99 -150t-122 -55l-8 -32q-18 -80 -26.5 -105.5t-24.5 -56.5q-47 -80 -112 -111.5t-171 -31.5q-47 0 -96 16q-92 27 -142.5 79t-95.5 161l-22 53l-9 86zM281 377q0 -154 42 -215.5t97 -61.5q47 0 88 52q14 14 51 102l12 37q10 33 15 45 q12 37 12 55q0 29 -37 84l-35 55q-8 12 -17 33t-11 27l-2 6l-4 22l-9 93q-18 10 -43 10q-33 0 -60.5 -34t-60.5 -116q-14 -33 -24 -86q-6 -33 -10 -57.5t-4 -50.5z" />
<glyph unicode="p" horiz-adv-x="954" d="M119 111l4 59l2 23l-4 47l6 90l6 73l2 15v8l-4 82l2 12l4 84l6 80l2 35l2 18l3 94l2 9l10 104q8 80 27.5 111.5t68.5 31.5h31q2 0 41 -8t50 -33.5t11 -107.5l-4 -90l-14 -88q31 18 50 34.5t48 45.5l25 24q4 4 18 10q31 12 80 13q18 0 34.5 -1t30.5 -3q74 -10 125 -52 q109 -82 109 -329l-19 -109q-16 -66 -30.5 -98.5t-36.5 -65.5q-49 -68 -94 -92t-140 -35q-12 -2 -38 -2q-61 0 -134 25l-43 16l-12 -71v-76v-33l-4 -141l2 -166v-51v-115l-37 -16q-61 -20 -106 -21q-59 0 -76 43l2 76l-6 68v69l-2 133v271zM377 344q6 -51 47 -82 q53 -35 92 -35q82 0 127 154q14 45 14 125v61v23l-6 86q0 14 -7 38.5t-30 24.5q-16 0 -39 -16q-39 -31 -61 -64.5t-84 -160.5q-33 -70 -53 -154z" />
<glyph unicode="q" horiz-adv-x="935" d="M59 362l2 13l7 43q27 168 61.5 256t95.5 153q31 33 55.5 50.5t51.5 27.5q45 16 74 17q49 0 190 -86q16 -12 33.5 -31.5t29.5 -46.5l15 2q86 0 114.5 -15.5t28.5 -74.5q0 -29 -6 -76l-8 -113l-2 -22l-2 -88v-17l-11 -143v-10l-4 -215l-12 -228l-6 -96v-16l-2 -8l2 -37v-15 l2 -45q0 -55 4 -65q4 -12 31 -25l-25 -18q-53 -29 -82 -29q-41 0 -102 59q-16 16 -25.5 44t-9.5 73l-6 178v27v100q0 61 6 99l10 73l4 35l7 66l-70 -86l-29 -41q-45 -51 -116 -51q-61 0 -150 34q-51 20 -75.5 47t-51.5 91q-8 20 -13 46.5t-9 75.5zM268 248q0 -61 7.5 -91 t23.5 -43.5t27 -13.5q16 1 30 15l45 55l39 55l15 21l32 55l5 10l18 51l27 68l16 59l6 19l21 65v7l-17 63q-14 63 -25.5 80.5t-39.5 17.5q-8 0 -41 -6t-62.5 -43t-75.5 -139q-23 -45 -35 -99.5t-12 -136.5z" />
<glyph unicode="r" horiz-adv-x="573" d="M119 92v76v18l2 62v74v28v107v32l4 101v28l4 107q0 104 18.5 149.5t51.5 45.5h55h29q37 0 45 -11q8 -10 8 -51v-39v-8v-41v-76l14 17q53 59 72.5 74.5t44.5 15.5q10 2 31 2q43 0 68.5 -11.5t39.5 -33.5q29 -47 29 -80q0 -45 -47 -70q-18 -10 -43 -10q-35 0 -60 25 l-45 -74q-53 -96 -77.5 -187.5t-24.5 -236.5q0 -10 -2 -21q-2 -12 -7 -30.5t-5 -36.5l2 -40q0 -20 -56 -20q-23 0 -63.5 4.5t-64 28t-23.5 82.5z" />
<glyph unicode="s" horiz-adv-x="815" d="M45 195q4 25 36 48t42 23q8 0 102 -63l101 -35q25 -8 57.5 -13t54.5 -5q45 6 45 43q0 12 -4 18q-10 25 -73 72l-19 12l-12 6l-33 16l-74 54l-82 51q-14 8 -20 14q-14 16 -43 66q-37 59 -37 123q0 94 82 184q51 57 109.5 77.5t183.5 20.5h43q33 -8 55 -12l14 -2l74 -14 q82 -14 92.5 -50t10.5 -67q0 -47 -31 -60q-16 -4 -21 -4q-14 0 -30 4q-39 12 -63.5 18.5t-45.5 6.5q-23 0 -55.5 -5t-46.5 -7q-12 -2 -31 -10q-74 -27 -74 -101q0 -29 18.5 -57.5t39 -45t75.5 -50.5l68 -41l10 -7l72 -53q68 -51 84 -69.5t26.5 -57.5t10.5 -53q0 -43 -28 -79 t-93 -75q-41 -24 -115 -24h-6q-39 0 -96.5 6t-65.5 8q-29 10 -41 12l-51 19l-104 47q-70 32 -94 56q-19 19 -18 43q0 6 1 12z" />
<glyph unicode="t" horiz-adv-x="651" d="M-59 895q0 25 17 33t58 14t50 6l106 15q10 39 12 72.5t2 101.5q0 108 91 108h2l73 -4q53 -6 68 -14q8 -4 17 -20.5t1 -26.5l-20 -27q-4 -6 -6 -32.5t-2 -51.5v-82q43 -14 127 -14q25 0 46 -13.5t44 -48.5q14 -16 14 -37q0 -29 -20.5 -33.5t-35 -7t-30.5 -4.5l-78 -10 l-88 -18l-4 -60l-4 -55l-2 -43l-4 -72l-2 -73v-39v-21l2 -94l2 -12l6 -103q0 -92 59 -92q39 0 105 33l78 39l96 33q23 -35 22 -58q0 -45 -108 -108l-92 -53l-6 -3q-68 -34 -118 -34h-3q-25 0 -41 2q-106 14 -164 92q-39 49 -51 123v10l-4 59l-2 11l-9 55q-2 8 -2 27 q0 20 3.5 82.5t3.5 93.5l6 102v10v23l2 65v19v43l-31 4q-59 10 -74.5 14t-44.5 15q-47 20 -59 36q-8 16 -8 23z" />
<glyph unicode="u" horiz-adv-x="972" d="M121 350v201l2 24l14 109l6 86q0 76 15.5 102.5t70.5 26.5q12 0 31 -2t29 -2q74 -8 84 -43l-15 -86l-8 -90l-6 -53l-2 -33l-4 -125v-88v-37l2 -35l2 -59q0 -47 5.5 -68.5t23.5 -62.5q37 33 63 69l12 19l13 18l45 92l4 9l33 86l20 51l19 47q10 20 16 42.5t14 72.5 q18 115 44 144.5t112 29.5q76 0 86 -35t10 -53q0 -16 -12 -58q-2 -4 -23 -71l-6 -129l-2 -119v-11l12 -79l17 -54q16 -36 47 -36h2q18 0 37 12l47 39l25 22q39 29 54 37t32 8q33 4 43 -32q1 -5 1 -10q0 -16 -10 -33q-12 -23 -49 -54l-55 -45l-6 -8q-90 -72 -170 -72 q-31 0 -73 14.5t-67.5 43t-66.5 110.5l-18 35l-17 -43q-51 -113 -86 -149.5t-90 -36.5q-14 2 -22 2l-48 4l-34 4q-115 14 -156 78q-47 72 -47 274z" />
<glyph unicode="v" horiz-adv-x="688" d="M-29 788q0 49 45 74l9 4l57 21q25 10 49.5 14t40.5 4q45 0 45 -18l-4 -111q0 -16 4 -31.5t27 -80.5l18 -58l8 -28l6 -27l33 -66l21 -77q8 -27 20.5 -60.5t32.5 -60.5q14 25 21.5 42t19.5 52l4 12l12 41l4 12l19 46l16 38l10 25l29 94l6 19l25 71l33 80q10 27 49 27 q33 0 59.5 -24.5t26.5 -86.5q0 -35 -12 -78l-27 -86l-6 -20l-10 -33l-27 -76l-47 -129l-8 -14l-45 -113q-51 -119 -84 -160.5t-82 -41.5q-31 0 -76 12t-68.5 36.5t-48.5 92.5l-18 49l-8 21l-46 122l-8 25l-8 25l-12 49l-6 12l-33 88l-27 96l-10 39l-16 60q-12 49 -13 77z " />
<glyph unicode="w" horiz-adv-x="1169" d="M31 844q-3 6 -3 12q0 10 11 20q16 14 53 19.5t57.5 5.5h30.5q49 0 77 -10t38 -29l-16 -84q-4 -25 -5 -41q0 -29 25 -174l27 -151l34 -152q20 20 28.5 39.5t17.5 69.5l2 16l6 25l28 108l7 19l30 86q37 100 49.5 112.5t89.5 26.5q37 6 58 6q35 0 47 -16.5t22 -61.5l29 -135 l12 -57l21 -78l43 -166l31 90l4 14l8 45l53 150l33 92l29 105q2 18 9 38.5t17 39t25 18.5q20 0 53 -27q43 -41 43 -78q0 -10 -4 -43l-12 -63v-10l-39 -138l-39 -135l-43 -133l-29 -76q-31 -82 -64.5 -115.5t-82.5 -33.5q-23 0 -60 10q-53 16 -70.5 33.5t-41.5 83.5l-2 8 l-27 78l-4 16l-27 72l-30 92l-48 -133l-36 -123q-23 -86 -43.5 -115.5t-61.5 -29.5h-63h-23q-20 0 -37.5 1t-42 15t-37 45t-24.5 82l-25 100l-2 7l-20 110l-8 41l-11 74l-6 31l-16 79l-10 95l-13 96z" />
<glyph unicode="x" horiz-adv-x="925" d="M29 801q0 39 47 61q86 39 127 39q49 0 71 -84l9 -22q35 -96 52 -127t54 -62l31 41l24 35l25 33l51 61l10 12l66 78q39 45 63.5 63.5t47.5 18.5q8 0 37.5 -3t49 -16.5t29.5 -27.5q18 -29 4 -43l-92 -96q-12 -10 -28 -31q-25 -31 -66 -84l-53 -69l-33 -48l-41 -45l-39 -49 q14 -57 57 -121l33 -39q75 -83 138 -83h2q51 0 124 49l31 22q49 41 70.5 51.5t42.5 3.5q28 -10 28 -34q0 -10 -6 -21q-12 -25 -30.5 -45t-75.5 -67q-135 -115 -256 -115q-35 0 -59.5 6t-61.5 23q-74 35 -110.5 69.5t-53.5 85.5l-8 33l-61 -111l-54 -80q-14 -18 -24.5 -37.5 t-17.5 -39t-33 -19.5q-35 0 -77 36t-42 75q0 16 10 37l4 6l35 49l35 51l12 19l12 16l39 53l15 21l32 47l-28 78l-4 6l-39 67l-37 74l-23 53l-12 27l-16 27q-37 55 -37 92z" />
<glyph unicode="y" horiz-adv-x="976" d="M119 541q0 106 7 152t26.5 108.5t76.5 62.5q45 0 107 -43q20 -14 28.5 -35.5t8.5 -31.5t-19 -72v-70l-4 -63l-2 -23l-2 -43v-37v-49l2 -24l2 -60q0 -41 6 -65.5t27 -24.5q10 0 16 4q31 18 64 88l35 72l10 25q14 27 24.5 55.5t14.5 42.5l10 41l37 117q10 37 16 63.5 t11 56.5q12 98 24 130t53 32q27 0 79 -14t57 -16q24 -10 24 -37v-21q-4 -16 -4 -24l-10 -80l-6 -41l-9 -123l-4 -78v-41l-2 -41l-2 -65v-19l-4 -90l-4 -108l-12 -89l4 -81v-82v-19l-10 -63l-4 -111q0 -20 -11.5 -44.5t-36 -54.5t-70.5 -50.5t-120 -28.5l-37 -2q-39 0 -79 9 t-83 30q-115 55 -158.5 92t-70.5 96q31 12 63 13q41 0 121 -35l41 -21l53 -30l31 -19q41 -24 73 -24h3q53 0 61 69l13 74l2 14l12 123v12l8 136l6 67l9 123l-27 -39q-25 -29 -53 -59q-43 -43 -72 -62q-53 -33 -117 -33q-72 0 -127 37t-71 101q-6 16 -11 51l-12 82 q-8 76 -10 118t-2 89z" />
<glyph unicode="z" horiz-adv-x="802" d="M59 121q0 27 27 90q12 29 16 35q8 16 29 47l21 35l10 14l47 59l4 7l41 63l4 8l43 58l18 28l5 4l47 62l47 69l-64 2l-82 -8l-24 -2q-88 0 -126 12.5t-50 45.5q-4 8 -4 26q0 35 18 48.5t39.5 19.5t89.5 18l86 15l12 2l21 2l82 8l24 4l52 8l79 2h50q45 0 59 -14 q65 -54 65 -93q0 -26 -22.5 -61t-65.5 -86q-20 -20 -79 -106l-43 -62l-33 -49l-39 -59l-33 -54l-33 -53l-32 -59l96 10l117 14q47 6 75 7q43 0 60.5 -13.5t27.5 -52.5q4 -20 4 -29q0 -47 -36 -55l-117 -12q-43 0 -131 -21l-131 -30l-11 -2l-63 -15q-47 -10 -68 -10 q-31 0 -49 12q-23 20 -35 31q-45 39 -45 80z" />
<glyph unicode="&#xa1;" horiz-adv-x="563" d="M88 92l53 68q4 8 8.5 23.5t8.5 60.5l8 100l2 25l16 243v33l2 33v12l7 68v10l2 70v22l4 60q2 12 2 38q0 33 -4 63t-5.5 45t-1.5 21q0 35 24 46.5t91 11.5q31 0 66 -10q74 -25 73 -66q0 -25 -16 -84l-2 -65l-2 -33l2 -29l-2 -8l-10 -129q0 -45 -7.5 -138.5t-7.5 -136.5 l-2 -47l-2 -84v-22l-8 -113l-4 -78l-4 -57l-4 -29q-10 -33 -35 -41l-82 11l-86 6q-35 0 -68 39q-22 26 -16 61zM166 1395q0 47 46 87t120 40q45 0 79.5 -19.5t53.5 -66.5q12 -29 12 -54q0 -59 -76.5 -115.5t-126.5 -56.5q-63 0 -92 119z" />
<glyph unicode="&#xa2;" horiz-adv-x="798" d="M59 625v24l2 35l9 84q6 63 8 68q2 12 22 57q35 80 80 113.5t152 54.5l24 4l-6 72q0 70 18.5 99.5t71.5 29.5q63 0 64 -37q2 -10 2 -27q0 -8 -4 -32.5t-4 -41.5q0 -55 32 -100q88 -12 138 -80q72 -102 71 -174q0 -70 -65 -117q-41 -27 -68 -26q-49 0 -74 76l-14 84 q-2 25 -35 71q-8 8 -10 12q-10 12 -26.5 22.5t-36.5 10.5q-51 0 -80 -51q-18 -35 -27.5 -76t-9.5 -118q0 -76 2 -132.5t11 -94.5t16.5 -55.5t21.5 -39.5q29 -41 78 -41q45 0 76 37q23 25 34 63l9 31q4 16 25.5 22.5t49.5 6.5h23q18 -4 58 -7t40 -42q0 -25 -28 -78 q-8 -18 -21.5 -35.5t-50.5 -56.5t-67.5 -62.5t-69.5 -40.5q25 -43 24 -96q0 -63 -27.5 -106.5t-57 -49.5t-48.5 -6q-61 0 -61 49q0 45 11 85t11 69q0 45 -22 84q-57 6 -111.5 41t-88.5 92t-58 168q-8 35 -10.5 69.5t-2.5 88.5z" />
<glyph unicode="&#xa3;" horiz-adv-x="1099" d="M29 754q0 33 55 96q25 27 63 27q31 -1 56 -19l2 43l4 70l2 28l2 35l8 62l2 96l6 111v30q-6 39 -10 74q-6 45 22.5 62.5t131.5 17.5q20 2 30 2q8 0 47 -6t59.5 -19.5t20.5 -52.5q0 -27 -12 -83t-18 -87q-16 -68 -23.5 -135.5t-7.5 -163.5l-4 -76q39 0 116.5 2t143.5 2 l51 4q94 0 133 -8t65.5 -35.5t26.5 -46.5q0 -20 -75 -51q-25 -10 -55.5 -12t-145.5 -2h-121l-72 2l-69 2l-4 -27l-2 -20l-8 -191v-28v-45v-19l-3 -76l3 -90l184 -4l162 -2q131 0 175 -10t77 -47q18 -23 18 -49q0 -41 -37 -56q-14 -6 -43 -10l-61 -8q-59 -4 -85 -6t-46 -2 l-66 -2l-59 -2h-9l-120 -13l-82 -6l-82 -4l-49 -4l-50 -2l-65 -2h-8q-61 0 -62 61q0 49 47 168q2 2 2 38t3 75v43v68v51l2 61l2 68l4 45v22l2 29h-53l-66 -8h-10q-14 -4 -29.5 4t-15.5 31z" />
<glyph unicode="&#xa5;" horiz-adv-x="1675" d="M8 494q0 18 17.5 34.5t76.5 16.5h33h45q39 0 84 6v84l-28 -2l-31 -2l-37 -2l-27 -2q-78 0 -96 7t-18 42q0 49 82 49l24 -2h31l37 -2h28h37l-4 24v15q0 37 3 95t11.5 141t14.5 135.5t14 103.5l2 14l17 86q18 98 45.5 126t111.5 28q43 0 86 -6t43 -39q0 -12 -18 -58 q-14 -27 -20.5 -54t-14.5 -89l-6 -43l-8 -41l-6 -33l-11 -45l-12 -139l-10 -119v-18v-90l74 -2h34l133 -2l132 -13q12 -2 45 -2h41q37 6 59 9l14 51l17 59q27 104 43 213l4 33l10 84l20 112q4 25 5.5 41.5t1.5 42.5q0 66 75 66q25 0 39 -2q29 -4 66 4q16 4 33.5 -15.5 t17.5 -50.5q0 -33 -10 -77l-6 -41q-6 -43 -8.5 -72t-2.5 -98v-8l-8 -68l-2 -72v-14l-8 -86l-2 -94l92 4l33 2l43 2h37q63 0 83.5 -8t24.5 -31q6 -55 -116 -55h-11l-75 6l-74 2l-21 -2l-20 -2l-6 -62l57 2h49h72h43l35 2l59 -4q35 -10 35 -47q0 -18 -12 -35q-18 -27 -47 -32 l-66 14q-33 6 -90 9t-84 3l-55 -2l-13 -229l-6 -129l-4 -98l-4 -105v-241.5t4 -116.5q0 -92 -16.5 -116t-89.5 -24q-39 0 -84 23l-39 27v57v47v25l-2 71v31v63l2 99l2 37l2 88l4 127l6 63l4 68v104l-2 -6l-16 -31q-154 -303 -353 -303q-100 0 -233 76q-94 53 -137 126 t-60 208l-2 51q-47 0 -85 -7t-62 -11l-27 -4q-10 -4 -49 4l-22 10q-16 10 -17 31zM504 553h65l29 2h84h74h10l63 2h33h47h58q8 16 18 41t14 47l-47 -2h-12h-121h-18l-107 -6l-82 6h-18l-90 -6v-84zM506 465q0 -8 3 -29.5t5 -38.5l6 -57l2 -8l4 -15q35 -111 55.5 -140.5 t67.5 -29.5h25l18 3q16 2 38 19t52 58l47 66l21 26q20 29 34.5 51.5t16.5 32.5l14 41l5 13l10 24l-121 -2l-96 2h-15h-90h-37.5t-31.5 2q-33 0 -33 -18z" />
<glyph unicode="&#xa7;" horiz-adv-x="1198" d="M74 545q0 90 88 225q20 31 44.5 53.5t110.5 85.5l29 31l-16 14l-6 9l-23 20l-53 49q-72 66 -72 150q0 66 47 134t142 130q51 35 112 53q102 35 174 35q59 0 146 -29q135 -47 204 -116q63 -63 64 -132q0 -18 -6 -36q-23 -70 -80 -70q-47 0 -70.5 31.5t-85.5 169.5 q-8 20 -38.5 33.5t-84.5 13.5q-70 0 -151 -25q-168 -49 -168 -178q0 -25 6 -49q16 -59 47 -87t119 -61l25 -8l120 -43l66 -22q84 -33 145.5 -66t100.5 -61q80 -59 97 -98t17 -148q0 -59 -33.5 -115.5t-119.5 -140.5q-16 -16 -41 -34.5t-49 -33.5q47 -29 75.5 -78t28.5 -120 q0 -57 -26.5 -120t-104.5 -161q-41 -55 -106.5 -89t-133 -42t-108.5 -8q-96 0 -163 29.5t-105 85.5q-96 145 -97 227q0 49 33 82t64 33q35 0 57 -43l12 -29l17 -55q47 -176 196 -177q39 0 97.5 14.5t101.5 59.5q102 104 102 178q0 72 -116 138q-31 16 -95.5 39.5 t-126.5 42.5l-84 26q-172 61 -248.5 127t-76.5 156zM266 616q0 -88 135 -149q86 -39 117 -52.5t49 -17.5l54 -16l96 -29l28 -10l54 -16l53 45q57 49 75.5 74.5t20.5 52t4 45t2 24.5q0 61 -29.5 91t-121.5 71l-133 59l-8 3q-27 10 -59 19t-79 17l-53 11l-37 6 q-12 -8 -31.5 -25.5t-54.5 -52.5q-82 -80 -82 -150z" />
<glyph unicode="&#xa8;" horiz-adv-x="473" d="M-74 1139q10 41 64 78q66 43 100 43q49 0 76 -97l12 -55q0 -35 -34.5 -69.5t-86.5 -34.5q-94 0 -125 71q-12 35 -6 64zM293 1139q6 41 65.5 81t96.5 40q53 0 75 -97l15 -55q0 -35 -35 -69.5t-86 -34.5q-94 0 -125 71q-12 35 -6 64z" />
<glyph unicode="&#xaa;" horiz-adv-x="798" d="M61 627q4 8 26 13t91 15l29 4l47 5l59 4l66 4h43l41 2l90 -4q68 -6 97.5 -18.5t43.5 -37.5q35 -74 35 -94q0 -31 -74 -37l-104 -6l-31 -2l-80 2l-10 -2l-100 -4h-51q-61 0 -95 10.5t-59 32.5l-39 53q-18 23 -23.5 38.5t-1.5 21.5zM61 1010v20v19l5 30l2 45l14 43l12 45 l4 13l21 41l16 28l4 6l19 19q51 51 98 51q29 0 84 -14.5t79.5 -26.5t47.5 -43l10 -16l15 4q45 0 53 -21l-13 -36q-4 -8 -7 -35t-7 -60l-2 -18l-2 -55v-21l-2 -51q0 -33 10 -47.5t27 -9.5q8 4 21.5 11t31.5 19l14 13l35 32q10 10 25 -6q6 -10 6 -20q0 -14 -4 -25 q-6 -16 -21 -37q-37 -57 -98 -57q-31 0 -59 10q-53 16 -80 68l-19 -17l-22 -30l-8 -11q-29 -33 -55.5 -42t-82.5 -9q-172 14 -172 191zM205 983q0 -39 2 -51q0 -5 8 -25q6 -18 25 -18q12 0 28 12l13 12l18 25l12 14l19 29l8 10l18 39q10 23 17 60l2 18l6 35l2 16l4 33l4 16 l4 25q4 20 -17.5 35.5t-47.5 11.5q-57 -10 -92 -109l-5 -12l-8 -24l-10 -29l-2 -8l-8 -90v-15v-10z" />
<glyph unicode="&#xab;" horiz-adv-x="937" d="M45 440q0 16 33 50t51 73l4 6l25 54q12 29 63 98l19 24l18 23q10 10 43 76q4 6 10 12q12 10 35 24.5t43 14.5q33 0 57 -39l17 -27l8 -16q10 -25 10 -33q0 -12 -24 -41q-4 -18 -4 -41l-64 -71l-10 -11l-55 -73l-52 -72l-18 -22l55 -74l15 -15l26 -26l43 -62q25 -33 49 -65 q8 -12 11 -21l4 -12l6 -24q2 -6 2 -9q2 -4 14 -20t-12 -53q-43 -74 -66 -74q-10 0 -44.5 11t-39.5 15q-6 6 -47 78q-14 27 -36.5 57.5t-47.5 65.5l-49 70l-14 20l-27 37q-51 76 -51 92zM455 440q0 16 32.5 50t51.5 73l4 6l24 54q12 29 64 98l18 24l19 23q10 10 43 76 q4 6 10 12q12 10 34.5 24.5t43.5 14.5q33 0 57 -39l16 -27l9 -16q10 -25 10 -33q0 -12 -25 -41q-4 -18 -4 -41l-63 -71l-11 -11l-55 -73l-51 -72l-18 -22l55 -74l14 -15l27 -26l43 -62q25 -33 49 -65q8 -12 10 -21l4 -12l6 -24q2 -6 2 -9q2 -4 15 -20q12 -16 -12 -53 q-43 -74 -66 -74q-10 0 -45 11t-39 15q-6 6 -47 78q-14 27 -36.5 57.5t-47.5 65.5l-49 70l-15 20l-26 37q-51 76 -51 92z" />
<glyph unicode="&#xad;" horiz-adv-x="755" d="M45 555q4 8 25.5 13t91.5 16l28 4l48 4l59 4l65 4h44l40 2l91 -4q68 -6 97.5 -18.5t43.5 -36.5q35 -74 35 -94q0 -31 -74 -37l-104 -6l-31 -3l-80 3l-10 -3l-101 -4h-51q-61 0 -95 10.5t-58 32.5l-39 54q-18 23 -23.5 38t-1.5 21z" />
<glyph unicode="&#xaf;" horiz-adv-x="464" d="M-27 1098q0 35 24.5 61.5t59.5 26.5l351 -2q37 0 61.5 -24.5t24.5 -63.5q0 -35 -27 -59.5t-61 -24.5h-349q-35 0 -59.5 24.5t-24.5 61.5z" />
<glyph unicode="&#xb4;" horiz-adv-x="385" d="M102 1090q0 20 9 36q16 36 51 48l221 88q18 6 35 6q18 0 35 -6q53 -23 53 -84q0 -16 -6 -33q-16 -37 -51 -49l-222 -86q-14 -8 -34 -9q-20 0 -37 9q-53 23 -54 80z" />
<glyph unicode="&#xb5;" horiz-adv-x="972" d="M119 111l8 163l-6 76v201l2 24l14 109l6 86q0 76 15.5 102.5t70.5 26.5q12 0 31 -2t29 -2q74 -8 84 -43l-15 -86l-8 -90l-6 -53l-2 -33l-4 -125v-88v-37l2 -35l2 -59q0 -47 5 -68.5t24 -62.5q37 33 63 69l12 19l13 18l45 92l4 9l33 86l20 51l19 47q10 20 16 42.5t14 72.5 q18 115 44 144.5t112 29.5q76 0 86 -35t10 -53q0 -16 -12 -58q-2 -4 -23 -71l-6 -129l-2 -119v-11l12 -79l17 -54q16 -37 49 -36q18 0 37 12l47 39l25 22q39 29 54 37t32 8q33 4 43 -32q4 -20 -8.5 -43t-49.5 -54l-55 -45l-6 -8q-90 -72 -170 -72q-31 0 -73 14.5t-67.5 43 t-66.5 110.5l-18 35l-17 -43q-51 -113 -86 -149.5t-90 -36.5q-14 2 -22 2l-48 4l-12 2v-35l-4 -141l2 -166v-51v-115l-37 -16q-61 -20 -106 -21q-59 0 -76 43l2 76l-6 68v69l-2 133v271z" />
<glyph unicode="&#xb7;" horiz-adv-x="485" d="M86 471q0 17 2 23q4 18 12 32q18 31 66 64q76 51 121 51q63 0 92 -119l16 -65q0 -47 -42 -87t-105 -40q-117 0 -152 86q-10 35 -10 55z" />
<glyph unicode="&#xba;" horiz-adv-x="798" d="M61 627q4 8 26 13t91 15l29 4l47 5l59 4l66 4h43l41 2l90 -4q68 -6 97.5 -18.5t43.5 -37.5q35 -74 35 -94q0 -31 -74 -37l-104 -6l-31 -2l-80 2l-10 -2l-100 -4h-51q-61 0 -95 10.5t-59 32.5l-39 53q-18 23 -23.5 38.5t-1.5 21.5zM61 1092q0 20 2 38q0 8 7 37l10 33 l10 31l25 49l22 37l33 26l18 17q18 16 45 18q31 4 61 -7t68 -44l17 -16l12 -13l37 -22q14 -8 34.5 -45t26.5 -76l5 -25q33 -6 53 37l4 7l10 30l14 33l17 37q12 12 18 14q33 8 39 -28q2 -10 0 -23q-2 -14 -10 -43l-18 -49q-31 -63 -60 -90t-74 -33l-4 -18q-10 -45 -12 -52 q-6 -18 -18 -47q-29 -45 -69 -65.5t-101 -20.5q-27 0 -58 10q-96 29 -143 144l-14 33l-5 51zM195 1059q0 -92 24.5 -129t59.5 -37q29 0 53 31q8 8 30 61l7 23q16 45 16 59q0 16 -23 51l-20 33l-16 35l-4 18l-5 56q-12 6 -24 6q-39 0 -74 -90l-16 -52z" />
<glyph unicode="&#xbb;" horiz-adv-x="937" d="M43 111q0 12 25 41q6 18 6 43l61 69l10 12l56 72l51 72l18 22l-55 74l-14 16l-27 27l-43 59q-41 55 -49 67.5t-10 19.5l-4 12l-7 24l-16 31q-10 14 12 51q14 25 29.5 50.5t36.5 25.5q10 0 45 -12.5t39 -16.5q6 -6 49 -77l82 -123l49 -70l14 -20l27 -37q14 -23 32.5 -49.5 t18.5 -40.5t-31.5 -50t-52.5 -73l-4 -8l-24 -54q-14 -31 -62 -96l-20 -27l-19 -22q-2 -2 -10 -14q-14 -23 -33 -60q-2 -6 -10 -12q-12 -12 -34.5 -26.5t-43.5 -14.5q-31 0 -57 41l-15 24l-10 17q-10 25 -10 33zM453 111q0 12 24 41q6 18 6 43l62 69l10 12l55 72l52 72l18 22 l-55 74l-15 16l-26 27l-43 59q-41 55 -49.5 67.5t-10.5 19.5l-4 12l-6 24l-16 31q-10 14 12 51q14 25 29.5 50.5t35.5 25.5q10 0 45 -12.5t39 -16.5q6 -6 50 -77l82 -123l49 -70l14 -20l27 -37q14 -23 32.5 -49.5t18.5 -40.5t-32 -50t-52 -73l-4 -8l-25 -54q-14 -31 -61 -96 l-21 -27l-18 -22q-2 -2 -10 -14q-14 -23 -33 -60q-2 -6 -10 -12q-12 -12 -35 -26.5t-43 -14.5q-31 0 -58 41l-14 24l-10 17q-10 25 -10 33z" />
<glyph unicode="&#xbf;" horiz-adv-x="1095" d="M20 322q0 47 27 120q8 27 23.5 51.5t58.5 81.5l61 80l19 23l14 16l156 185l18 22l64 80q-23 23 -23 47q0 25 21 41l65 37q72 25 99 24q14 0 30 -6q94 -33 95 -84q0 -39 -43 -94l-27 -39l-27 -33l-45 -59l-20 -29l-43 -55l-23 -29l-4 -6l-31 -43l-36 -47l-37 -49 q-43 -53 -62 -88q-80 -127 -80 -174q0 -55 26 -86t66 -27q20 0 42 7.5t49 19.5l116 57l9 6l51 33q113 78 155 125q63 74 80 111l35 77q0 8 23 9q20 0 82 -13q20 -2 45 -20q66 -53 65 -94q0 -29 -33 -72l-55 -72l-8 -10l-33 -39l-37 -43q-20 -25 -47 -51q-35 -35 -108 -90 l-21 -17l-61 -45q-41 -31 -68 -41l-6 -2l-70 -22q-78 -23 -114 -23q-51 0 -166 47q-57 25 -96 51.5t-68 63.5q-55 63 -79 105.5t-24 81.5zM449 1401q0 47 40 84q49 43 123 43q45 0 81 -21.5t55 -66.5q10 -31 10 -51q0 -66 -77 -120.5t-126 -54.5q-63 0 -92 119z" />
<glyph unicode="&#xc0;" horiz-adv-x="1351" d="M57 518q0 145 35 281l8 32l15 54l10 28l16 56l11 30l8 33l43 90l20 45l8 21l41 65l50 68q80 102 149.5 145t155.5 43h30q20 -4 31 -4q59 -8 89 -21.5t83 -56.5l37 -28l8 -8l23 -19l22 -22q25 27 51.5 38t71.5 11h41q51 -4 70.5 -14.5t19.5 -38.5q0 -18 -10 -64l-14 -106 l-13 -105v-27l-2 -79l-10 -113q0 -45 -5 -127t-5 -109v-67v-49l4 -209q0 -66 7 -86.5t40 -20.5q25 0 94 17l33 10l78 31q20 8 33 -15q6 -12 6 -24q0 -35 -68 -92l-43 -31q-84 -49 -145 -49q-49 0 -105 30q-74 39 -95 65t-36 87l-18 80l-4 26l-35 -65q-92 -162 -166 -225.5 t-176 -63.5q-74 0 -213 41q-27 8 -45.5 15.5t-40.5 21.5l-10 8l-43 35l-35 31l-6 6q-25 27 -43.5 68.5t-37 118.5t-18.5 208zM313 469l6 -96l5 -47l6 -50q20 -154 110 -153q45 0 117 37q16 10 25 16q10 8 41 35l30 29l15 14q27 29 54.5 63.5t41.5 57.5q55 80 76 135l2 10 l22 66l23 73l8 43l8 41l15 74l10 139q0 131 -11.5 187.5t-46.5 97.5q-66 72 -129 72q-98 0 -235 -191q-74 -104 -123 -254l-33 -116l-14 -119l-12 -70l-2 -12zM408 1817q0 57 53 79q16 8 39 9q16 -1 32 -7l222 -88q35 -12 51 -49q6 -18 6 -35q0 -59 -53 -81q-16 -6 -35 -7 q-16 0 -35 7l-221 88q-33 12 -51 47q-8 16 -8 37z" />
<glyph unicode="&#xc1;" horiz-adv-x="1351" d="M57 518q0 145 35 281l8 32l15 54l10 28l16 56l11 30l8 33l43 90l20 45l8 21l41 65l50 68q80 102 149.5 145t155.5 43h30q20 -4 31 -4q59 -8 89 -21.5t83 -56.5l37 -28l8 -8l23 -19l22 -22q25 27 51.5 38t71.5 11h41q51 -4 70.5 -14.5t19.5 -38.5q0 -18 -10 -64l-14 -106 l-13 -105v-27l-2 -79l-10 -113q0 -45 -5 -127t-5 -109v-67v-49l4 -209q0 -66 7 -86.5t40 -20.5q25 0 94 17l33 10l78 31q20 8 33 -15q6 -12 6 -24q0 -35 -68 -92l-43 -31q-84 -49 -145 -49q-49 0 -105 30q-74 39 -95 65t-36 87l-18 80l-4 26l-35 -65q-92 -162 -166 -225.5 t-176 -63.5q-74 0 -213 41q-27 8 -45.5 15.5t-40.5 21.5l-10 8l-43 35l-35 31l-6 6q-25 27 -43.5 68.5t-37 118.5t-18.5 208zM313 469l6 -96l5 -47l6 -50q20 -154 110 -153q45 0 117 37q16 10 25 16q10 8 41 35l30 29l15 14q27 29 54.5 63.5t41.5 57.5q55 80 76 135l2 10 l22 66l23 73l8 43l8 41l15 74l10 139q0 131 -11.5 187.5t-46.5 97.5q-66 72 -129 72q-98 0 -235 -191q-74 -104 -123 -254l-33 -116l-14 -119l-12 -70l-2 -12zM705 1726q0 20 8 37q16 35 51 47l221 88q18 6 35 7q18 0 35 -7q53 -23 53 -83q0 -16 -6 -33q-16 -37 -51 -49 l-222 -86q-14 -8 -34 -9q-20 0 -37 9q-53 23 -53 79z" />
<glyph unicode="&#xc2;" horiz-adv-x="1351" d="M57 518q0 145 35 281l8 32l15 54l10 28l16 56l11 30l8 33l43 90l20 45l8 21l41 65l50 68q80 102 149.5 145t155.5 43h30q20 -4 31 -4q59 -8 89 -21.5t83 -56.5l37 -28l8 -8l23 -19l22 -22q25 27 51.5 38t71.5 11h41q51 -4 70.5 -14.5t19.5 -38.5q0 -18 -10 -64l-14 -106 l-13 -105v-27l-2 -79l-10 -113q0 -45 -5 -127t-5 -109v-67v-49l4 -209q0 -66 7 -86.5t40 -20.5q25 0 94 17l33 10l78 31q20 8 33 -15q6 -12 6 -24q0 -35 -68 -92l-43 -31q-84 -49 -145 -49q-49 0 -105 30q-74 39 -95 65t-36 87l-18 80l-4 26l-35 -65q-92 -162 -166 -225.5 t-176 -63.5q-74 0 -213 41q-27 8 -45.5 15.5t-40.5 21.5l-10 8l-43 35l-35 31l-6 6q-25 27 -43.5 68.5t-37 118.5t-18.5 208zM313 469l6 -96l5 -47l6 -50q20 -154 110 -153q45 0 117 37q16 10 25 16q10 8 41 35l30 29l15 14q27 29 54.5 63.5t41.5 57.5q55 80 76 135l2 10 l22 66l23 73l8 43l8 41l15 74l10 139q0 131 -11.5 187.5t-46.5 97.5q-66 72 -129 72q-98 0 -235 -191q-74 -104 -123 -254l-33 -116l-14 -119l-12 -70l-2 -12zM496 1731q0 16 6 34q14 33 49 47l162 66q35 12 47 12t47 -12l160 -63q55 -23 55 -84q0 -18 -8 -35 q-23 -55 -84 -56q-16 0 -33 7l-139 55l-140 -55q-16 -6 -32 -7q-18 0 -35 7q-55 23 -55 84z" />
<glyph unicode="&#xc3;" horiz-adv-x="1351" d="M57 518q0 145 35 281l8 32l15 54l10 28l16 56l11 30l8 33l43 90l20 45l8 21l41 65l50 68q80 102 149.5 145t155.5 43h30q20 -4 31 -4q59 -8 89 -21.5t83 -56.5l37 -28l8 -8l23 -19l22 -22q25 27 51.5 38t71.5 11h41q51 -4 70.5 -14.5t19.5 -38.5q0 -18 -10 -64l-14 -106 l-13 -105v-27l-2 -79l-10 -113q0 -45 -5 -127t-5 -109v-67v-49l4 -209q0 -66 7 -86.5t40 -20.5q25 0 94 17l33 10l78 31q20 8 33 -15q6 -12 6 -24q0 -35 -68 -92l-43 -31q-84 -49 -145 -49q-49 0 -105 30q-74 39 -95 65t-36 87l-18 80l-4 26l-35 -65q-92 -162 -166 -225.5 t-176 -63.5q-74 0 -213 41q-27 8 -45.5 15.5t-40.5 21.5l-10 8l-43 35l-35 31l-6 6q-25 27 -43.5 68.5t-37 118.5t-18.5 208zM313 469l6 -96l5 -47l6 -50q20 -154 110 -153q45 0 117 37q16 10 25 16q10 8 41 35l30 29l15 14q27 29 54.5 63.5t41.5 57.5q55 80 76 135l2 10 l22 66l23 73l8 43l8 41l15 74l10 139q0 131 -11.5 187.5t-46.5 97.5q-66 72 -129 72q-98 0 -235 -191q-74 -104 -123 -254l-33 -116l-14 -119l-12 -70l-2 -12zM492 1726q0 31 51 64t96 33q63 -27 115.5 -48.5t81.5 -21.5q35 0 67 37q16 18 43 18q23 0 31 -12t8 -35 q0 -70 -53 -100q-39 -23 -96 -23q-41 0 -104.5 26t-84.5 26q-49 0 -69 -27q-10 -12 -25 -12q-23 0 -37 12q-25 20 -24 63z" />
<glyph unicode="&#xc4;" horiz-adv-x="1351" d="M57 518q0 145 35 281l8 32l15 54l10 28l16 56l11 30l8 33l43 90l20 45l8 21l41 65l50 68q80 102 149.5 145t155.5 43h30q20 -4 31 -4q59 -8 89 -21.5t83 -56.5l37 -28l8 -8l23 -19l22 -22q25 27 51.5 38t71.5 11h41q51 -4 70.5 -14.5t19.5 -38.5q0 -18 -10 -64l-14 -106 l-13 -105v-27l-2 -79l-10 -113q0 -45 -5 -127t-5 -109v-67v-49l4 -209q0 -66 7 -86.5t40 -20.5q25 0 94 17l33 10l78 31q20 8 33 -15q6 -12 6 -24q0 -35 -68 -92l-43 -31q-84 -49 -145 -49q-49 0 -105 30q-74 39 -95 65t-36 87l-18 80l-4 26l-35 -65q-92 -162 -166 -225.5 t-176 -63.5q-74 0 -213 41q-27 8 -45.5 15.5t-40.5 21.5l-10 8l-43 35l-35 31l-6 6q-25 27 -43.5 68.5t-37 118.5t-18.5 208zM313 469l6 -96l5 -47l6 -50q20 -154 110 -153q45 0 117 37q16 10 25 16q10 8 41 35l30 29l15 14q27 29 54.5 63.5t41.5 57.5q55 80 76 135l2 10 l22 66l23 73l8 43l8 41l15 74l10 139q0 131 -11.5 187.5t-46.5 97.5q-66 72 -129 72q-98 0 -235 -191q-74 -104 -123 -254l-33 -116l-14 -119l-12 -70l-2 -12zM430 1776q10 41 64 77q66 43 100 43q49 0 76 -96l12 -55q0 -35 -35 -70t-86 -35q-94 0 -125 72q-12 35 -6 64z M797 1776q6 41 65.5 80.5t95.5 39.5q53 0 76 -96l15 -55q0 -35 -35 -70t-86 -35q-94 0 -125 72q-12 35 -6 64z" />
<glyph unicode="&#xc5;" horiz-adv-x="1351" d="M57 518q0 145 35 281l8 32l15 54l10 28l16 56l11 30l8 33l43 90l20 45l8 21l41 65l50 68q80 102 149.5 145t155.5 43h30q20 -4 31 -4q59 -8 89 -21.5t83 -56.5l37 -28l8 -8l23 -19l22 -22q25 27 51.5 38t71.5 11h41q51 -4 70.5 -14.5t19.5 -38.5q0 -18 -10 -64l-14 -106 l-13 -105v-27l-2 -79l-10 -113q0 -45 -5 -127t-5 -109v-67v-49l4 -209q0 -66 7 -86.5t40 -20.5q25 0 94 17l33 10l78 31q20 8 33 -15q6 -12 6 -24q0 -35 -68 -92l-43 -31q-84 -49 -145 -49q-49 0 -105 30q-74 39 -95 65t-36 87l-18 80l-4 26l-35 -65q-92 -162 -166 -225.5 t-176 -63.5q-74 0 -213 41q-27 8 -45.5 15.5t-40.5 21.5l-10 8l-43 35l-35 31l-6 6q-25 27 -43.5 68.5t-37 118.5t-18.5 208zM313 469l6 -96l5 -47l6 -50q20 -154 110 -153q45 0 117 37q16 10 25 16q10 8 41 35l30 29l15 14q27 29 54.5 63.5t41.5 57.5q55 80 76 135l2 10 l22 66l23 73l8 43l8 41l15 74l10 139q0 131 -11.5 187.5t-46.5 97.5q-66 72 -129 72q-98 0 -235 -191q-74 -104 -123 -254l-33 -116l-14 -119l-12 -70l-2 -12zM571 1796q0 63 52.5 111.5t134.5 48.5q76 0 137 -49q51 -43 51 -111q0 -66 -55 -112t-133 -46q-82 0 -134.5 46 t-52.5 112zM690 1798q0 -68 68 -67q29 0 47 18q20 18 20 47q0 27 -20.5 47.5t-46.5 20.5q-29 0 -48.5 -19.5t-19.5 -46.5z" />
<glyph unicode="&#xc6;" horiz-adv-x="2285" d="M-29 -31q0 14 23 60l8 16l59 109l148 313l117 219l129 238l61 112q61 115 106.5 202t77.5 157l43 88l7 10l14 23q14 27 47 26q8 0 22.5 -2t22.5 -2l35 -6q74 -14 100.5 -22.5t85.5 -39.5l21 -10l73 -41l72 -35l115 48q119 49 160 61t157 27l37 4l105 12q16 2 31.5 2h23.5 q96 0 168 -47q104 -74 104 -182q0 -18 -2 -29q-14 -137 -121 -137q-18 0 -41 6q-88 20 -114 131q-4 16 -4 51q-16 2 -45 2q-35 0 -72 -8t-121 -31q-33 -8 -77 -22.5t-64 -22.5q-78 -33 -120 -63.5t-60.5 -68.5t-18.5 -79q0 -23 4 -32q14 -55 51 -79t117 -24h10l131 10h107 l92 13q43 6 109 6q12 -2 45 12q6 4 15 -8t24 -49l14 -35v-10v-39q0 -57 -15.5 -68.5t-91.5 -21.5l-163 -19l-136 -12l-24 -2l-166 -29l-31 -6l-90 -16q-74 -12 -99.5 -31.5t-25.5 -71.5q0 -39 8.5 -72.5t12.5 -54.5q31 -129 70.5 -174t129.5 -45q39 0 62.5 2t81.5 13l90 14 l20 4l29 6l80 21l67 16l41 12q70 18 101 31q45 23 74 35l81 41l76 45q16 8 25 8q20 0 45 -25q18 -18 18 -43q0 -53 -90 -114l-90 -60l-14 -8q-16 -10 -47 -25.5t-64 -29.5l-61 -29l-17 -6l-6 -4l-72 -23l-83 -28l-76 -15l-11 -2l-67 -16q-23 -6 -59.5 -11t-67.5 -5l-55 2 q-57 0 -102.5 9t-78.5 21q-119 49 -151.5 77t-65.5 108q-12 31 -20 72.5t-13.5 88t-5.5 66.5v47.5t2 48.5q2 20 -8 84h-67q-68 0 -128.5 -5t-88.5 -11q-100 -18 -120 -29.5t-59 -79.5l-100 -170l-115 -204l-82 -127l-6 -9l-30 -47q-29 -43 -56 -43q-16 0 -55 23l-31 18 l-16 10q-25 16 -25 35zM618 750q-4 -20 23 -31q16 -4 27 -2l90 12l100 2l127 4q0 129 33 244q14 51 23.5 75.5t17.5 41.5q37 72 56.5 112.5t31.5 79.5q-37 31 -74 41q-84 27 -123 27q-41 0 -67.5 -20.5t-46.5 -63.5l-35 -76l-78 -170l-14 -33l-66 -159z" />
<glyph unicode="&#xc7;" horiz-adv-x="1298" d="M59 539v63l2 84v14l15 117l8 37l6 35l8 35l11 30l10 35q23 82 51 146q55 123 80.5 163.5t77.5 92.5q78 78 137 106.5t141 28.5q47 0 76 -6.5t72 -26.5l65 -31l121 -61q57 -39 102 -104.5t78 -163.5q18 -51 26.5 -132t8.5 -139q0 -66 -20 -127q-8 -2 -15 -2h-14 q-25 0 -43 6q-82 25 -110.5 57.5t-45.5 123.5l-4 38v9l-2 84l-2 14l-4 100q0 92 -21.5 125t-95.5 33q-45 0 -123 -12q-43 -4 -85 -33t-87 -88q-25 -35 -43 -76q-25 -55 -61 -158q-63 -182 -78 -340q-6 -80 -6 -131q0 -57 6 -94q20 -98 58 -142t137 -73q53 -16 108 -16h31 q23 4 33 4q63 8 107 26.5t132 73.5l35 25l19 14l67 55l4 4l51 35l54 43l61 62q6 8 19 8q14 0 39.5 -19.5t25.5 -54.5q0 -53 -70 -131l-30 -33l-70 -71q-47 -47 -108 -90l-58 -37q-90 -53 -167 -77t-156 -24l-105 -233q-18 -41 -59 -41q-35 -4 -64.5 21.5t-29.5 66.5 q0 43 14 74l72 151q-86 29 -138.5 69t-138.5 138q-41 47 -62.5 89t-32.5 88t-15.5 79t-4.5 64z" />
<glyph unicode="&#xc8;" d="M70 385q0 90 73 182q41 53 117 98.5t215 96.5l57 18l-49 11l-43 10l-22 6l-66 18q-113 31 -175 99.5t-62 148.5q0 76 55 150q20 29 63 59q53 39 138 82l43 20l8 5l104 43q129 55 161 63t159 25l35 4l106 12q14 0 31.5 2t25.5 2q39 0 67 -6t54 -18q131 -61 148 -185v-51 q-8 -68 -41 -102.5t-82 -34.5q-18 0 -48 8t-61.5 43t-41 75t-7.5 62q-12 2 -22 2h-25q-35 0 -74 -7t-129 -34q-31 -10 -58.5 -18t-61.5 -23q-88 -37 -136.5 -61.5t-85.5 -48.5l-4 -4l-63 -50l-54 -51q-10 -14 5.5 -28.5t35.5 -22.5q55 -20 86 -27.5t107 -15.5l127 -10l65 -4 h54l55 -2h111h26h58q20 4 24 6l45 12q6 4 17.5 -9t23.5 -48l12 -35l3 -10v-39q0 -57 -13.5 -67.5t-96.5 -22t-253 -68.5l-70 -24l-153 -64q-117 -49 -138.5 -60.5t-107.5 -74.5q-31 -25 -42 -34t-37.5 -36.5t-26.5 -64.5q0 -53 59 -82q33 -16 63.5 -20.5t130.5 -4.5h25 q33 0 122 7.5t171 25.5l31 6l77 21l66 16l43 12q74 20 172 66q29 12 59 28q14 8 23 13l76 45q16 8 24 8q23 0 43.5 -21.5t20.5 -46.5q0 -53 -90 -114l-88 -60l-15 -8q-16 -10 -43.5 -23.5t-68.5 -31.5l-62 -29l-14 -6l-6 -4l-74 -23l-82 -28l-78 -15l-8 -2l-68 -16 q-14 -4 -46.5 -10t-80.5 -6l-65 2q-43 0 -91 11t-91 30l-17 6l-39 20l-53 29l-43 41l-16 14l-29 25q-12 10 -24.5 27.5t-36.5 54.5q-43 74 -43 141zM432 1817q0 57 53 79q16 8 39 9q17 -1 33 -7l221 -88q35 -12 51 -49q6 -18 7 -35q0 -59 -54 -81q-16 -6 -34 -7q-16 0 -35 7 l-221 88q-33 12 -52 47q-8 16 -8 37z" />
<glyph unicode="&#xc9;" d="M70 385q0 90 73 182q41 53 117 98.5t215 96.5l57 18l-49 11l-43 10l-22 6l-66 18q-113 31 -175 99.5t-62 148.5q0 76 55 150q20 29 63 59q53 39 138 82l43 20l8 5l104 43q129 55 161 63t159 25l35 4l106 12q14 0 31.5 2t25.5 2q39 0 67 -6t54 -18q131 -61 148 -185v-51 q-8 -68 -41 -102.5t-82 -34.5q-18 0 -48 8t-61.5 43t-41 75t-7.5 62q-12 2 -22 2h-25q-35 0 -74 -7t-129 -34q-31 -10 -58.5 -18t-61.5 -23q-88 -37 -136.5 -61.5t-85.5 -48.5l-4 -4l-63 -50l-54 -51q-10 -14 5.5 -28.5t35.5 -22.5q55 -20 86 -27.5t107 -15.5l127 -10l65 -4 h54l55 -2h111h26h58q20 4 24 6l45 12q6 4 17.5 -9t23.5 -48l12 -35l3 -10v-39q0 -57 -13.5 -67.5t-96.5 -22t-253 -68.5l-70 -24l-153 -64q-117 -49 -138.5 -60.5t-107.5 -74.5q-31 -25 -42 -34t-37.5 -36.5t-26.5 -64.5q0 -53 59 -82q33 -16 63.5 -20.5t130.5 -4.5h25 q33 0 122 7.5t171 25.5l31 6l77 21l66 16l43 12q74 20 172 66q29 12 59 28q14 8 23 13l76 45q16 8 24 8q23 0 43.5 -21.5t20.5 -46.5q0 -53 -90 -114l-88 -60l-15 -8q-16 -10 -43.5 -23.5t-68.5 -31.5l-62 -29l-14 -6l-6 -4l-74 -23l-82 -28l-78 -15l-8 -2l-68 -16 q-14 -4 -46.5 -10t-80.5 -6l-65 2q-43 0 -91 11t-91 30l-17 6l-39 20l-53 29l-43 41l-16 14l-29 25q-12 10 -24.5 27.5t-36.5 54.5q-43 74 -43 141zM729 1726q0 20 8 37q16 35 51 47l222 88q18 6 34 7q18 0 35 -7q53 -23 54 -83q0 -16 -7 -33q-16 -37 -51 -49l-221 -86 q-14 -8 -35 -9q-20 0 -37 9q-53 23 -53 79z" />
<glyph unicode="&#xca;" d="M70 385q0 90 73 182q41 53 117 98.5t215 96.5l57 18l-49 11l-43 10l-22 6l-66 18q-113 31 -175 99.5t-62 148.5q0 76 55 150q20 29 63 59q53 39 138 82l43 20l8 5l104 43q129 55 161 63t159 25l35 4l106 12q14 0 31.5 2t25.5 2q39 0 67 -6t54 -18q131 -61 148 -185v-51 q-8 -68 -41 -102.5t-82 -34.5q-18 0 -48 8t-61.5 43t-41 75t-7.5 62q-12 2 -22 2h-25q-35 0 -74 -7t-129 -34q-31 -10 -58.5 -18t-61.5 -23q-88 -37 -136.5 -61.5t-85.5 -48.5l-4 -4l-63 -50l-54 -51q-10 -14 5.5 -28.5t35.5 -22.5q55 -20 86 -27.5t107 -15.5l127 -10l65 -4 h54l55 -2h111h26h58q20 4 24 6l45 12q6 4 17.5 -9t23.5 -48l12 -35l3 -10v-39q0 -57 -13.5 -67.5t-96.5 -22t-253 -68.5l-70 -24l-153 -64q-117 -49 -138.5 -60.5t-107.5 -74.5q-31 -25 -42 -34t-37.5 -36.5t-26.5 -64.5q0 -53 59 -82q33 -16 63.5 -20.5t130.5 -4.5h25 q33 0 122 7.5t171 25.5l31 6l77 21l66 16l43 12q74 20 172 66q29 12 59 28q14 8 23 13l76 45q16 8 24 8q23 0 43.5 -21.5t20.5 -46.5q0 -53 -90 -114l-88 -60l-15 -8q-16 -10 -43.5 -23.5t-68.5 -31.5l-62 -29l-14 -6l-6 -4l-74 -23l-82 -28l-78 -15l-8 -2l-68 -16 q-14 -4 -46.5 -10t-80.5 -6l-65 2q-43 0 -91 11t-91 30l-17 6l-39 20l-53 29l-43 41l-16 14l-29 25q-12 10 -24.5 27.5t-36.5 54.5q-43 74 -43 141zM500 1731q0 16 6 34q14 33 49 47l162 66q35 12 47 12t47 -12l160 -63q55 -23 55 -84q0 -18 -8 -35q-23 -55 -84 -56 q-16 0 -33 7l-139 55l-139 -55q-16 -6 -33 -7q-18 0 -35 7q-55 23 -55 84z" />
<glyph unicode="&#xcb;" d="M70 385q0 90 73 182q41 53 117 98.5t215 96.5l57 18l-49 11l-43 10l-22 6l-66 18q-113 31 -175 99.5t-62 148.5q0 76 55 150q20 29 63 59q53 39 138 82l43 20l8 5l104 43q129 55 161 63t159 25l35 4l106 12q14 0 31.5 2t25.5 2q39 0 67 -6t54 -18q131 -61 148 -185v-51 q-8 -68 -41 -102.5t-82 -34.5q-18 0 -48 8t-61.5 43t-41 75t-7.5 62q-12 2 -22 2h-25q-35 0 -74 -7t-129 -34q-31 -10 -58.5 -18t-61.5 -23q-88 -37 -136.5 -61.5t-85.5 -48.5l-4 -4l-63 -50l-54 -51q-10 -14 5.5 -28.5t35.5 -22.5q55 -20 86 -27.5t107 -15.5l127 -10l65 -4 h54l55 -2h111h26h58q20 4 24 6l45 12q6 4 17.5 -9t23.5 -48l12 -35l3 -10v-39q0 -57 -13.5 -67.5t-96.5 -22t-253 -68.5l-70 -24l-153 -64q-117 -49 -138.5 -60.5t-107.5 -74.5q-31 -25 -42 -34t-37.5 -36.5t-26.5 -64.5q0 -53 59 -82q33 -16 63.5 -20.5t130.5 -4.5h25 q33 0 122 7.5t171 25.5l31 6l77 21l66 16l43 12q74 20 172 66q29 12 59 28q14 8 23 13l76 45q16 8 24 8q23 0 43.5 -21.5t20.5 -46.5q0 -53 -90 -114l-88 -60l-15 -8q-16 -10 -43.5 -23.5t-68.5 -31.5l-62 -29l-14 -6l-6 -4l-74 -23l-82 -28l-78 -15l-8 -2l-68 -16 q-14 -4 -46.5 -10t-80.5 -6l-65 2q-43 0 -91 11t-91 30l-17 6l-39 20l-53 29l-43 41l-16 14l-29 25q-12 10 -24.5 27.5t-36.5 54.5q-43 74 -43 141zM475 1776q10 41 64 77q66 43 100 43q49 0 76 -96l12 -55q0 -35 -35 -70t-86 -35q-94 0 -125 72q-12 35 -6 64zM842 1776 q6 41 65.5 80.5t96.5 39.5q53 0 75 -96l15 -55q0 -35 -35 -70t-86 -35q-94 0 -125 72q-12 35 -6 64z" />
<glyph unicode="&#xcc;" horiz-adv-x="643" d="M-10 1817q0 57 53 79q16 8 39 9q17 -1 33 -7l221 -88q35 -12 51 -49q6 -18 6 -35q0 -59 -53 -81q-16 -6 -35 -7q-16 0 -35 7l-221 88q-33 12 -51 47q-8 16 -8 37zM-4 76q0 29 29 41l63 26l84 29q14 29 17.5 44t3.5 52q0 16 -1.5 48t-1.5 77v27l7 397v10l-2 189 q0 164 -2.5 186.5t-22.5 97.5q-25 0 -48.5 4.5t-48 17.5t-44.5 36q-27 29 -27 61q0 35 22.5 43t44 14.5t35.5 6.5l119 14h8l109 -2l201 -2q23 -4 36 -10t46 -29l26 -22q18 -23 19 -46q0 -35 -27 -49t-48.5 -17t-68.5 -3q-8 -2 -14 -2q-14 -4 -45 -23q-12 -111 -17.5 -189.5 t-5.5 -215.5l-2 -154v-49v-27l2 -174v-202v-72q14 -31 29.5 -40t85.5 -26q23 -6 40 -22.5t17 -40.5q0 -39 -39 -55q-16 -8 -34.5 -12.5t-53.5 -4.5l-79 -8h-129l-117 2l-53 6q-57 10 -78 18.5t-28 25t-7 24.5z" />
<glyph unicode="&#xcd;" horiz-adv-x="643" d="M-4 76q0 29 29 41l63 26l84 29q14 29 17.5 44t3.5 52q0 16 -1.5 48t-1.5 77v27l7 397v10l-2 189q0 164 -2.5 186.5t-22.5 97.5q-25 0 -48.5 4.5t-48 17.5t-44.5 36q-27 29 -27 61q0 35 22.5 43t44 14.5t35.5 6.5l119 14h8l109 -2l201 -2q23 -4 36 -10t46 -29l26 -22 q18 -23 19 -46q0 -35 -27 -49t-48.5 -17t-68.5 -3q-8 -2 -14 -2q-14 -4 -45 -23q-12 -111 -17.5 -189.5t-5.5 -215.5l-2 -154v-49v-27l2 -174v-202v-72q14 -31 29.5 -40t85.5 -26q23 -6 40 -22.5t17 -40.5q0 -39 -39 -55q-16 -8 -34.5 -12.5t-53.5 -4.5l-79 -8h-129l-117 2 l-53 6q-57 10 -78 18.5t-28 25t-7 24.5zM287 1726q0 20 8 37q16 35 51 47l221 88q18 6 35 7q18 0 35 -7q53 -23 53 -83q0 -16 -6 -33q-16 -37 -51 -49l-221 -86q-14 -8 -35 -9q-20 0 -37 9q-53 23 -53 79z" />
<glyph unicode="&#xce;" horiz-adv-x="643" d="M-4 76q0 29 29 41l63 26l84 29q14 29 17.5 44t3.5 52q0 16 -1.5 48t-1.5 77v27l7 397v10l-2 189q0 164 -2.5 186.5t-22.5 97.5q-25 0 -48.5 4.5t-48 17.5t-44.5 36q-27 29 -27 61q0 35 22.5 43t44 14.5t35.5 6.5l119 14h8l109 -2l201 -2q23 -4 36 -10t46 -29l26 -22 q18 -23 19 -46q0 -35 -27 -49t-48.5 -17t-68.5 -3q-8 -2 -14 -2q-14 -4 -45 -23q-12 -111 -17.5 -189.5t-5.5 -215.5l-2 -154v-49v-27l2 -174v-202v-72q14 -31 29.5 -40t85.5 -26q23 -6 40 -22.5t17 -40.5q0 -39 -39 -55q-16 -8 -34.5 -12.5t-53.5 -4.5l-79 -8h-129l-117 2 l-53 6q-57 10 -78 18.5t-28 25t-7 24.5zM78 1731q0 16 6 34q14 33 49 47l162 66q35 12 47 12t47 -12l160 -63q55 -23 55 -84q0 -18 -8 -35q-23 -55 -84 -56q-16 0 -33 7l-139 55l-139 -55q-16 -6 -33 -7q-18 0 -35 7q-55 23 -55 84z" />
<glyph unicode="&#xcf;" horiz-adv-x="643" d="M-4 76q0 29 29 41l63 26l84 29q14 29 17.5 44t3.5 52q0 16 -1.5 48t-1.5 77v27l7 397v10l-2 189q0 164 -2.5 186.5t-22.5 97.5q-25 0 -48.5 4.5t-48 17.5t-44.5 36q-27 29 -27 61q0 35 22.5 43t44 14.5t35.5 6.5l119 14h8l109 -2l201 -2q23 -4 36 -10t46 -29l26 -22 q18 -23 19 -46q0 -35 -27 -49t-48.5 -17t-68.5 -3q-8 -2 -14 -2q-14 -4 -45 -23q-12 -111 -17.5 -189.5t-5.5 -215.5l-2 -154v-49v-27l2 -174v-202v-72q14 -31 29.5 -40t85.5 -26q23 -6 40 -22.5t17 -40.5q0 -39 -39 -55q-16 -8 -34.5 -12.5t-53.5 -4.5l-79 -8h-129l-117 2 l-53 6q-57 10 -78 18.5t-28 25t-7 24.5zM33 1776q10 41 63 77q66 43 101 43q49 0 75 -96l13 -55q0 -35 -35 -70t-86 -35q-94 0 -125 72q-12 35 -6 64zM399 1776q6 41 65.5 80.5t96.5 39.5q53 0 76 -96l14 -55q0 -35 -34.5 -70t-86.5 -35q-94 0 -124 72q-13 35 -7 64z" />
<glyph unicode="&#xd0;" horiz-adv-x="1402" d="M-104 1305q-4 33 15 60.5t77 57.5q8 4 47 19.5t63 23.5q43 14 105.5 24.5t195.5 22.5q16 2 33 2.5t27 0.5h59q131 0 227.5 -29t198.5 -92q88 -51 115 -80l6 -6l55 -56l64 -57q25 -20 47 -59q16 -29 43 -80q53 -109 65 -199q6 -47 7 -86q0 -80 -35 -197q-18 -53 -49 -108 t-88 -129q-16 -25 -44 -56.5t-55 -58.5q-127 -121 -258 -180q-76 -35 -131 -49t-106 -14q-37 0 -80 6l-76 12l-6 2q-14 2 -35 -2q-35 -12 -61 -21q-16 -4 -34 0.5t-54.5 25t-63.5 56.5l-2 115l2 21l6 92v12v172l6 133h-47q-61 0 -95 10.5t-58 32.5l-39 53q-18 23 -23.5 38.5 t-1.5 21.5q4 8 25.5 13t91.5 15l28 5l48 4l59 4h25v94v12l8 111v18l2 107l8 98q-10 2 -35 2q-55 0 -110 -24q-6 -2 -42 -14.5t-55 -12.5q-55 0 -75 113zM410 309l2 -65q0 -55 7 -72.5t42 -17.5q12 0 37.5 3t50 7t78.5 31q66 33 149 94q74 51 156 143q63 70 92 117t60.5 133 t31.5 168q0 98 -17.5 155.5t-73.5 142.5t-165 122q-16 6 -37.5 10t-34.5 6l-153 10q-51 0 -90 -1t-54.5 -11t-21.5 -20q-12 -18 -12 -39q0 -14 2 -28.5t2 -20.5q0 -16 -4 -33l-2 -27l-9 -72q-6 -53 -8 -100t-2 -94v-45h10l41 2l91 -4q68 -6 97.5 -18.5t43.5 -36.5 q35 -74 35 -95q0 -31 -74 -37l-105 -6l-30 -2l-80 2l-10 -2h-25l-4 -67l-6 -152z" />
<glyph unicode="&#xd1;" horiz-adv-x="1316" d="M162 25v12l2 43l2 22l-2 166v17l6 118v136l4 270l4 70l4 69l2 8l-2 123l6 131l2 23l9 106q0 59 20.5 86t61.5 31q102 12 143 12q43 0 56.5 -11t23.5 -50l6 -82q0 -18 20 -80l7 -18l30 -76l2 -6l23 -68l29 -73l14 -31l10 -25l12 -30l11 -23l14 -29l35 -69l33 -68l14 -29 l22 -43l29 -51l14 -26l39 -70q35 -63 58 -92l10 -15l16 -18l-12 119l-2 37l-2 49v26l6 209v164l4 94l2 13l2 82l4 86l4 67l3 15q0 145 88 145q27 0 60.5 -9t43.5 -30l-2 -113l-4 -110l-6 -150l2 -32l4 -52l-6 -84l-4 -55l-2 -55l-2 -66v-39v-10l-5 -53v-66l-2 -16l-2 -152 v-55v-119l2 -86l2 -82q-49 -33 -85.5 -37t-52 -4h-21.5q-59 0 -94 23.5t-76 91.5l-64 102l-10 19l-49 90l-6 12l-39 68l-41 82l-17 33l-24 53l-25 45l-47 98l-18 43l-27 60l-37 71q-10 -98 -14 -184t-4 -223v-146q0 -90 1 -164.5t3 -132.5l6 -45v-32q-12 -51 -74 -70 q-27 -8 -53 -8q-98 0 -98 123zM471 1726q0 31 51 64t96 33q63 -27 115.5 -48.5t81.5 -21.5q35 0 68 37q16 18 43 18q23 0 31 -12t8 -35q0 -70 -54 -100q-39 -23 -96 -23q-41 0 -104.5 26t-83.5 26q-49 0 -70 -27q-10 -12 -25 -12q-23 0 -36 12q-25 20 -25 63z" />
<glyph unicode="&#xd2;" d="M59 711q0 150 45 293l19 55l10 26l33 80q33 80 49 110t51 71q53 61 115 98q121 70 227 69q61 0 109 -20l12 -4l41 -23l55 -18l80 -47l82 -41l82 -41q47 -25 70.5 -39t38.5 -27q84 -70 105.5 -95t59.5 -109l25 -58q6 -18 14.5 -58t13.5 -78t5 -61.5v-45.5q0 -66 -2 -100 t-15 -95q-29 -121 -44 -160t-70 -133l-33 -55l-4 -6q-14 -16 -54 -52t-71 -61q-43 -35 -105.5 -59.5t-147.5 -39t-140 -14.5q-68 0 -131.5 21.5t-159.5 75.5l-41 26l-21 13l-53 36q-39 27 -78 48q-10 6 -26 28q-25 33 -64 101.5t-59.5 146.5t-20.5 184zM322 551 q0 -37 2 -59.5t16 -75.5q35 -117 94 -180q111 -121 252 -121q96 0 192.5 63.5t176.5 194.5q27 43 47 94t37.5 127t17.5 147q0 63 -12 138q-33 176 -133 295q-92 111 -205 131q-43 8 -51 8q-16 2 -49 2q-121 0 -197 -82t-143 -289q-18 -59 -29.5 -122.5t-11.5 -155.5z M461 1817q0 57 53 79q16 8 39 9q17 -1 33 -7l221 -88q35 -12 51 -49q6 -18 6 -35q0 -59 -53 -81q-16 -6 -35 -7q-16 0 -35 7l-221 88q-33 12 -51 47q-8 16 -8 37z" />
<glyph unicode="&#xd3;" d="M59 711q0 150 45 293l19 55l10 26l33 80q33 80 49 110t51 71q53 61 115 98q121 70 227 69q61 0 109 -20l12 -4l41 -23l55 -18l80 -47l82 -41l82 -41q47 -25 70.5 -39t38.5 -27q84 -70 105.5 -95t59.5 -109l25 -58q6 -18 14.5 -58t13.5 -78t5 -61.5v-45.5q0 -66 -2 -100 t-15 -95q-29 -121 -44 -160t-70 -133l-33 -55l-4 -6q-14 -16 -54 -52t-71 -61q-43 -35 -105.5 -59.5t-147.5 -39t-140 -14.5q-68 0 -131.5 21.5t-159.5 75.5l-41 26l-21 13l-53 36q-39 27 -78 48q-10 6 -26 28q-25 33 -64 101.5t-59.5 146.5t-20.5 184zM322 551 q0 -37 2 -59.5t16 -75.5q35 -117 94 -180q111 -121 252 -121q96 0 192.5 63.5t176.5 194.5q27 43 47 94t37.5 127t17.5 147q0 63 -12 138q-33 176 -133 295q-92 111 -205 131q-43 8 -51 8q-16 2 -49 2q-121 0 -197 -82t-143 -289q-18 -59 -29.5 -122.5t-11.5 -155.5z M717 1726q0 20 8 37q16 35 51 47l221 88q18 6 35 7q18 0 35 -7q53 -23 53 -83q0 -16 -6 -33q-16 -37 -51 -49l-221 -86q-14 -8 -35 -9q-20 0 -37 9q-53 23 -53 79z" />
<glyph unicode="&#xd4;" d="M59 711q0 150 45 293l19 55l10 26l33 80q33 80 49 110t51 71q53 61 115 98q121 70 227 69q61 0 109 -20l12 -4l41 -23l55 -18l80 -47l82 -41l82 -41q47 -25 70.5 -39t38.5 -27q84 -70 105.5 -95t59.5 -109l25 -58q6 -18 14.5 -58t13.5 -78t5 -61.5v-45.5q0 -66 -2 -100 t-15 -95q-29 -121 -44 -160t-70 -133l-33 -55l-4 -6q-14 -16 -54 -52t-71 -61q-43 -35 -105.5 -59.5t-147.5 -39t-140 -14.5q-68 0 -131.5 21.5t-159.5 75.5l-41 26l-21 13l-53 36q-39 27 -78 48q-10 6 -26 28q-25 33 -64 101.5t-59.5 146.5t-20.5 184zM322 551 q0 -37 2 -59.5t16 -75.5q35 -117 94 -180q111 -121 252 -121q96 0 192.5 63.5t176.5 194.5q27 43 47 94t37.5 127t17.5 147q0 63 -12 138q-33 176 -133 295q-92 111 -205 131q-43 8 -51 8q-16 2 -49 2q-121 0 -197 -82t-143 -289q-18 -59 -29.5 -122.5t-11.5 -155.5z M524 1731q0 16 6 34q15 33 50 47l161 66q35 12 47 12t48 -12l159 -63q55 -23 56 -84q0 -18 -9 -35q-23 -55 -84 -56q-16 0 -32 7l-140 55l-139 -55q-16 -6 -33 -7q-18 0 -34 7q-55 23 -56 84z" />
<glyph unicode="&#xd5;" d="M59 711q0 150 45 293l19 55l10 26l33 80q33 80 49 110t51 71q53 61 115 98q121 70 227 69q61 0 109 -20l12 -4l41 -23l55 -18l80 -47l82 -41l82 -41q47 -25 70.5 -39t38.5 -27q84 -70 105.5 -95t59.5 -109l25 -58q6 -18 14.5 -58t13.5 -78t5 -61.5v-45.5q0 -66 -2 -100 t-15 -95q-29 -121 -44 -160t-70 -133l-33 -55l-4 -6q-14 -16 -54 -52t-71 -61q-43 -35 -105.5 -59.5t-147.5 -39t-140 -14.5q-68 0 -131.5 21.5t-159.5 75.5l-41 26l-21 13l-53 36q-39 27 -78 48q-10 6 -26 28q-25 33 -64 101.5t-59.5 146.5t-20.5 184zM322 551 q0 -37 2 -59.5t16 -75.5q35 -117 94 -180q111 -121 252 -121q96 0 192.5 63.5t176.5 194.5q27 43 47 94t37.5 127t17.5 147q0 63 -12 138q-33 176 -133 295q-92 111 -205 131q-43 8 -51 8q-16 2 -49 2q-121 0 -197 -82t-143 -289q-18 -59 -29.5 -122.5t-11.5 -155.5z M492 1726q0 31 51 64t96 33q63 -27 115.5 -48.5t81.5 -21.5q35 0 67 37q16 18 43 18q23 0 31 -12t8 -35q0 -70 -53 -100q-39 -23 -96 -23q-41 0 -104.5 26t-84.5 26q-49 0 -69 -27q-10 -12 -25 -12q-23 0 -37 12q-25 20 -24 63z" />
<glyph unicode="&#xd6;" d="M59 711q0 150 45 293l19 55l10 26l33 80q33 80 49 110t51 71q53 61 115 98q121 70 227 69q61 0 109 -20l12 -4l41 -23l55 -18l80 -47l82 -41l82 -41q47 -25 70.5 -39t38.5 -27q84 -70 105.5 -95t59.5 -109l25 -58q6 -18 14.5 -58t13.5 -78t5 -61.5v-45.5q0 -66 -2 -100 t-15 -95q-29 -121 -44 -160t-70 -133l-33 -55l-4 -6q-14 -16 -54 -52t-71 -61q-43 -35 -105.5 -59.5t-147.5 -39t-140 -14.5q-68 0 -131.5 21.5t-159.5 75.5l-41 26l-21 13l-53 36q-39 27 -78 48q-10 6 -26 28q-25 33 -64 101.5t-59.5 146.5t-20.5 184zM322 551 q0 -37 2 -59.5t16 -75.5q35 -117 94 -180q111 -121 252 -121q96 0 192.5 63.5t176.5 194.5q27 43 47 94t37.5 127t17.5 147q0 63 -12 138q-33 176 -133 295q-92 111 -205 131q-43 8 -51 8q-16 2 -49 2q-121 0 -197 -82t-143 -289q-18 -59 -29.5 -122.5t-11.5 -155.5z M459 1776q10 41 63 77q66 43 101 43q49 0 75 -96l13 -55q0 -35 -35 -70t-86 -35q-94 0 -125 72q-12 35 -6 64zM825 1776q6 41 65.5 80.5t96.5 39.5q53 0 76 -96l14 -55q0 -35 -34.5 -70t-86.5 -35q-94 0 -125 72q-12 35 -6 64z" />
<glyph unicode="&#xd7;" horiz-adv-x="0" />
<glyph unicode="&#xd8;" d="M10 53q0 35 8.5 58.5t22.5 35.5l78 64l55 55l-33 58q-39 68 -59.5 145.5t-20.5 183.5l-2 58q0 150 45 293l19 55l10 26l33 80q33 80 49 110t51 71q53 61 115 98q121 70 227 69q61 0 109 -20l12 -4l41 -23l55 -18l80 -47l82 -41l82 -41q41 -20 62.5 -32.5t31.5 -22.5 l164 155l25 31l26 25l27 20q31 25 41 25t27 -66l30 -59q4 -10 1 -32t-15 -50q-14 -51 -47 -70q-16 -8 -76 -31q-8 0 -23 -10q-29 -25 -57 -49q14 -18 33 -53q12 -26 24 -51l25 -58q6 -18 14.5 -58t13.5 -78t5 -61.5v-45.5q0 -66 -2 -100t-15 -95q-29 -121 -44 -160t-70 -133 l-33 -55l-4 -6q-14 -16 -54 -52t-71 -61q-43 -35 -105.5 -59.5t-147.5 -39t-140 -14.5q-68 0 -131.5 21.5t-159.5 75.5l-41 26l-21 13l-53 36l-16 11l-25 -25q-31 -27 -61 -61q-23 -27 -47 -54l-45 -61q-8 -8 -29 -8q-37 0 -56.5 30.5t-19.5 75.5zM322 551q0 -33 4 -61.5 t10 -57.5l12 12l117 115l8 10l117 119q61 57 217 213q133 133 205 207l28 29q-49 70 -108.5 112.5t-113.5 53t-62 10.5q-16 2 -49 2q-121 0 -197 -82t-143 -289q-18 -59 -29.5 -122.5t-11.5 -155.5zM403 272l31 -36q111 -121 252 -121q96 0 192.5 63.5t176.5 194.5 q27 43 47 94t37.5 127t17.5 147q0 63 -9 118.5t-13 72.5q-12 35 -17 51l-200 -192l-27 -33l-176 -174l-10 -11l-62 -61l-10 -6l-62 -68l-110 -106z" />
<glyph unicode="&#xd9;" horiz-adv-x="1409" d="M147 600v90l3 53v43l4 45l4 80q0 78 6 119q14 66 22 121l17 94l16 90q14 78 32.5 108t64.5 40t75 10q51 0 74.5 -19.5t23.5 -54.5l-18 -57l-10 -53l-10 -43l-13 -56l-12 -100l-4 -37l-12 -76q-8 -53 -12.5 -156.5t-4.5 -187.5v-82v-24l8 -107l5 -14l14 -84l4 -14l20 -99 l25 -77q16 -45 72 -46q35 0 65 23q18 14 31.5 29.5t39 51.5t42.5 62q25 41 37 66l24 45l25 51l20 41l21 43l35 82l6 21l22 65q37 115 55.5 200t28.5 197l2 15l25 192q10 78 38.5 109t96.5 31q70 0 93.5 -11.5t23.5 -54.5q0 -27 -17 -92v-10l-18 -105l-14 -115l-4 -30l-5 -86 l-4 -86l-2 -33v-35v-72l2 -73v-41l9 -115l2 -20l12 -91q0 -14 2 -26q0 -4 10 -39t23.5 -56.5t36.5 -27.5l90 33q35 10 51 10q25 0 45 -13.5t20 -39.5q0 -14 -10 -31q-20 -31 -43 -47q-90 -72 -166 -72q-27 0 -71 10q-127 33 -181 181q-8 23 -13 44t-5 54q0 20 -25 59 l-16 -30l-14 -25l-6 -12l-23 -47l-12 -25l-17 -31l-16 -26l-16 -27l-31 -45q-66 -82 -131.5 -114.5t-165.5 -32.5q-35 0 -76 10q-119 31 -165 61.5t-83 106.5l-12 22l-20 90l-3 9l-10 41q-14 47 -23.5 112.5t-9.5 163.5zM461 1817q0 57 53 79q16 8 39 9q17 -1 33 -7l221 -88 q35 -12 51 -49q6 -18 6 -35q0 -59 -53 -81q-16 -6 -35 -7q-16 0 -35 7l-221 88q-33 12 -51 47q-8 16 -8 37z" />
<glyph unicode="&#xda;" horiz-adv-x="1409" d="M147 600v90l3 53v43l4 45l4 80q0 78 6 119q14 66 22 121l17 94l16 90q14 78 32.5 108t64.5 40t75 10q51 0 74.5 -19.5t23.5 -54.5l-18 -57l-10 -53l-10 -43l-13 -56l-12 -100l-4 -37l-12 -76q-8 -53 -12.5 -156.5t-4.5 -187.5v-82v-24l8 -107l5 -14l14 -84l4 -14l20 -99 l25 -77q16 -45 72 -46q35 0 65 23q18 14 31.5 29.5t39 51.5t42.5 62q25 41 37 66l24 45l25 51l20 41l21 43l35 82l6 21l22 65q37 115 55.5 200t28.5 197l2 15l25 192q10 78 38.5 109t96.5 31q70 0 93.5 -11.5t23.5 -54.5q0 -27 -17 -92v-10l-18 -105l-14 -115l-4 -30l-5 -86 l-4 -86l-2 -33v-35v-72l2 -73v-41l9 -115l2 -20l12 -91q0 -14 2 -26q0 -4 10 -39t23.5 -56.5t36.5 -27.5l90 33q35 10 51 10q25 0 45 -13.5t20 -39.5q0 -14 -10 -31q-20 -31 -43 -47q-90 -72 -166 -72q-27 0 -71 10q-127 33 -181 181q-8 23 -13 44t-5 54q0 20 -25 59 l-16 -30l-14 -25l-6 -12l-23 -47l-12 -25l-17 -31l-16 -26l-16 -27l-31 -45q-66 -82 -131.5 -114.5t-165.5 -32.5q-35 0 -76 10q-119 31 -165 61.5t-83 106.5l-12 22l-20 90l-3 9l-10 41q-14 47 -23.5 112.5t-9.5 163.5zM717 1726q0 20 8 37q16 35 51 47l221 88q18 6 35 7 q18 0 35 -7q53 -23 53 -83q0 -16 -6 -33q-16 -37 -51 -49l-221 -86q-14 -8 -35 -9q-20 0 -37 9q-53 23 -53 79z" />
<glyph unicode="&#xdb;" horiz-adv-x="1409" d="M147 600v90l3 53v43l4 45l4 80q0 78 6 119q14 66 22 121l17 94l16 90q14 78 32.5 108t64.5 40t75 10q51 0 74.5 -19.5t23.5 -54.5l-18 -57l-10 -53l-10 -43l-13 -56l-12 -100l-4 -37l-12 -76q-8 -53 -12.5 -156.5t-4.5 -187.5v-82v-24l8 -107l5 -14l14 -84l4 -14l20 -99 l25 -77q16 -45 72 -46q35 0 65 23q18 14 31.5 29.5t39 51.5t42.5 62q25 41 37 66l24 45l25 51l20 41l21 43l35 82l6 21l22 65q37 115 55.5 200t28.5 197l2 15l25 192q10 78 38.5 109t96.5 31q70 0 93.5 -11.5t23.5 -54.5q0 -27 -17 -92v-10l-18 -105l-14 -115l-4 -30l-5 -86 l-4 -86l-2 -33v-35v-72l2 -73v-41l9 -115l2 -20l12 -91q0 -14 2 -26q0 -4 10 -39t23.5 -56.5t36.5 -27.5l90 33q35 10 51 10q25 0 45 -13.5t20 -39.5q0 -14 -10 -31q-20 -31 -43 -47q-90 -72 -166 -72q-27 0 -71 10q-127 33 -181 181q-8 23 -13 44t-5 54q0 20 -25 59 l-16 -30l-14 -25l-6 -12l-23 -47l-12 -25l-17 -31l-16 -26l-16 -27l-31 -45q-66 -82 -131.5 -114.5t-165.5 -32.5q-35 0 -76 10q-119 31 -165 61.5t-83 106.5l-12 22l-20 90l-3 9l-10 41q-14 47 -23.5 112.5t-9.5 163.5zM524 1731q0 16 6 34q15 33 50 47l161 66q35 12 47 12 t48 -12l159 -63q55 -23 56 -84q0 -18 -9 -35q-23 -55 -84 -56q-16 0 -32 7l-140 55l-139 -55q-16 -6 -33 -7q-18 0 -34 7q-55 23 -56 84z" />
<glyph unicode="&#xdc;" horiz-adv-x="1409" d="M147 600v90l3 53v43l4 45l4 80q0 78 6 119q14 66 22 121l17 94l16 90q14 78 32.5 108t64.5 40t75 10q51 0 74.5 -19.5t23.5 -54.5l-18 -57l-10 -53l-10 -43l-13 -56l-12 -100l-4 -37l-12 -76q-8 -53 -12.5 -156.5t-4.5 -187.5v-82v-24l8 -107l5 -14l14 -84l4 -14l20 -99 l25 -77q16 -45 72 -46q35 0 65 23q18 14 31.5 29.5t39 51.5t42.5 62q25 41 37 66l24 45l25 51l20 41l21 43l35 82l6 21l22 65q37 115 55.5 200t28.5 197l2 15l25 192q10 78 38.5 109t96.5 31q70 0 93.5 -11.5t23.5 -54.5q0 -27 -17 -92v-10l-18 -105l-14 -115l-4 -30l-5 -86 l-4 -86l-2 -33v-35v-72l2 -73v-41l9 -115l2 -20l12 -91q0 -14 2 -26q0 -4 10 -39t23.5 -56.5t36.5 -27.5l90 33q35 10 51 10q25 0 45 -13.5t20 -39.5q0 -14 -10 -31q-20 -31 -43 -47q-90 -72 -166 -72q-27 0 -71 10q-127 33 -181 181q-8 23 -13 44t-5 54q0 20 -25 59 l-16 -30l-14 -25l-6 -12l-23 -47l-12 -25l-17 -31l-16 -26l-16 -27l-31 -45q-66 -82 -131.5 -114.5t-165.5 -32.5q-35 0 -76 10q-119 31 -165 61.5t-83 106.5l-12 22l-20 90l-3 9l-10 41q-14 47 -23.5 112.5t-9.5 163.5zM483 1776q10 41 64 77q66 43 100 43q49 0 76 -96 l12 -55q0 -35 -34.5 -70t-86.5 -35q-94 0 -125 72q-12 35 -6 64zM850 1776q6 41 65.5 80.5t96.5 39.5q53 0 75 -96l15 -55q0 -35 -35 -70t-86 -35q-94 0 -125 72q-12 35 -6 64z" />
<glyph unicode="&#xdd;" horiz-adv-x="1388" d="M147 637v55l3 68l4 71l2 54q0 59 1 75.5t19 159.5l8 64l9 51l2 12l16 88q18 98 46 126t114 28q41 0 84 -6t43 -39q0 -12 -19 -58q-10 -23 -19 -58.5t-16 -84.5l-6 -43l-6 -41l-8 -33l-8 -45l-15 -139l-8 -125l-2 -12v-29l-2 -108v-103v-35l2 -47q0 -76 6 -107.5t13 -56.5 l2 -6l24 -67q20 -57 43 -80t62 -23q20 0 35.5 3.5t29.5 11.5q33 20 68 69l59 84q27 35 39 56.5t16 33.5l15 35l4 8l35 84l39 97l10 32l20 64l21 61l8 33q10 39 22.5 97.5t20.5 115.5l4 33l12 84l19 112l8 84q0 66 74 66q25 0 39 -2q33 -4 67 4q20 4 34.5 -19.5t14.5 -46.5 q0 -33 -10 -77l-6 -41q-6 -43 -8 -72t-2 -98v-8l-6 -68l-4 -72v-14l-9 -86l-2 -100l-26 -457l-4 -72l-7 -155l-2 -97q0 -80 -1 -147.5t-1 -124.5v-51q4 -31 4 -43q2 -14 3 -27v-22q0 -53 -23 -72t-86 -19q-39 0 -84 23l-37 27v57v47l-2 25l-2 71v31v63l4 99v37l2 88l6 127 l4 63l7 68v104l-5 -6l-14 -31q-82 -158 -166 -230.5t-186 -72.5t-236 76q-96 55 -138 129t-60 227q-6 33 -8.5 78t-2.5 117zM735 1726q0 20 8 37q17 35 52 47l221 88q18 6 35 7q18 0 34 -7q53 -23 54 -83q0 -16 -6 -33q-16 -37 -52 -49l-221 -86q-14 -8 -35 -9q-20 0 -37 9 q-53 23 -53 79z" />
<glyph unicode="&#xde;" horiz-adv-x="1228" d="M168 125q0 68 12 182l2 21l4 75v29l2 62l2 10l5 78v10l2 80v8l8 113v10l6 115l2 45l6 81l2 48l2 20v8l2 66l11 94l8 207q20 8 33.5 15t15.5 9l76 -12l80 -6h32l21 -23q6 -10 6 -51q0 -51 -3 -87t-7 -56l-4 -29l61 -2l107 -8q74 -6 108 -14l29 -4l78 -17q182 -37 266 -149 q55 -74 82.5 -145.5t27.5 -131.5q0 -125 -73.5 -217t-245.5 -170q-53 -23 -126 -44t-171 -36.5t-197 -15.5l-18 6l-2 -111v-8v-58.5t2 -49.5q0 -57 -27 -70q-12 -6 -71 -16q-29 -4 -41 -6t-23 -3q-51 0 -71.5 32t-20.5 116zM455 444q68 0 163 29l66 21l57 18l9 4 q27 10 67.5 38t87.5 69q37 29 74 75q76 102 76 158q0 41 -39 84q-29 35 -93.5 56.5t-203.5 41.5q-37 4 -74 11h-39q-53 0 -108 -19q-16 -96 -17 -129l-6 -94l-2 -35l-8 -94l-2 -35l-4 -49l-2 -41l-2 -53v-56z" />
<glyph unicode="&#xdf;" horiz-adv-x="1386" d="M111 737q0 41 36.5 54.5t67.5 9.5q57 0 77.5 6t26.5 31l7 98l6 98l10 99l4 55q6 57 12.5 95t10.5 60q23 94 42 148.5t42 89.5q47 74 89 102.5t107 28.5q29 0 72 -6t59 -8q145 -23 250 -158q33 -39 52.5 -76t29.5 -69.5t16.5 -64.5t6.5 -54q0 -51 -28 -106.5t-97 -153.5 l-17 -23q-12 -16 -14 -41q-6 -41 22 -88q8 -12 27 -29.5t57 -43.5l58 -43q66 -57 98 -95q115 -129 115 -231q0 -121 -29 -182q-35 -74 -141 -158q-78 -61 -197 -84q-66 -12 -108 -12q-41 0 -74 11t-58.5 32.5t-37 37t-21.5 39.5q-27 72 -26 95q0 25 26 57q27 39 55 39 q20 0 46 -25l45 -43l14 -14q80 -68 125 -68q25 0 47 19l31 47q10 14 20 27.5t35 38.5q6 8 10 26.5t8 54t4 48.5q0 41 -30 92l-58 69q-8 8 -41 68l-71 57q-96 78 -117 205q-6 41 -6 70q0 55 20.5 103t87.5 153q8 12 14.5 28.5t10.5 43t4 51.5q0 35 -10 65q-25 61 -50.5 77.5 t-86.5 16.5q-66 0 -91.5 -23.5t-66.5 -117.5q-25 -55 -39 -109.5t-14 -121.5l-11 -121l-6 -78l-28 -381l-9 -90v-19l3 -84l-5 -100v-102l9 -97l2 -10q2 -12 -5.5 -29.5t-19.5 -21.5q-14 -6 -53 -6q-20 0 -45 1t-51 1h-19q-57 0 -57 100q0 35 4 56v14l4 33l8 147v25v121 q0 18 3 69t3 76l-37 -2q-61 0 -93.5 11t-49.5 34q-23 29 -22 55z" />
<glyph unicode="&#xe0;" horiz-adv-x="948" d="M59 303v33l2 31l5 53l6 74l22 73l21 74l6 21l35 67l28 49l6 8l31 33q78 84 162 84q47 0 121 -18q111 -27 153.5 -49.5t77.5 -71.5l17 -27l24 6q78 0 90 -34l-22 -60q-4 -18 -9.5 -55t-13.5 -105l-4 -28v-12l-2 -80v-35l-4 -86q0 -51 18.5 -77t42.5 -17q14 4 25 10 q29 14 66 41l22 20l59 56q18 18 39 -11q12 -16 13 -39q0 -37 -41 -100q-61 -94 -166 -94q-31 0 -47.5 2t-50.5 14q-90 29 -134 115l-30 -29l-4 -4l-33 -47l-15 -18q-49 -53 -94 -68.5t-133 -15.5q-147 0 -218 78.5t-71 238.5zM156 1182q0 57 53 80q16 8 39 8q17 0 33 -6 l221 -88q35 -12 51 -50q6 -18 6 -34q0 -59 -53 -82q-16 -6 -35 -6q-16 0 -35 6l-221 88q-33 12 -51 47q-8 16 -8 37zM299 258q0 -57 3 -77.5t13 -49.5t41 -29q25 0 50 19l20 22l31 39l18 27l33 45l12 18l33 64q18 47 27 100l4 31l8 59l4 25l8 55l4 29l8 41q4 31 -30.5 58.5 t-79.5 19.5q-84 -14 -152 -183l-8 -20l-14 -41l-15 -45l-4 -14q-4 -16 -6 -31q-8 -51 -8 -119v-25v-18z" />
<glyph unicode="&#xe1;" horiz-adv-x="948" d="M59 303v33l2 31l5 53l6 74l22 73l21 74l6 21l35 67l28 49l6 8l31 33q78 84 162 84q47 0 121 -18q111 -27 153.5 -49.5t77.5 -71.5l17 -27l24 6q78 0 90 -34l-22 -60q-4 -18 -9.5 -55t-13.5 -105l-4 -28v-12l-2 -80v-35l-4 -86q0 -51 18.5 -77t42.5 -17q14 4 25 10 q29 14 66 41l22 20l59 56q18 18 39 -11q12 -16 13 -39q0 -37 -41 -100q-61 -94 -166 -94q-31 0 -47.5 2t-50.5 14q-90 29 -134 115l-30 -29l-4 -4l-33 -47l-15 -18q-49 -53 -94 -68.5t-133 -15.5q-147 0 -218 78.5t-71 238.5zM299 258q0 -57 3 -77.5t13 -49.5t41 -29 q25 0 50 19l20 22l31 39l18 27l33 45l12 18l33 64q18 47 27 100l4 31l8 59l4 25l8 55l4 29l8 41q4 31 -30.5 58.5t-79.5 19.5q-47 -8 -84 -51.5t-68 -131.5l-8 -20l-14 -41l-15 -45l-4 -14q-4 -16 -6 -31q-8 -51 -8 -119v-25v-18zM453 1092q0 20 8 36q16 36 51 48l221 88 q18 6 35 6q18 0 35 -6q53 -23 53 -84q0 -16 -6 -33q-16 -37 -51 -49l-221 -86q-14 -8 -35 -8q-20 0 -37 8q-53 23 -53 80z" />
<glyph unicode="&#xe2;" horiz-adv-x="948" d="M59 303v33l2 31l5 53l6 74l22 73l21 74l6 21l35 67l28 49l6 8l31 33q78 84 162 84q47 0 121 -18q111 -27 153.5 -49.5t77.5 -71.5l17 -27l24 6q78 0 90 -34l-22 -60q-4 -18 -9.5 -55t-13.5 -105l-4 -28v-12l-2 -80v-35l-4 -86q0 -51 18.5 -77t42.5 -17q14 4 25 10 q29 14 66 41l22 20l59 56q18 18 39 -11q12 -16 13 -39q0 -37 -41 -100q-61 -94 -166 -94q-31 0 -47.5 2t-50.5 14q-90 29 -134 115l-30 -29l-4 -4l-33 -47l-15 -18q-49 -53 -94 -68.5t-133 -15.5q-147 0 -218 78.5t-71 238.5zM244 1096q0 16 6 34q14 34 49 48l162 65 q35 12 47 12t47 -12l160 -63q55 -23 55 -84q0 -18 -8 -35q-23 -55 -84 -55q-16 0 -33 6l-139 55l-139 -55q-16 -6 -33 -6q-18 0 -35 6q-55 23 -55 84zM299 258q0 -57 3 -77.5t13 -49.5t41 -29q25 0 50 19l20 22l31 39l18 27l33 45l12 18l33 64q18 47 27 100l4 31l8 59l4 25 l8 55l4 29l8 41q4 31 -30.5 58.5t-79.5 19.5q-47 -8 -84 -51.5t-68 -131.5l-8 -20l-14 -41l-15 -45l-4 -14q-4 -16 -6 -31q-8 -51 -8 -119v-25v-18z" />
<glyph unicode="&#xe3;" horiz-adv-x="948" d="M59 303v33l2 31l5 53l6 74l22 73l21 74l6 21l35 67l28 49l6 8l31 33q78 84 162 84q47 0 121 -18q111 -27 153.5 -49.5t77.5 -71.5l17 -27l24 6q78 0 90 -34l-22 -60q-4 -18 -9.5 -55t-13.5 -105l-4 -28v-12l-2 -80v-35l-4 -86q0 -51 18.5 -77t42.5 -17q14 4 25 10 q29 14 66 41l22 20l59 56q18 18 39 -11q12 -16 13 -39q0 -37 -41 -100q-61 -94 -166 -94q-31 0 -47.5 2t-50.5 14q-90 29 -134 115l-30 -29l-4 -4l-33 -47l-15 -18q-49 -53 -94 -68.5t-133 -15.5q-147 0 -218 78.5t-71 238.5zM260 1092q0 31 51 63.5t97 32.5 q63 -27 115 -48.5t81 -21.5q35 0 68 37q16 18 43 19q23 0 31 -12.5t8 -35.5q0 -70 -54 -100q-39 -23 -96 -22q-41 0 -104.5 25.5t-83.5 25.5q-49 0 -70 -27q-10 -12 -24 -12q-23 0 -37 12q-25 20 -25 64zM299 258q0 -57 3 -77.5t13 -49.5t41 -29q25 0 50 19l20 22l31 39 l18 27l33 45l12 18l33 64q18 47 27 100l4 31l8 59l4 25l8 55l4 29l8 41q4 31 -30.5 58.5t-79.5 19.5q-47 -8 -84 -51.5t-68 -131.5l-8 -20l-14 -41l-15 -45l-4 -14q-4 -16 -6 -31q-8 -51 -8 -119v-25v-18z" />
<glyph unicode="&#xe4;" horiz-adv-x="948" d="M59 303v33l2 31l5 53l6 74l22 73l21 74l6 21l35 67l28 49l6 8l31 33q78 84 162 84q47 0 121 -18q111 -27 153.5 -49.5t77.5 -71.5l17 -27l24 6q78 0 90 -34l-22 -60q-4 -18 -9.5 -55t-13.5 -105l-4 -28v-12l-2 -80v-35l-4 -86q0 -51 18.5 -77t42.5 -17q14 4 25 10 q29 14 66 41l22 20l59 56q18 18 39 -11q12 -16 13 -39q0 -37 -41 -100q-61 -94 -166 -94q-31 0 -47.5 2t-50.5 14q-90 29 -134 115l-30 -29l-4 -4l-33 -47l-15 -18q-49 -53 -94 -68.5t-133 -15.5q-147 0 -218 78.5t-71 238.5zM199 1141q10 41 63 78q66 43 100 43 q49 0 76 -97l13 -55q0 -35 -35 -69.5t-86 -34.5q-94 0 -125 71q-12 35 -6 64zM299 258q0 -57 3 -77.5t13 -49.5t41 -29q25 0 50 19l20 22l31 39l18 27l33 45l12 18l33 64q18 47 27 100l4 31l8 59l4 25l8 55l4 29l8 41q4 31 -30.5 58.5t-79.5 19.5q-47 -8 -84 -51.5 t-68 -131.5l-8 -20l-14 -41l-15 -45l-4 -14q-4 -16 -6 -31q-8 -51 -8 -119v-25v-18zM565 1141q6 41 65.5 81t96.5 40q53 0 76 -97l14 -55q0 -35 -34.5 -69.5t-86.5 -34.5q-94 0 -125 71q-12 35 -6 64z" />
<glyph unicode="&#xe5;" horiz-adv-x="948" d="M59 303v33l2 31l5 53l6 74l22 73l21 74l6 21l35 67l28 49l6 8l31 33q78 84 162 84q47 0 121 -18q111 -27 153.5 -49.5t77.5 -71.5l17 -27l24 6q78 0 90 -34l-22 -60q-4 -18 -9.5 -55t-13.5 -105l-4 -28v-12l-2 -80v-35l-4 -86q0 -51 18.5 -77t42.5 -17q14 4 25 10 q29 14 66 41l22 20l59 56q18 18 39 -11q12 -16 13 -39q0 -37 -41 -100q-61 -94 -166 -94q-31 0 -47.5 2t-50.5 14q-90 29 -134 115l-30 -29l-4 -4l-33 -47l-15 -18q-49 -53 -94 -68.5t-133 -15.5q-147 0 -218 78.5t-71 238.5zM299 258q0 -57 3 -77.5t13 -49.5t41 -29 q25 0 50 19l20 22l31 39l18 27l33 45l12 18l33 64q18 47 27 100l4 31l8 59l4 25l8 55l4 29l8 41q4 31 -30.5 58.5t-79.5 19.5q-47 -8 -84 -51.5t-68 -131.5l-8 -20l-14 -41l-15 -45l-4 -14q-4 -16 -6 -31q-8 -51 -8 -119v-25v-18zM319 1161q0 63 52.5 111.5t134.5 48.5 q76 0 137 -49q51 -43 51 -111q0 -66 -55 -111.5t-133 -45.5q-82 0 -134.5 45.5t-52.5 111.5zM438 1163q0 -68 68 -67q29 0 47 18q20 18 20 47q0 27 -20.5 47.5t-46.5 20.5q-29 0 -48.5 -19.5t-19.5 -46.5z" />
<glyph unicode="&#xe6;" horiz-adv-x="1351" d="M59 303v33l2 31l5 53l6 74l22 73l21 74l6 21l35 67l28 49l6 8l31 33q41 45 79 64.5t85 19.5t121 -18q35 -6 64.5 -17.5t43.5 -15.5l50 -21l45 33l12 8q35 29 49 39q33 25 61 25q29 0 138 -31l57 -20q106 -51 152.5 -85t69 -83t22.5 -94q0 -74 -58 -144q-16 -20 -26 -30 q-10 -8 -21 -17q-63 -47 -85.5 -57t-96.5 -29l-72 -16l-8 -2q-18 -2 -35.5 -3t-46.5 -1l-6 -45q0 -90 23.5 -124t91.5 -34q29 0 69 6l23 4l12 4l43 19l43 16l8 4l7 4l45 25q41 25 66.5 43t39.5 33l29 30l43 47q10 10 28 11q31 0 48 -33q6 -16 6 -27q0 -23 -15.5 -50.5 t-58.5 -78.5t-86 -81.5t-137 -76.5q-2 -2 -36 -14t-38 -12q-33 -8 -57.5 -12.5t-50.5 -4.5q-84 0 -181 68q-49 35 -82 74l-41 49l-30 -29l-4 -4l-33 -47l-15 -18q-49 -53 -94 -68.5t-133 -15.5q-147 0 -218 78.5t-71 238.5zM299 258q0 -57 3 -77.5t13 -49.5t41 -29 q25 0 50 19l20 22l31 39l18 27l33 45l12 18l33 64q18 47 27 100l4 31l8 59l4 25l8 55l4 29l8 41q4 31 -30.5 58.5t-79.5 19.5q-47 -8 -84 -51.5t-68 -131.5l-8 -20l-14 -41l-15 -45l-4 -14q-4 -16 -6 -31q-8 -51 -8 -119v-25v-18zM831 451q29 0 52.5 6t52.5 18 q43 23 75 53.5t46 65.5q18 53 18 84q0 12 -5 38.5t-32.5 45t-60.5 10.5q-49 -14 -84 -73.5t-55 -188.5z" />
<glyph unicode="&#xe7;" horiz-adv-x="825" d="M61 442l7 56l4 28l12 76q14 86 25.5 119t37.5 67q66 80 100 106t81 26h24q18 -4 29 -5l57 -8q33 -8 71 -25.5t69 -43.5q76 -61 98 -127t33.5 -105t11.5 -121q0 -135 -103 -135q-37 0 -88 23q-27 12 -41 34.5t-18 63.5l-10 78v10q-6 66 -6 100q0 18 3 42t5 38 q-16 10 -33 11q-43 0 -68 -68l-24 -70l-6 -16q-20 -70 -26.5 -112t-6.5 -105v-27q0 -141 23.5 -193.5t89.5 -52.5q43 0 108 19l60 14l55 23l35 16l100 47l6 2q74 49 94 68q10 6 21 6q27 0 37 -27q4 -12 4 -20q0 -25 -29 -61.5t-92 -88.5q-25 -18 -35 -24q-14 -8 -43 -25 q-139 -78 -239 -78h-27q-18 4 -27 5l-106 -242q-18 -41 -60 -41q-35 -4 -64.5 21.5t-29.5 66.5q0 45 15 74l79 168q-59 23 -95.5 53.5t-67.5 81.5q-29 43 -39.5 108.5t-10.5 169.5z" />
<glyph unicode="&#xe8;" horiz-adv-x="813" d="M59 373v24q0 72 9.5 158t22.5 138t40 102l21 36q37 55 66.5 78t72.5 23q29 0 76 -10q14 -4 65 -17l55 -20q106 -51 152.5 -85t69 -83t22.5 -96q0 -76 -57 -142q-16 -20 -27 -30q-10 -8 -20 -17q-63 -47 -86 -57t-97 -29l-71 -16l-8 -2q-18 -2 -35.5 -3t-46.5 -1l-7 -45 q0 -90 24 -124t91 -34q29 0 70 6l22 4l13 4l43 19l43 16l8 4l6 4l45 25q41 25 66.5 43t40.5 33l28 30l43 47q10 10 29 11q31 0 47 -33q6 -16 6 -29q0 -39 -72 -125q-45 -55 -86 -83.5t-139 -76.5q-39 -18 -73.5 -26t-57 -12.5t-49.5 -4.5q-41 0 -83 15.5t-120 56.5 q-139 76 -153 221l-5 29l-2 35zM88 1182q0 57 53 80q16 8 39 8q17 0 33 -6l221 -88q35 -12 51 -50q6 -18 7 -34q0 -59 -54 -82q-16 -6 -35 -6q-16 0 -34 6l-222 88q-33 12 -51 47q-8 16 -8 37zM293 451q29 0 52.5 6t51.5 18q43 23 75 53.5t46 65.5q18 55 19 88q0 18 -2 29 q-8 33 -36 51t-61 10q-47 -14 -80 -70q-39 -66 -59 -192z" />
<glyph unicode="&#xe9;" horiz-adv-x="813" d="M59 373v24q0 72 9.5 158t22.5 138t40 102l21 36q37 55 66.5 78t72.5 23q29 0 76 -10q14 -4 65 -17l55 -20q106 -51 152.5 -85t69 -83t22.5 -96q0 -76 -57 -142q-16 -20 -27 -30q-10 -8 -20 -17q-63 -47 -86 -57t-97 -29l-71 -16l-8 -2q-18 -2 -35.5 -3t-46.5 -1l-7 -45 q0 -90 24 -124t91 -34q29 0 70 6l22 4l13 4l43 19l43 16l8 4l6 4l45 25q41 25 66.5 43t40.5 33l28 30l43 47q10 10 29 11q31 0 47 -33q6 -16 6 -29q0 -39 -72 -125q-45 -55 -86 -83.5t-139 -76.5q-39 -18 -73.5 -26t-57 -12.5t-49.5 -4.5q-41 0 -83 15.5t-120 56.5 q-139 76 -153 221l-5 29l-2 35zM293 451q29 0 52.5 6t51.5 18q43 23 75 53.5t46 65.5q18 55 19 88q0 18 -2 29q-8 33 -36 51t-61 10q-47 -14 -80 -70q-39 -66 -59 -192zM385 1092q0 20 8 36q16 36 51 48l222 88q18 6 34 6q18 0 35 -6q53 -23 53 -84q0 -16 -6 -33 q-16 -37 -51 -49l-221 -86q-14 -8 -35 -8q-20 0 -37 8q-53 23 -53 80z" />
<glyph unicode="&#xea;" horiz-adv-x="813" d="M59 373v24q0 72 9.5 158t22.5 138t40 102l21 36q37 55 66.5 78t72.5 23q29 0 76 -10q14 -4 65 -17l55 -20q106 -51 152.5 -85t69 -83t22.5 -96q0 -76 -57 -142q-16 -20 -27 -30q-10 -8 -20 -17q-63 -47 -86 -57t-97 -29l-71 -16l-8 -2q-18 -2 -35.5 -3t-46.5 -1l-7 -45 q0 -90 24 -124t91 -34q29 0 70 6l22 4l13 4l43 19l43 16l8 4l6 4l45 25q41 25 66.5 43t40.5 33l28 30l43 47q10 10 29 11q31 0 47 -33q6 -16 6 -29q0 -39 -72 -125q-45 -55 -86 -83.5t-139 -76.5q-39 -18 -73.5 -26t-57 -12.5t-49.5 -4.5q-41 0 -83 15.5t-120 56.5 q-139 76 -153 221l-5 29l-2 35zM176 1096q0 16 6 34q14 34 49 48l162 65q35 12 47 12t47 -12l160 -63q55 -23 55 -84q0 -18 -8 -35q-23 -55 -84 -55q-16 0 -32 6l-140 55l-139 -55q-16 -6 -33 -6q-18 0 -35 6q-55 23 -55 84zM293 451q29 0 52.5 6t51.5 18q43 23 75 53.5 t46 65.5q18 55 19 88q0 18 -2 29q-8 33 -36 51t-61 10q-47 -14 -80 -70q-39 -66 -59 -192z" />
<glyph unicode="&#xeb;" horiz-adv-x="813" d="M59 373v24q0 72 9.5 158t22.5 138t40 102l21 36q37 55 66.5 78t72.5 23q29 0 76 -10q14 -4 65 -17l55 -20q106 -51 152.5 -85t69 -83t22.5 -96q0 -76 -57 -142q-16 -20 -27 -30q-10 -8 -20 -17q-63 -47 -86 -57t-97 -29l-71 -16l-8 -2q-18 -2 -35.5 -3t-46.5 -1l-7 -45 q0 -90 24 -124t91 -34q29 0 70 6l22 4l13 4l43 19l43 16l8 4l6 4l45 25q41 25 66.5 43t40.5 33l28 30l43 47q10 10 29 11q31 0 47 -33q6 -16 6 -29q0 -39 -72 -125q-45 -55 -86 -83.5t-139 -76.5q-39 -18 -73.5 -26t-57 -12.5t-49.5 -4.5q-41 0 -83 15.5t-120 56.5 q-139 76 -153 221l-5 29l-2 35zM131 1141q10 41 64 78q66 43 100 43q49 0 76 -97l12 -55q0 -35 -35 -69.5t-86 -34.5q-94 0 -125 71q-12 35 -6 64zM293 451q29 0 52.5 6t51.5 18q43 23 75 53.5t46 65.5q18 55 19 88q0 18 -2 29q-8 33 -36 51t-61 10q-47 -14 -80 -70 q-39 -66 -59 -192zM498 1141q6 41 65.5 81t95.5 40q53 0 76 -97l15 -55q0 -35 -35 -69.5t-86 -34.5q-94 0 -125 71q-12 35 -6 64z" />
<glyph unicode="&#xec;" horiz-adv-x="499" d="M-63 1182q0 57 53 80q16 8 39 8q16 0 32 -6l222 -88q35 -12 51 -50q6 -18 6 -34q0 -59 -53 -82q-16 -6 -35 -6q-16 0 -35 6l-221 88q-35 12 -51 47q-8 16 -8 37zM119 322v59l2 16l6 74v14l2 62l10 78q8 66 26.5 91t55.5 31.5t62 6.5q41 0 62.5 -10.5t27.5 -24.5l-13 -74 l-6 -76l-2 -43l-10 -104l-4 -146l6 -114q0 -29 19.5 -43.5t39.5 -5.5l84 39l7 4l92 39l55 18q8 2 14 0q14 -6 21 -23q8 -20 -3 -43.5t-55 -62.5l-65 -61q-70 -45 -176 -46q-113 0 -182.5 61.5t-69.5 166.5l-2 10l2 45z" />
<glyph unicode="&#xed;" horiz-adv-x="499" d="M119 322v59l2 16l6 74v14l2 62l10 78q8 66 26.5 91t55.5 31.5t62 6.5q41 0 62.5 -10.5t27.5 -24.5l-13 -74l-6 -76l-2 -43l-10 -104l-4 -146l6 -114q0 -29 19.5 -43.5t39.5 -5.5l84 39l7 4l92 39l55 18q8 2 14 0q14 -6 21 -23q8 -20 -3 -43.5t-55 -62.5l-65 -61 q-70 -45 -176 -46q-113 0 -182.5 61.5t-69.5 166.5l-2 10l2 45zM233 1092q0 20 9 36q16 36 51 48l221 88q18 6 35 6q18 0 35 -6q53 -23 53 -84q0 -16 -6 -33q-16 -37 -51 -49l-222 -86q-14 -8 -34 -8t-37 8q-53 23 -54 80z" />
<glyph unicode="&#xee;" horiz-adv-x="499" d="M25 1096q0 16 6 34q14 34 49 48l162 65q35 12 47 12t47 -12l160 -63q55 -23 55 -84q0 -18 -8 -35q-23 -55 -84 -55q-16 0 -33 6l-139 55l-140 -55q-16 -6 -32 -6q-18 0 -35 6q-55 23 -55 84zM119 322v59l2 16l6 74v14l2 62l10 78q8 66 26.5 91t55.5 31.5t62 6.5 q41 0 62.5 -10.5t27.5 -24.5l-13 -74l-6 -76l-2 -43l-10 -104l-4 -146l6 -114q0 -29 19.5 -43.5t39.5 -5.5l84 39l7 4l92 39l55 18q8 2 14 0q14 -6 21 -23q8 -20 -3 -43.5t-55 -62.5l-65 -61q-70 -45 -176 -46q-113 0 -182.5 61.5t-69.5 166.5l-2 10l2 45z" />
<glyph unicode="&#xef;" horiz-adv-x="499" d="M-20 1141q10 41 63 78q66 43 100 43q49 0 76 -97l12 -55q0 -35 -34.5 -69.5t-85.5 -34.5q-94 0 -125 71q-12 35 -6 64zM119 322v59l2 16l6 74v14l2 62l10 78q8 66 26.5 91t55.5 31.5t62 6.5q41 0 62.5 -10.5t27.5 -24.5l-13 -74l-6 -76l-2 -43l-10 -104l-4 -146l6 -114 q0 -29 19.5 -43.5t39.5 -5.5l84 39l7 4l92 39l55 18q8 2 14 0q14 -6 21 -23q8 -20 -3 -43.5t-55 -62.5l-65 -61q-70 -45 -176 -46q-113 0 -182.5 61.5t-69.5 166.5l-2 10l2 45zM346 1141q6 41 65.5 81t96.5 40q53 0 76 -97l14 -55q0 -35 -35 -69.5t-86 -34.5q-94 0 -125 71 q-12 35 -6 64z" />
<glyph unicode="&#xf0;" horiz-adv-x="847" d="M-408 1405q2 6 7 12q10 16 32 45l45 51l5 5q27 29 61 28q39 0 80 -41q43 -49 67.5 -68.5t65.5 -43.5l86 65q31 27 51.5 40t32.5 18q18 8 32.5 -0.5t18.5 -28.5q4 -16 -14 -68q-6 -12 -23 -39q-23 -37 -43 -65l-18 -25l31 -30l12 -13l45 -41l4 -4l16 -16l7 -8l77 -68 q51 -43 185 -174q127 -125 163 -166l50 -31q27 -14 60.5 -73.5t43.5 -126.5l6 -43q4 -14 6 -36t2 -38q0 -47 -12 -88q-2 -6 -6 -17l-8 -32q-18 -80 -26.5 -105.5t-24.5 -56.5q-47 -80 -112 -111.5t-171 -31.5q-47 0 -96 16q-92 27 -142.5 79t-95.5 161l-22 53l-9 86l-2 57 q0 68 13 127l16 53l16 52l2 12l41 72l37 59l39 33l-135 133l-53 47l-33 31l-41 34l-45 39l-76 -49l-61 -47l-51 -37q-16 -10 -35 3.5t-23 41t-4 39.5q0 43 25 68q35 31 49 49t31 51l-60 57q-35 35 -45 43t-18 11l-35 4q-10 2 -17.5 18.5t-3.5 28.5zM281 377 q0 -154 42 -215.5t97 -61.5q47 0 88 52q14 14 51 102l12 37q10 33 15 45q12 37 12 55q0 29 -37 84l-35 55q-8 12 -17 33t-11 27l-2 6l-4 22l-9 93q-18 10 -43 10q-33 0 -60.5 -34t-60.5 -116q-14 -33 -24 -86q-6 -33 -10 -57.5t-4 -50.5z" />
<glyph unicode="&#xf1;" horiz-adv-x="987" d="M119 129v14l6 50v88v8l10 170l4 143l2 21l6 114q0 98 24 131t83 33q63 0 89 -15.5t26 -49.5q0 -16 -7 -41l-10 -60q-2 -12 -2 -24v-25v-53l41 65q90 139 164 140q41 0 133 -33q14 -6 28.5 -12.5t35.5 -20.5q70 -49 96 -98t26 -131v-35q-4 -27 -4 -41l-4 -21 q-12 -72 -12 -143q0 -61 19.5 -89t52.5 -24q16 4 31.5 8.5t35.5 16.5l15 6l36 21l35 16q45 10 56 -37q8 -39 -25 -75.5t-127 -79.5q-37 -18 -82 -19q-121 0 -178 39t-80 137l-6 51l4 127l4 68l2 43v35q0 57 -4 74.5t-29 44.5q-47 0 -71.5 -24t-57.5 -99l-43 -97l-32 -100 l-11 -41l-18 -63q-12 -47 -17.5 -68.5t-5.5 -38.5q-20 -145 -84 -145q-31 0 -102 33q-33 16 -43 36.5t-10 69.5zM369 1092q0 31 51 63.5t96 32.5q63 -27 115.5 -48.5t81.5 -21.5q35 0 67 37q16 18 43 19q23 0 31 -12.5t8 -35.5q0 -70 -53 -100q-39 -23 -96 -22 q-41 0 -104.5 25.5t-84.5 25.5q-49 0 -69 -27q-10 -12 -25 -12q-23 0 -37 12q-25 20 -24 64z" />
<glyph unicode="&#xf2;" horiz-adv-x="917" d="M59 432q0 68 13 127l16 53l16 52l2 12l41 72l37 59l54 45l32 27l4 4q25 20 52.5 24t44.5 4q82 0 188 -88l27 -24l22 -21l60 -39q27 -14 60.5 -73.5t43.5 -126.5l6 -43q57 -6 90 63l4 8l19 51l2 7l22 49l27 61q8 16 31 25q53 14 63 -47q2 -8 2 -27q0 -27 -18 -84l-31 -80 q-49 -104 -99 -150t-122 -55l-8 -32q-18 -80 -26.5 -105.5t-24.5 -56.5q-47 -80 -112 -111.5t-171 -31.5q-47 0 -96 16q-92 27 -142.5 79t-95.5 161l-22 53l-9 86zM133 1182q0 57 53 80q16 8 39 8q17 0 33 -6l221 -88q35 -12 51 -50q6 -18 7 -34q0 -59 -54 -82 q-16 -6 -34 -6q-16 0 -35 6l-221 88q-33 12 -52 47q-8 16 -8 37zM281 377q0 -154 42 -215.5t97 -61.5q47 0 88 52q14 14 51 102l12 37q10 33 15 45q12 37 12 55q0 29 -37 84l-35 55q-8 12 -17 33t-11 27l-2 6l-4 22l-9 93q-18 10 -43 10q-33 0 -60.5 -34t-60.5 -116 q-14 -33 -24 -86q-6 -33 -10 -57.5t-4 -50.5z" />
<glyph unicode="&#xf3;" horiz-adv-x="917" d="M59 432q0 68 13 127l16 53l16 52l2 12l41 72l37 59l54 45l32 27l4 4q25 20 52.5 24t44.5 4q82 0 188 -88l27 -24l22 -21l60 -39q27 -14 60.5 -73.5t43.5 -126.5l6 -43q57 -6 90 63l4 8l19 51l2 7l22 49l27 61q8 16 31 25q53 14 63 -47q2 -8 2 -27q0 -27 -18 -84l-31 -80 q-49 -104 -99 -150t-122 -55l-8 -32q-18 -80 -26.5 -105.5t-24.5 -56.5q-47 -80 -112 -111.5t-171 -31.5q-47 0 -96 16q-92 27 -142.5 79t-95.5 161l-22 53l-9 86zM281 377q0 -154 42 -215.5t97 -61.5q47 0 88 52q14 14 51 102l12 37q10 33 15 45q12 37 12 55q0 29 -37 84 l-35 55q-8 12 -17 33t-11 27l-2 6l-4 22l-9 93q-18 10 -43 10q-33 0 -60.5 -34t-60.5 -116q-14 -33 -24 -86q-6 -33 -10 -57.5t-4 -50.5zM430 1092q0 20 8 36q16 36 51 48l222 88q18 6 34 6q18 0 35 -6q53 -23 54 -84q0 -16 -7 -33q-16 -37 -51 -49l-221 -86q-14 -8 -35 -8 q-20 0 -37 8q-53 23 -53 80z" />
<glyph unicode="&#xf4;" horiz-adv-x="917" d="M59 432q0 68 13 127l16 53l16 52l2 12l41 72l37 59l54 45l32 27l4 4q25 20 52.5 24t44.5 4q82 0 188 -88l27 -24l22 -21l60 -39q27 -14 60.5 -73.5t43.5 -126.5l6 -43q57 -6 90 63l4 8l19 51l2 7l22 49l27 61q8 16 31 25q53 14 63 -47q2 -8 2 -27q0 -27 -18 -84l-31 -80 q-49 -104 -99 -150t-122 -55l-8 -32q-18 -80 -26.5 -105.5t-24.5 -56.5q-47 -80 -112 -111.5t-171 -31.5q-47 0 -96 16q-92 27 -142.5 79t-95.5 161l-22 53l-9 86zM180 1096q0 16 6 34q15 34 50 48l161 65q35 12 47 12t48 -12l159 -63q55 -23 56 -84q0 -18 -9 -35 q-23 -55 -84 -55q-16 0 -32 6l-140 55l-139 -55q-16 -6 -33 -6q-18 0 -34 6q-55 23 -56 84zM281 377q0 -154 42 -215.5t97 -61.5q47 0 88 52q14 14 51 102l12 37q10 33 15 45q12 37 12 55q0 29 -37 84l-35 55q-8 12 -17 33t-11 27l-2 6l-4 22l-9 93q-18 10 -43 10 q-33 0 -60.5 -34t-60.5 -116q-14 -33 -24 -86q-6 -33 -10 -57.5t-4 -50.5z" />
<glyph unicode="&#xf5;" horiz-adv-x="917" d="M59 432q0 68 13 127l16 53l16 52l2 12l41 72l37 59l54 45l32 27l4 4q25 20 52.5 24t44.5 4q82 0 188 -88l27 -24l22 -21l60 -39q27 -14 60.5 -73.5t43.5 -126.5l6 -43q57 -6 90 63l4 8l19 51l2 7l22 49l27 61q8 16 31 25q53 14 63 -47q2 -8 2 -27q0 -27 -18 -84l-31 -80 q-49 -104 -99 -150t-122 -55l-8 -32q-18 -80 -26.5 -105.5t-24.5 -56.5q-47 -80 -112 -111.5t-171 -31.5q-47 0 -96 16q-92 27 -142.5 79t-95.5 161l-22 53l-9 86zM238 1092q0 31 51 63.5t96 32.5q63 -27 115.5 -48.5t81.5 -21.5q35 0 67 37q16 18 43 19q23 0 31 -12.5 t8 -35.5q0 -70 -53 -100q-39 -23 -96 -22q-41 0 -104.5 25.5t-84.5 25.5q-49 0 -69 -27q-10 -12 -25 -12q-23 0 -37 12q-25 20 -24 64zM281 377q0 -154 42 -215.5t97 -61.5q47 0 88 52q14 14 51 102l12 37q10 33 15 45q12 37 12 55q0 29 -37 84l-35 55q-8 12 -17 33t-11 27 l-2 6l-4 22l-9 93q-18 10 -43 10q-33 0 -60.5 -34t-60.5 -116q-14 -33 -24 -86q-6 -33 -10 -57.5t-4 -50.5z" />
<glyph unicode="&#xf6;" horiz-adv-x="948" d="M59 432q0 68 13 127l16 53l16 52l2 12l41 72l37 59l54 45l32 27l4 4q25 20 52.5 24t44.5 4q82 0 188 -88l27 -24l22 -21l60 -39q27 -14 60.5 -73.5t43.5 -126.5l6 -43q57 -6 90 63l4 8l19 51l2 7l22 49l27 61q8 16 31 25q53 14 63 -47q2 -8 2 -27q0 -27 -18 -84l-31 -80 q-49 -104 -99 -150t-122 -55l-8 -32q-18 -80 -26.5 -105.5t-24.5 -56.5q-47 -80 -112 -111.5t-171 -31.5q-47 0 -96 16q-92 27 -142.5 79t-95.5 161l-22 53l-9 86zM176 1141q10 41 64 78q66 43 100 43q49 0 76 -97l12 -55q0 -35 -35 -69.5t-86 -34.5q-94 0 -125 71 q-12 35 -6 64zM281 377q0 -154 42 -215.5t97 -61.5q47 0 88 52q14 14 51 102l12 37q10 33 15 45q12 37 12 55q0 29 -37 84l-35 55q-8 12 -17 33t-11 27l-2 6l-4 22l-9 93q-18 10 -43 10q-33 0 -60.5 -34t-60.5 -116q-14 -33 -24 -86q-6 -33 -10 -57.5t-4 -50.5zM543 1141 q6 41 65.5 81t96.5 40q53 0 75 -97l15 -55q0 -35 -35 -69.5t-86 -34.5q-94 0 -125 71q-12 35 -6 64z" />
<glyph unicode="&#xf8;" horiz-adv-x="968" d="M57 43q-4 20 20.5 45t86.5 59q13 6 33 43l-9 27l-8 19l-12 34l-8 19q-4 8 -6 27.5t-2 58.5l-2 57q0 68 12 127l16 53l17 52l2 12l41 72l36 59l54 45l30 27l7 4q20 20 49.5 24t46.5 4q84 0 186 -88l29 -24l22 -21l58 -39q27 -12 55 -63l72 47l59 33q31 18 51.5 22t34.5 -2 q33 -12 25 -45q-4 -14 -13 -22q-8 -6 -41 -25l-26 -14q-41 -16 -64 -31q-10 -6 -53 -39q12 -74 12 -143v-35q-2 -14 -2 -21q-20 -233 -108 -331q-80 -90 -242 -90q-47 0 -96 16q-123 39 -182 129l-50 -49l-45 -37q-27 -20 -55 -25q-27 0 -31 29zM313 481q-2 -14 3.5 -37.5 t25.5 -87.5l8 -26q37 16 51 24q8 4 25 19l57 57q10 8 23 16l8 7l45 28l90 62q-27 4 -47 22l-20 29q-16 25 -29 47q8 23 8 41q0 23 -20 41l-15 12q-23 12 -43 13q-49 0 -102 -66q-18 -23 -26.5 -36t-10.5 -21q0 -20 -5 -42t-7 -30zM387 233q0 -35 23 -67q47 -66 100 -66 q47 1 88 52q8 10 20.5 34.5t28.5 67.5q39 98 39 139q0 29 -16 58l-101 -82l-59 -43l-49 -37l-31 -23z" />
<glyph unicode="&#xf9;" horiz-adv-x="972" d="M121 350v201l2 24l14 109l6 86q0 76 15.5 102.5t70.5 26.5q12 0 31 -2t29 -2q74 -8 84 -43l-15 -86l-8 -90l-6 -53l-2 -33l-4 -125v-88v-37l2 -35l2 -59q0 -47 5.5 -68.5t23.5 -62.5q37 33 63 69l12 19l13 18l45 92l4 9l33 86l20 51l19 47q10 20 16 42.5t14 72.5 q18 115 44 144.5t112 29.5q76 0 86 -35t10 -53q0 -16 -12 -58q-2 -4 -23 -71l-6 -129l-2 -119v-11l12 -79l17 -54q16 -37 49 -36q18 0 37 12l47 39l25 22q39 29 54 37t32 8q33 4 43 -32q4 -20 -8.5 -43t-49.5 -54l-55 -45l-6 -8q-90 -72 -170 -72q-31 0 -73 14.5t-67.5 43 t-66.5 110.5l-18 35l-17 -43q-51 -113 -86 -149.5t-90 -36.5q-14 2 -22 2l-48 4l-34 4q-115 14 -156 78q-47 72 -47 274zM154 1182q0 57 53 80q16 8 39 8q17 0 33 -6l221 -88q35 -12 51 -50q6 -18 6 -34q0 -59 -53 -82q-16 -6 -35 -6q-16 0 -35 6l-221 88q-33 12 -51 47 q-8 16 -8 37z" />
<glyph unicode="&#xfa;" horiz-adv-x="972" d="M121 350v201l2 24l14 109l6 86q0 76 15.5 102.5t70.5 26.5q12 0 31 -2t29 -2q74 -8 84 -43l-15 -86l-8 -90l-6 -53l-2 -33l-4 -125v-88v-37l2 -35l2 -59q0 -47 5.5 -68.5t23.5 -62.5q37 33 63 69l12 19l13 18l45 92l4 9l33 86l20 51l19 47q10 20 16 42.5t14 72.5 q18 115 44 144.5t112 29.5q76 0 86 -35t10 -53q0 -16 -12 -58q-2 -4 -23 -71l-6 -129l-2 -119v-11l12 -79l17 -54q16 -37 49 -36q18 0 37 12l47 39l25 22q39 29 54 37t32 8q33 4 43 -32q4 -20 -8.5 -43t-49.5 -54l-55 -45l-6 -8q-90 -72 -170 -72q-31 0 -73 14.5t-67.5 43 t-66.5 110.5l-18 35l-17 -43q-51 -113 -86 -149.5t-90 -36.5q-14 2 -22 2l-48 4l-34 4q-115 14 -156 78q-47 72 -47 274zM451 1092q0 20 8 36q16 36 51 48l221 88q18 6 35 6q18 0 35 -6q53 -23 53 -84q0 -16 -6 -33q-16 -37 -51 -49l-222 -86q-14 -8 -34 -8t-37 8 q-53 23 -53 80z" />
<glyph unicode="&#xfb;" horiz-adv-x="972" d="M121 350v201l2 24l14 109l6 86q0 76 15.5 102.5t70.5 26.5q12 0 31 -2t29 -2q74 -8 84 -43l-15 -86l-8 -90l-6 -53l-2 -33l-4 -125v-88v-37l2 -35l2 -59q0 -47 5.5 -68.5t23.5 -62.5q37 33 63 69l12 19l13 18l45 92l4 9l33 86l20 51l19 47q10 20 16 42.5t14 72.5 q18 115 44 144.5t112 29.5q76 0 86 -35t10 -53q0 -16 -12 -58q-2 -4 -23 -71l-6 -129l-2 -119v-11l12 -79l17 -54q16 -37 49 -36q18 0 37 12l47 39l25 22q39 29 54 37t32 8q33 4 43 -32q4 -20 -8.5 -43t-49.5 -54l-55 -45l-6 -8q-90 -72 -170 -72q-31 0 -73 14.5t-67.5 43 t-66.5 110.5l-18 35l-17 -43q-51 -113 -86 -149.5t-90 -36.5q-14 2 -22 2l-48 4l-34 4q-115 14 -156 78q-47 72 -47 274zM262 1096q0 16 6 34q14 34 49 48l162 65q35 12 47 12t47 -12l160 -63q55 -23 55 -84q0 -18 -8 -35q-23 -55 -84 -55q-16 0 -32 6l-140 55l-139 -55 q-16 -6 -33 -6q-18 0 -35 6q-55 23 -55 84z" />
<glyph unicode="&#xfc;" horiz-adv-x="972" d="M121 350v201l2 24l14 109l6 86q0 76 15.5 102.5t70.5 26.5q12 0 31 -2t29 -2q74 -8 84 -43l-15 -86l-8 -90l-6 -53l-2 -33l-4 -125v-88v-37l2 -35l2 -59q0 -47 5.5 -68.5t23.5 -62.5q37 33 63 69l12 19l13 18l45 92l4 9l33 86l20 51l19 47q10 20 16 42.5t14 72.5 q18 115 44 144.5t112 29.5q76 0 86 -35t10 -53q0 -16 -12 -58q-2 -4 -23 -71l-6 -129l-2 -119v-11l12 -79l17 -54q16 -37 49 -36q18 0 37 12l47 39l25 22q39 29 54 37t32 8q33 4 43 -32q4 -20 -8.5 -43t-49.5 -54l-55 -45l-6 -8q-90 -72 -170 -72q-31 0 -73 14.5t-67.5 43 t-66.5 110.5l-18 35l-17 -43q-51 -113 -86 -149.5t-90 -36.5q-14 2 -22 2l-48 4l-34 4q-115 14 -156 78q-47 72 -47 274zM217 1141q10 41 64 78q66 43 100 43q49 0 76 -97l12 -55q0 -35 -35 -69.5t-86 -34.5q-94 0 -125 71q-12 35 -6 64zM584 1141q6 41 65.5 81t95.5 40 q53 0 76 -97l15 -55q0 -35 -35 -69.5t-86 -34.5q-94 0 -125 71q-12 35 -6 64z" />
<glyph unicode="&#xfd;" horiz-adv-x="976" d="M119 541q0 106 7 152t26.5 108.5t76.5 62.5q45 0 107 -43q20 -14 28.5 -35.5t8.5 -31.5t-19 -72v-70l-4 -63l-2 -23l-2 -43v-37v-49l2 -24l2 -60q0 -41 6 -65.5t27 -24.5q10 0 16 4q31 18 64 88l35 72l10 25q14 27 24.5 55.5t14.5 42.5l10 41l37 117q10 37 16 63.5 t11 56.5q12 98 24 130t53 32q27 0 79 -14t57 -16q25 -10 24 -39v-19q-4 -16 -4 -24l-10 -80l-6 -41l-9 -123l-4 -78v-41l-2 -41l-2 -65v-19l-4 -90l-4 -108l-12 -89l4 -81v-82v-19l-10 -63l-4 -111q0 -20 -11.5 -44.5t-36 -54.5t-70.5 -50.5t-120 -28.5l-37 -2q-39 0 -79 9 t-83 30q-115 55 -158.5 92t-70.5 96q31 12 63 13q41 0 121 -35l41 -21l53 -30l31 -19q43 -25 76 -24q53 0 61 69l13 74l2 14l12 123v12l8 136l6 67l9 123l-27 -39q-25 -29 -53 -59q-43 -43 -72 -62q-53 -33 -117 -33q-72 0 -127 37t-71 101q-6 16 -11 51l-12 82 q-8 76 -10 118t-2 89zM444 1092q0 20 9 36q16 36 51 48l221 88q18 6 35 6q18 0 35 -6q53 -23 53 -84q0 -16 -6 -33q-16 -37 -51 -49l-222 -86q-14 -8 -34 -8t-37 8q-53 23 -54 80z" />
<glyph unicode="&#xfe;" horiz-adv-x="954" d="M119 111l4 59l2 23l-4 47l6 90l6 73l2 15v8l-4 82l2 12l4 84l6 80l2 35l2 18l3 94l2 9l10 104q2 8 2 14v11v26q0 12 4 21l2 51v33l2 8l6 53l2 6l2 84l8 88l7 113q0 117 22.5 151.5t91.5 34.5h23q92 0 104 -59l-12 -51l-10 -207l-19 -279q6 -12 0 -50t-6 -54l-4 -90 l-14 -88q31 18 50 34.5t48 45.5l25 24q4 4 18 10q31 12 80 13q18 0 34.5 -1t30.5 -3q74 -10 125 -52q109 -82 109 -329l-19 -109q-16 -66 -30.5 -98.5t-36.5 -65.5q-49 -68 -94 -92t-140 -35q-12 -2 -38 -2q-61 0 -134 25l-43 16l-12 -71v-76v-33l-4 -141l2 -166v-51v-115 l-37 -16q-61 -20 -106 -21q-59 0 -76 43l2 76l-6 68v69l-2 133v271zM377 344q6 -51 47 -82q53 -35 92 -35q82 0 127 154q14 45 14 125v61v23l-6 86q0 14 -7 38.5t-30 24.5q-16 0 -39 -16q-39 -31 -61 -64.5t-84 -160.5q-33 -70 -53 -154z" />
<glyph unicode="&#xff;" horiz-adv-x="976" d="M119 541q0 106 7 152t26.5 108.5t76.5 62.5q45 0 107 -43q20 -14 28.5 -35.5t8.5 -31.5t-19 -72v-70l-4 -63l-2 -23l-2 -43v-37v-49l2 -24l2 -60q0 -41 6 -65.5t27 -24.5q10 0 16 4q31 18 64 88l35 72l10 25q14 27 24.5 55.5t14.5 42.5l10 41l37 117q10 37 16 63.5 t11 56.5q12 98 24 130t53 32q27 0 79 -14t57 -16q25 -10 24 -39v-19q-4 -16 -4 -24l-10 -80l-6 -41l-9 -123l-4 -78v-41l-2 -41l-2 -65v-19l-4 -90l-4 -108l-12 -89l4 -81v-82v-19l-10 -63l-4 -111q0 -20 -11.5 -44.5t-36 -54.5t-70.5 -50.5t-120 -28.5l-37 -2q-39 0 -79 9 t-83 30q-115 55 -158.5 92t-70.5 96q31 12 63 13q41 0 121 -35l41 -21l53 -30l31 -19q43 -25 76 -24q53 0 61 69l13 74l2 14l12 123v12l8 136l6 67l9 123l-27 -39q-25 -29 -53 -59q-43 -43 -72 -62q-53 -33 -117 -33q-72 0 -127 37t-71 101q-6 16 -11 51l-12 82 q-8 76 -10 118t-2 89zM211 1141q10 41 63 78q66 43 101 43q49 0 76 -97l12 -55q0 -35 -35 -69.5t-86 -34.5q-94 0 -125 71q-12 35 -6 64zM578 1141q6 41 65 81t96 40q53 0 76 -97l14 -55q0 -35 -34.5 -69.5t-85.5 -34.5q-94 0 -125 71q-12 35 -6 64z" />
<glyph unicode="&#x152;" horiz-adv-x="2400" d="M61 651q0 100 9.5 183.5t33.5 169.5l19 55l10 26l33 80q33 80 49 110t51 71q53 61 115 98q121 70 227 69q61 0 109 -20l12 -4l41 -23l55 -18l80 -47l82 -41q111 -54 174 -109q70 82 197 133l55 25l57 23q125 53 159 62t161 26l37 4l102 12q16 2 31.5 2h24.5q96 0 167 -47 q106 -72 107 -184q0 -18 -2 -27q-8 -68 -41 -102.5t-82 -34.5q-18 0 -49 8t-62.5 42t-42.5 87l-6 51q-12 2 -22 2h-25q-35 0 -73.5 -7t-129.5 -34l-108 -37q-139 -57 -192.5 -87.5t-81 -66.5t-27.5 -79q0 -70 63 -90q27 -8 61 -12.5t70 -4.5h39l54 3l79 4l66 2l51 2h10h101 h26q63 0 82 6l45 12q8 4 19.5 -14.5t21.5 -42.5l13 -35l2 -10q0 -90 -15.5 -104.5t-107.5 -14.5h-85t-91 -6l-56 -6q-207 -37 -275.5 -72t-143 -143.5t-74.5 -163.5q0 -45 40 -94.5t69.5 -53.5t103.5 -4l145 13l10 2l111 18l35 6l74 21l67 16l43 12q74 20 172 66l82 41 l76 45q16 8 24 8q20 0 45 -25q18 -18 19 -43q0 -53 -90 -114l-88 -60l-15 -8q-27 -14 -49 -25.5t-63 -29.5l-62 -29l-14 -6l-8 -4l-72 -23l-82 -28l-78 -15l-10 -2l-65 -16q-20 -4 -58.5 -10t-70.5 -6q-53 0 -97.5 4t-87.5 18q-82 23 -130 54.5t-85 84.5q-41 -57 -97 -91 t-157 -56l-63 -12q-74 -12 -127 -13q-121 0 -293 97l-41 26l-21 13l-53 36q-39 27 -78 48q-10 6 -26 28q-25 33 -64 101.5t-59.5 145.5t-20.5 183zM322 551q0 -37 2 -59.5t16 -75.5q35 -117 94 -180q111 -121 252 -121q96 0 192.5 63.5t176.5 194.5q27 43 47 94t37.5 127 t17.5 151v27q0 14 -4 43q-23 203 -127 340q-96 127 -219 150q-43 8 -51 8q-16 2 -49 2q-121 0 -197 -82t-143 -289q-18 -59 -29.5 -122.5t-11.5 -155.5z" />
<glyph unicode="&#x153;" horiz-adv-x="1341" d="M59 432q0 68 13 127l16 53l16 52l2 12l41 72l37 59l54 45l32 27l4 4q16 14 30.5 20t43.5 6q14 2 23 2q49 0 98 -25.5t125 -92.5q8 -10 20.5 -22.5t26.5 -37.5q8 49 42 101.5t63.5 75t72.5 22.5q41 0 142 -27q35 -10 45 -14q12 -6 63 -33l43 -22l27 -15q66 -35 96 -102 q25 -53 25 -101q0 -72 -56 -139q-31 -37 -47 -47q-66 -45 -89.5 -56t-94.5 -30l-70 -16l-8 -2q-18 -2 -43 -3t-41 -1l-6 -45q0 -90 25.5 -124t91.5 -34q29 0 69 6l23 4l12 4l43 19l43 16l8 4l6 4l43 25q43 25 68 42t41 34l27 30l45 47q10 10 26 11q33 0 49 -33q6 -16 7 -27 q0 -20 -16.5 -50t-58.5 -80t-84 -80.5t-138 -76.5q-2 -2 -36 -14t-38 -12q-41 -8 -60.5 -12.5t-42.5 -4.5q-41 0 -149 43q-63 27 -81.5 40.5t-27.5 43.5l-10 -12l-18 -20q-47 -53 -100.5 -72.5t-145.5 -19.5q-47 0 -96 16q-92 27 -142.5 79t-95.5 161l-22 53l-9 86zM281 377 q0 -154 42 -215.5t97 -61.5q47 0 88 52q14 14 51 102l12 37q10 33 15 45q12 37 12 55q0 29 -37 84l-35 55q-8 12 -17 33t-11 27l-2 6l-4 22l-9 93q-18 10 -43 10q-33 0 -60.5 -34t-60.5 -116q-14 -33 -24 -86q-6 -33 -10 -57.5t-4 -50.5zM821 451q31 0 53.5 5t53.5 19 q92 47 119 119q20 49 20 84q0 12 -6 38.5t-33 45t-59 10.5q-49 -14 -84 -73.5t-56 -188.5z" />
<glyph unicode="&#x178;" horiz-adv-x="1388" d="M147 637v55l3 68l4 71l2 54q0 59 1 75.5t19 159.5l8 64l9 51l2 12l16 88q18 98 46 126t114 28q41 0 84 -6t43 -39q0 -12 -19 -58q-10 -23 -19 -58.5t-16 -84.5l-6 -43l-6 -41l-8 -33l-8 -45l-15 -139l-8 -125l-2 -12v-29l-2 -108v-103v-35l2 -47q0 -76 6 -107.5t13 -56.5 l2 -6l24 -67q20 -57 43 -80t62 -23q20 0 35.5 3.5t29.5 11.5q33 20 68 69l59 84q27 35 39 56.5t16 33.5l15 35l4 8l35 84l39 97l10 32l20 64l21 61l8 33q10 39 22.5 97.5t20.5 115.5l4 33l12 84l19 112l8 84q0 66 74 66q25 0 39 -2q33 -4 67 4q20 4 34.5 -19.5t14.5 -46.5 q0 -33 -10 -77l-6 -41q-6 -43 -8 -72t-2 -98v-8l-6 -68l-4 -72v-14l-9 -86l-2 -100l-26 -457l-4 -72l-7 -155l-2 -97q0 -80 -1 -147.5t-1 -124.5v-51q4 -31 4 -43q2 -14 3 -27v-22q0 -53 -23 -72t-86 -19q-39 0 -84 23l-37 27v57v47l-2 25l-2 71v31v63l4 99v37l2 88l6 127 l4 63l7 68v104l-5 -6l-14 -31q-82 -158 -166 -230.5t-186 -72.5t-236 76q-96 55 -138 129t-60 227q-6 33 -8.5 78t-2.5 117zM483 1776q10 41 64 77q66 43 100 43q49 0 76 -96l12 -55q0 -35 -34.5 -70t-86.5 -35q-94 0 -125 72q-12 35 -6 64zM850 1776q6 41 65.5 80.5 t96.5 39.5q53 0 75 -96l15 -55q0 -35 -35 -70t-86 -35q-94 0 -125 72q-12 35 -6 64z" />
<glyph unicode="&#x2c6;" horiz-adv-x="464" d="M-31 1094q0 16 6 34q15 34 50 48l161 65q35 12 47 12t48 -12l159 -63q55 -23 56 -84q0 -18 -9 -35q-23 -55 -84 -55q-16 0 -32 6l-140 55l-139 -55q-16 -6 -33 -6q-18 0 -34 6q-55 23 -56 84z" />
<glyph unicode="&#x2dc;" horiz-adv-x="471" d="M-25 1098q0 35 24.5 61.5t59.5 26.5l351 -2q37 0 61.5 -24.5t24.5 -63.5q0 -35 -27 -59.5t-61 -24.5h-349q-35 0 -59.5 24.5t-24.5 61.5z" />
<glyph unicode="&#x2000;" horiz-adv-x="978" />
<glyph unicode="&#x2001;" horiz-adv-x="1956" />
<glyph unicode="&#x2002;" horiz-adv-x="978" />
<glyph unicode="&#x2003;" horiz-adv-x="1956" />
<glyph unicode="&#x2004;" horiz-adv-x="652" />
<glyph unicode="&#x2005;" horiz-adv-x="489" />
<glyph unicode="&#x2006;" horiz-adv-x="326" />
<glyph unicode="&#x2007;" horiz-adv-x="326" />
<glyph unicode="&#x2008;" horiz-adv-x="244" />
<glyph unicode="&#x2009;" horiz-adv-x="391" />
<glyph unicode="&#x200a;" horiz-adv-x="108" />
<glyph unicode="&#x2010;" horiz-adv-x="755" d="M45 555q4 8 25.5 13t91.5 16l28 4l48 4l59 4l65 4h44l40 2l91 -4q68 -6 97.5 -18.5t43.5 -36.5q35 -74 35 -94q0 -31 -74 -37l-104 -6l-31 -3l-80 3l-10 -3l-101 -4h-51q-61 0 -95 10.5t-58 32.5l-39 54q-18 23 -23.5 38t-1.5 21z" />
<glyph unicode="&#x2011;" horiz-adv-x="755" d="M45 555q4 8 25.5 13t91.5 16l28 4l48 4l59 4l65 4h44l40 2l91 -4q68 -6 97.5 -18.5t43.5 -36.5q35 -74 35 -94q0 -31 -74 -37l-104 -6l-31 -3l-80 3l-10 -3l-101 -4h-51q-61 0 -95 10.5t-58 32.5l-39 54q-18 23 -23.5 38t-1.5 21z" />
<glyph unicode="&#x2012;" horiz-adv-x="755" d="M45 555q4 8 25.5 13t91.5 16l28 4l48 4l59 4l65 4h44l40 2l91 -4q68 -6 97.5 -18.5t43.5 -36.5q35 -74 35 -94q0 -31 -74 -37l-104 -6l-31 -3l-80 3l-10 -3l-101 -4h-51q-61 0 -95 10.5t-58 32.5l-39 54q-18 23 -23.5 38t-1.5 21z" />
<glyph unicode="&#x2013;" horiz-adv-x="1109" d="M46 555q6 8 38.5 13t139.5 16l43 4l74 4l90 4l99 4h68l61 2l139 -4q104 -6 149 -18.5t66 -36.5q54 -74 54 -94q0 -31 -113 -37l-159 -6l-48 -3l-122 3l-15 -3l-155 -4h-78q-93 0 -145 10.5t-89 32.5l-59 54q-28 23 -36.5 38t-1.5 21z" />
<glyph unicode="&#x2014;" horiz-adv-x="1150" d="M-14 471v170h1179v-170h-1179z" />
<glyph unicode="&#x2018;" horiz-adv-x="395" d="M57 1044q0 27 2 43l17 91l28 110l23 98l4 17q14 76 28.5 92t71.5 16q61 0 82 -22.5t21 -83.5l-2 -55l-2 -11l-17 -79q-4 -16 -5 -37t-1 -107l-2 -20q-14 -72 -39.5 -103.5t-66.5 -31.5q-84 0 -113 18t-29 65z" />
<glyph unicode="&#x2019;" horiz-adv-x="397" d="M59 1069q0 51 2 66q10 41 16.5 68.5t7.5 48t1 106.5l2 20q14 72 39 103.5t53 31.5q90 0 125 -18t35 -61q0 -18 -6 -48l-17 -86l-8 -36l-20 -78l-23 -99l-4 -16q-14 -76 -28.5 -92t-71.5 -16q-61 0 -82 20t-21 86z" />
<glyph unicode="&#x201a;" horiz-adv-x="397" d="M59 -133q0 51 2 65q10 41 16.5 69t7.5 48.5t1 106.5l2 20q14 72 39 103.5t53 31.5q90 0 125 -18.5t35 -61.5q0 -18 -6 -47l-17 -86l-8 -37l-20 -77l-23 -99l-4 -16q-14 -76 -28.5 -92.5t-71.5 -16.5q-61 0 -82 20.5t-21 86.5z" />
<glyph unicode="&#x202f;" horiz-adv-x="391" />
<glyph unicode="&#x2039;" horiz-adv-x="528" d="M45 440q0 16 33 50t51 73l4 6l25 54q12 29 63 98l19 24l18 23q10 10 43 76q4 6 10 12q12 10 35 24.5t43 14.5q33 0 57 -39l17 -27l8 -16q10 -25 10 -33q0 -12 -24 -41q-4 -18 -4 -41l-64 -71l-10 -11l-55 -73l-52 -72l-18 -22l55 -74l15 -15l26 -26l43 -62q25 -33 49 -65 q8 -12 11 -21l4 -12l6 -24q2 -6 2 -9q2 -4 14 -20t-12 -53q-43 -74 -66 -74q-10 0 -44.5 11t-39.5 15q-6 6 -47 78q-14 27 -36.5 57.5t-47.5 65.5l-49 70l-14 20l-27 37q-51 76 -51 92z" />
<glyph unicode="&#x203a;" horiz-adv-x="528" d="M43 111q0 12 25 41q6 18 6 43l61 69l10 12l56 72l51 72l18 22l-55 74l-14 16l-27 27l-43 59q-41 55 -49 67.5t-10 19.5l-4 12l-7 24l-16 31q-10 14 12 51q14 25 29.5 50.5t36.5 25.5q10 0 45 -12.5t39 -16.5q6 -6 49 -77l82 -123l49 -70l14 -20l27 -37q14 -23 32.5 -49.5 t18.5 -40.5t-31.5 -50t-52.5 -73l-4 -8l-24 -54q-14 -31 -62 -96l-20 -27l-19 -22q-2 -2 -10 -14q-14 -23 -33 -60q-2 -6 -10 -12q-12 -12 -34.5 -26.5t-43.5 -14.5q-31 0 -57 41l-15 24l-10 17q-10 25 -10 33z" />
<glyph unicode="&#x205f;" horiz-adv-x="489" />
<glyph unicode="&#x25fc;" horiz-adv-x="952" d="M0 0v952h952v-952h-952z" />
</font>
</defs>
</svg>
